{
.appVersion = "1192";
DisplayStrings = (
A,
a
);
date = "2018-12-25 22:02:39 +0000";
familyName = Sniglet;
featurePrefixes = (
{
automatic = 1;
code = "languagesystem DFLT dflt;\012";
name = Languagesystems;
}
);
features = (
{
automatic = 1;
code = "feature sups;\012feature ordn;\012";
name = aalt;
},
{
automatic = 1;
code = "sub one by onesuperior;\012sub two by twosuperior;\012sub three by threesuperior;\012";
name = sups;
},
{
automatic = 1;
code = "sub [zero one two three four five six seven eight nine] [A a]' by ordfeminine;\012";
name = ordn;
}
);
fontMaster = (
{
ascender = 750;
capHeight = 700;
descender = -250;
id = master01;
weightValue = 400;
widthValue = 5;
xHeight = 500;
}
);
glyphs = (
{
glyphname = A;
lastChange = "2018-12-25 22:25:09 +0000";
layers = (
{
layerId = master01;
paths = (
{
closed = 1;
nodes = (
"712 198 OFFCURVE",
"712 198 CURVE",
"705 388 OFFCURVE",
"635 514 OFFCURVE",
"577 598 CURVE SMOOTH",
"489 725 OFFCURVE",
"380 722 OFFCURVE",
"373 722 CURVE SMOOTH",
"366 722 OFFCURVE",
"257 725 OFFCURVE",
"170 598 CURVE SMOOTH",
"111 514 OFFCURVE",
"41 388 OFFCURVE",
"34 198 CURVE",
"34 198 OFFCURVE",
"19 46 OFFCURVE",
"124 9 CURVE",
"124 9 OFFCURVE",
"207 -20 OFFCURVE",
"275 20 CURVE SMOOTH",
"367 75 OFFCURVE",
"365 186 OFFCURVE",
"363 175 CURVE",
"383 175 LINE",
"381 186 OFFCURVE",
"379 75 OFFCURVE",
"471 20 CURVE SMOOTH",
"539 -20 OFFCURVE",
"622 9 OFFCURVE",
"622 9 CURVE",
"728 46 OFFCURVE"
);
},
{
closed = 1;
nodes = (
"426 363 OFFCURVE",
"426 336 CURVE SMOOTH",
"426 308 OFFCURVE",
"405 290 OFFCURVE",
"377 290 CURVE SMOOTH",
"350 290 OFFCURVE",
"330 301 OFFCURVE",
"327 336 CURVE SMOOTH",
"325 363 OFFCURVE",
"348 389 OFFCURVE",
"377 389 CURVE SMOOTH",
"408 389 OFFCURVE"
);
}
);
width = 746;
},
{
associatedMasterId = master01;
layerId = "CFD64E27-D445-4B65-9650-C16AE18BAA45";
name = "Dec 26 18, 00:18";
paths = (
{
closed = 1;
nodes = (
"712 198 OFFCURVE",
"712 198 CURVE",
"705 388 OFFCURVE",
"635 514 OFFCURVE",
"577 598 CURVE SMOOTH",
"489 725 OFFCURVE",
"380 722 OFFCURVE",
"373 722 CURVE SMOOTH",
"366 722 OFFCURVE",
"257 725 OFFCURVE",
"170 598 CURVE SMOOTH",
"111 514 OFFCURVE",
"41 388 OFFCURVE",
"34 198 CURVE",
"34 198 OFFCURVE",
"19 46 OFFCURVE",
"124 9 CURVE",
"124 9 OFFCURVE",
"207 -20 OFFCURVE",
"275 20 CURVE SMOOTH",
"354 67 OFFCURVE",
"371 156 OFFCURVE",
"373 173 CURVE",
"375 156 OFFCURVE",
"392 67 OFFCURVE",
"471 20 CURVE SMOOTH",
"539 -20 OFFCURVE",
"622 9 OFFCURVE",
"622 9 CURVE",
"728 46 OFFCURVE"
);
},
{
closed = 1;
nodes = (
"416 348 OFFCURVE",
"416 327 CURVE SMOOTH",
"416 304 OFFCURVE",
"399 290 OFFCURVE",
"377 290 CURVE SMOOTH",
"355 290 OFFCURVE",
"339 299 OFFCURVE",
"337 327 CURVE SMOOTH",
"335 348 OFFCURVE",
"354 369 OFFCURVE",
"377 369 CURVE SMOOTH",
"402 369 OFFCURVE"
);
}
);
width = 746;
},
{
associatedMasterId = master01;
layerId = "2AF573F2-B5FB-456D-9CB1-A114B0E8B775";
name = "Dec 26 18, 00:25";
paths = (
{
closed = 1;
nodes = (
"712 198 OFFCURVE",
"712 198 CURVE",
"705 388 OFFCURVE",
"635 514 OFFCURVE",
"577 598 CURVE SMOOTH",
"489 725 OFFCURVE",
"380 722 OFFCURVE",
"373 722 CURVE SMOOTH",
"366 722 OFFCURVE",
"257 725 OFFCURVE",
"170 598 CURVE SMOOTH",
"111 514 OFFCURVE",
"41 388 OFFCURVE",
"34 198 CURVE",
"34 198 OFFCURVE",
"19 46 OFFCURVE",
"124 9 CURVE",
"124 9 OFFCURVE",
"207 -20 OFFCURVE",
"275 20 CURVE SMOOTH",
"367 75 OFFCURVE",
"365 186 OFFCURVE",
"363 175 CURVE",
"383 175 LINE",
"381 186 OFFCURVE",
"379 75 OFFCURVE",
"471 20 CURVE SMOOTH",
"539 -20 OFFCURVE",
"622 9 OFFCURVE",
"622 9 CURVE",
"728 46 OFFCURVE"
);
},
{
closed = 1;
nodes = (
"426 363 OFFCURVE",
"426 336 CURVE SMOOTH",
"426 308 OFFCURVE",
"405 290 OFFCURVE",
"377 290 CURVE SMOOTH",
"350 290 OFFCURVE",
"330 301 OFFCURVE",
"327 336 CURVE SMOOTH",
"325 363 OFFCURVE",
"348 389 OFFCURVE",
"377 389 CURVE SMOOTH",
"408 389 OFFCURVE"
);
}
);
width = 746;
}
);
unicode = 0041;
},
{
glyphname = Aacute;
lastChange = "2018-12-25 22:03:18 +0000";
layers = (
{
components = (
{
name = A;
}
);
layerId = master01;
paths = (
{
closed = 1;
nodes = (
"241 852 OFFCURVE",
"207 814 OFFCURVE",
"227 774 CURVE SMOOTH",
"249 731 OFFCURVE",
"305 745 OFFCURVE",
"305 745 CURVE SMOOTH",
"305 745 OFFCURVE",
"412 760 OFFCURVE",
"468 809 CURVE SMOOTH",
"518 852 OFFCURVE",
"495 900 OFFCURVE",
"474 922 CURVE",
"454 941 OFFCURVE",
"431 960 OFFCURVE",
"371 940 CURVE SMOOTH",
"328 926 OFFCURVE",
"263 880 OFFCURVE",
"241 852 CURVE"
);
}
);
width = 746;
}
);
unicode = 00C1;
},
{
glyphname = Acircumflex;
lastChange = "2018-12-25 22:03:23 +0000";
layers = (
{
components = (
{
name = A;
}
);
layerId = master01;
paths = (
{
closed = 1;
nodes = (
"201 818 OFFCURVE",
"205 782 OFFCURVE",
"230 762 CURVE SMOOTH",
"275 726 OFFCURVE",
"310 771 OFFCURVE",
"310 771 CURVE SMOOTH",
"310 771 OFFCURVE",
"335 798 OFFCURVE",
"373 822 CURVE",
"404 805 OFFCURVE",
"427 774 OFFCURVE",
"428 774 CURVE",
"427 774 LINE",
"446 748 OFFCURVE",
"481 742 OFFCURVE",
"507 760 CURVE SMOOTH",
"533 778 OFFCURVE",
"539 814 OFFCURVE",
"521 839 CURVE",
"519 842 OFFCURVE",
"447 936 OFFCURVE",
"373 936 CURVE SMOOTH",
"296 936 OFFCURVE",
"223 845 OFFCURVE",
"221 842 CURVE"
);
}
);
width = 746;
}
);
unicode = 00C2;
},
{
glyphname = Adieresis;
lastChange = "2018-12-25 22:03:31 +0000";
layers = (
{
components = (
{
name = A;
}
);
layerId = master01;
paths = (
{
closed = 1;
nodes = (
"355 865 OFFCURVE",
"328 900 OFFCURVE",
"278 900 CURVE SMOOTH",
"228 900 OFFCURVE",
"201 865 OFFCURVE",
"201 823 CURVE SMOOTH",
"201 780 OFFCURVE",
"228 745 OFFCURVE",
"278 745 CURVE SMOOTH",
"328 745 OFFCURVE",
"355 780 OFFCURVE",
"355 823 CURVE SMOOTH"
);
},
{
closed = 1;
nodes = (
"538 865 OFFCURVE",
"511 900 OFFCURVE",
"461 900 CURVE SMOOTH",
"411 900 OFFCURVE",
"384 865 OFFCURVE",
"384 823 CURVE SMOOTH",
"384 780 OFFCURVE",
"411 745 OFFCURVE",
"461 745 CURVE SMOOTH",
"511 745 OFFCURVE",
"538 780 OFFCURVE",
"538 823 CURVE SMOOTH"
);
}
);
width = 746;
}
);
unicode = 00C4;
},
{
glyphname = Agrave;
lastChange = "2018-12-25 22:03:38 +0000";
layers = (
{
components = (
{
name = A;
}
);
layerId = master01;
paths = (
{
closed = 1;
nodes = (
"295 965 OFFCURVE",
"272 946 OFFCURVE",
"252 927 CURVE",
"231 905 OFFCURVE",
"208 857 OFFCURVE",
"258 814 CURVE SMOOTH",
"314 765 OFFCURVE",
"421 750 OFFCURVE",
"421 750 CURVE SMOOTH",
"421 750 OFFCURVE",
"477 736 OFFCURVE",
"499 779 CURVE SMOOTH",
"519 819 OFFCURVE",
"485 857 OFFCURVE",
"485 857 CURVE",
"463 885 OFFCURVE",
"398 931 OFFCURVE",
"355 945 CURVE SMOOTH"
);
}
);
width = 746;
}
);
unicode = 00C0;
},
{
glyphname = Aring;
lastChange = "2018-12-25 22:03:46 +0000";
layers = (
{
components = (
{
name = A;
}
);
layerId = master01;
paths = (
{
closed = 1;
nodes = (
"492 865 OFFCURVE",
"437 917 OFFCURVE",
"370 917 CURVE SMOOTH",
"302 917 OFFCURVE",
"247 865 OFFCURVE",
"247 802 CURVE SMOOTH",
"247 738 OFFCURVE",
"302 687 OFFCURVE",
"370 687 CURVE SMOOTH",
"437 687 OFFCURVE",
"492 738 OFFCURVE",
"492 802 CURVE SMOOTH"
);
},
{
closed = 1;
nodes = (
"396 854 OFFCURVE",
"422 841 OFFCURVE",
"422 800 CURVE SMOOTH",
"422 767 OFFCURVE",
"398 750 OFFCURVE",
"370 750 CURVE SMOOTH",
"339 750 OFFCURVE",
"318 767 OFFCURVE",
"318 800 CURVE SMOOTH",
"318 831 OFFCURVE",
"334 854 OFFCURVE",
"370 854 CURVE SMOOTH"
);
}
);
width = 746;
}
);
unicode = 00C5;
},
{
glyphname = Atilde;
lastChange = "2018-12-25 22:03:51 +0000";
layers = (
{
components = (
{
name = A;
}
);
layerId = master01;
paths = (
{
closed = 1;
nodes = (
"604 909 OFFCURVE",
"510 936 OFFCURVE",
"510 936 CURVE",
"469 949 OFFCURVE",
"436 922 OFFCURVE",
"423 884 CURVE",
"422 885 OFFCURVE",
"422 887 OFFCURVE",
"421 888 CURVE",
"214 1050 OFFCURVE",
"161 849 OFFCURVE",
"161 849 CURVE",
"148 814 OFFCURVE",
"170 770 OFFCURVE",
"205 758 CURVE",
"205 758 OFFCURVE",
"281 729 OFFCURVE",
"305 819 CURVE",
"305 819 OFFCURVE",
"468 672 OFFCURVE",
"550 815 CURVE SMOOTH"
);
}
);
width = 746;
}
);
unicode = 00C3;
},
{
glyphname = B;
layers = (
{
layerId = master01;
paths = (
{
closed = 1;
nodes = (
"148 745 OFFCURVE",
"77 563 CURVE",
"77 563 OFFCURVE",
"37 475 OFFCURVE",
"37 337 CURVE SMOOTH",
"37 269 OFFCURVE",
"45 185 OFFCURVE",
"85 117 CURVE",
"85 117 OFFCURVE",
"147 -13 OFFCURVE",
"372 0 CURVE",
"372 0 OFFCURVE",
"649 9 OFFCURVE",
"636 229 CURVE",
"636 229 OFFCURVE",
"636 340 OFFCURVE",
"514 377 CURVE",
"514 377 OFFCURVE",
"638 432 OFFCURVE",
"598 577 CURVE",
"598 577 OFFCURVE",
"562 707 OFFCURVE",
"373 714 CURVE",
"373 714 OFFCURVE"
);
},
{
closed = 1;
nodes = (
"378 496 OFFCURVE",
"378 476 CURVE SMOOTH",
"378 455 OFFCURVE",
"364 433 OFFCURVE",
"338 433 CURVE SMOOTH",
"308 433 OFFCURVE",
"298 455 OFFCURVE",
"298 476 CURVE SMOOTH",
"298 498 OFFCURVE",
"316 514 OFFCURVE",
"338 514 CURVE SMOOTH",
"364 514 OFFCURVE"
);
},
{
closed = 1;
nodes = (
"386 253 OFFCURVE",
"386 232 CURVE SMOOTH",
"386 209 OFFCURVE",
"369 195 OFFCURVE",
"347 195 CURVE SMOOTH",
"325 195 OFFCURVE",
"309 204 OFFCURVE",
"307 232 CURVE SMOOTH",
"305 253 OFFCURVE",
"324 274 OFFCURVE",
"347 274 CURVE SMOOTH",
"372 274 OFFCURVE"
);
}
);
width = 668;
}
);
unicode = 0042;
},
{
glyphname = C;
layers = (
{
layerId = master01;
paths = (
{
closed = 1;
nodes = (
"653 484 OFFCURVE",
"653 484 CURVE",
"705 607 OFFCURVE",
"606 668 OFFCURVE",
"606 668 CURVE",
"468 750 OFFCURVE",
"291 704 OFFCURVE",
"291 704 CURVE",
"15 641 OFFCURVE",
"28 364 OFFCURVE",
"28 364 CURVE",
"21 75 OFFCURVE",
"243 19 OFFCURVE",
"243 19 CURVE",
"475 -45 OFFCURVE",
"595 28 OFFCURVE",
"595 28 CURVE",
"688 79 OFFCURVE",
"674 183 OFFCURVE",
"674 183 CURVE",
"657 319 OFFCURVE",
"500 292 OFFCURVE",
"500 292 CURVE",
"373 278 OFFCURVE",
"382 365 OFFCURVE",
"382 365 CURVE",
"387 449 OFFCURVE",
"497 426 OFFCURVE",
"497 426 CURVE",
"622 403 OFFCURVE"
);
}
);
width = 695;
}
);
unicode = 0043;
},
{
glyphname = Ccedilla;
lastChange = "2018-12-25 22:11:24 +0000";
layers = (
{
components = (
{
name = C;
}
);
layerId = master01;
paths = (
{
closed = 1;
nodes = (
"289 25 LINE",
"289 -72 LINE SMOOTH",
"289 -104 OFFCURVE",
"319 -110 OFFCURVE",
"339 -111 CURVE",
"391 -111 OFFCURVE",
"406 -116 OFFCURVE",
"406 -141 CURVE SMOOTH",
"406 -173 OFFCURVE",
"341 -161 OFFCURVE",
"341 -161 CURVE SMOOTH",
"312 -161 OFFCURVE",
"298 -175 OFFCURVE",
"296 -197 CURVE SMOOTH",
"293 -225 OFFCURVE",
"316 -244 OFFCURVE",
"341 -244 CURVE",
"341 -244 OFFCURVE",
"419 -253 OFFCURVE",
"463 -218 CURVE SMOOTH",
"484 -201 OFFCURVE",
"499 -179 OFFCURVE",
"499 -141 CURVE SMOOTH",
"499 -100 OFFCURVE",
"474 -73 OFFCURVE",
"456 -60 CURVE SMOOTH",
"435 -45 OFFCURVE",
"406 -41 OFFCURVE",
"379 -41 CURVE",
"379 -31 OFFCURVE",
"379 1 OFFCURVE",
"379 12 CURVE"
);
}
);
width = 670;
}
);
unicode = 00C7;
},
{
glyphname = D;
layers = (
{
layerId = master01;
paths = (
{
closed = 1;
nodes = (
"601 555 OFFCURVE",
"601 555 CURVE SMOOTH",
"601 555 OFFCURVE",
"522 710 OFFCURVE",
"266 708 CURVE SMOOTH",
"266 708 OFFCURVE",
"91 723 OFFCURVE",
"62 557 CURVE",
"62 557 OFFCURVE",
"40 452 OFFCURVE",
"40 312 CURVE SMOOTH",
"40 243 OFFCURVE",
"37 143 OFFCURVE",
"76 75 CURVE",
"76 75 OFFCURVE",
"126 -12 OFFCURVE",
"283 -11 CURVE",
"283 -11 OFFCURVE",
"562 -33 OFFCURVE",
"624 180 CURVE SMOOTH",
"692 415 OFFCURVE"
);
},
{
closed = 1;
nodes = (
"386 363 OFFCURVE",
"386 342 CURVE SMOOTH",
"386 319 OFFCURVE",
"369 305 OFFCURVE",
"347 305 CURVE SMOOTH",
"325 305 OFFCURVE",
"307 310 OFFCURVE",
"307 342 CURVE SMOOTH",
"307 375 OFFCURVE",
"324 384 OFFCURVE",
"347 384 CURVE SMOOTH",
"372 384 OFFCURVE"
);
}
);
width = 684;
}
);
unicode = 0044;
},
{
glyphname = Eth;
layers = (
{
layerId = master01;
paths = (
{
closed = 1;
nodes = (
"687 715 OFFCURVE",
"431 713 CURVE SMOOTH",
"431 713 OFFCURVE",
"256 728 OFFCURVE",
"227 562 CURVE",
"227 562 OFFCURVE",
"220 518 OFFCURVE",
"214 460 CURVE",
"182 458 OFFCURVE",
"177 462 OFFCURVE",
"141 454 CURVE SMOOTH",
"36 430 OFFCURVE",
"49 338 OFFCURVE",
"49 338 CURVE SMOOTH",
"49 338 OFFCURVE",
"48 250 OFFCURVE",
"142 235 CURVE SMOOTH",
"175 230 OFFCURVE",
"178 230 OFFCURVE",
"209 229 CURVE",
"212 178 OFFCURVE",
"218 121 OFFCURVE",
"241 80 CURVE",
"241 80 OFFCURVE",
"291 -7 OFFCURVE",
"448 -6 CURVE",
"448 -6 OFFCURVE",
"727 -28 OFFCURVE",
"789 185 CURVE SMOOTH",
"857 420 OFFCURVE",
"766 560 OFFCURVE",
"766 560 CURVE SMOOTH",
"766 560 OFFCURVE"
);
},
{
closed = 1;
nodes = (
"532 356 OFFCURVE",
"532 335 CURVE SMOOTH",
"532 312 OFFCURVE",
"515 298 OFFCURVE",
"493 298 CURVE SMOOTH",
"471 298 OFFCURVE",
"453 298 OFFCURVE",
"453 335 CURVE SMOOTH",
"453 368 OFFCURVE",
"470 377 OFFCURVE",
"493 377 CURVE SMOOTH",
"518 377 OFFCURVE"
);
}
);
width = 835;
}
);
unicode = 00D0;
},
{
glyphname = E;
layers = (
{
layerId = master01;
paths = (
{
closed = 1;
nodes = (
"85 734 OFFCURVE",
"53 549 CURVE",
"53 549 OFFCURVE",
"17 312 OFFCURVE",
"51 137 CURVE",
"51 137 OFFCURVE",
"69 -15 OFFCURVE",
"360 -8 CURVE",
"360 -8 OFFCURVE",
"618 -12 OFFCURVE",
"625 114 CURVE",
"625 114 OFFCURVE",
"638 245 OFFCURVE",
"387 241 CURVE SMOOTH",
"387 241 OFFCURVE",
"495 262 OFFCURVE",
"495 345 CURVE",
"495 345 OFFCURVE",
"511 426 OFFCURVE",
"358 451 CURVE",
"358 451 OFFCURVE",
"626 425 OFFCURVE",
"623 584 CURVE",
"623 584 OFFCURVE",
"642 703 OFFCURVE",
"343 711 CURVE SMOOTH",
"343 711 OFFCURVE"
);
}
);
width = 668;
}
);
unicode = 0045;
},
{
glyphname = Eacute;
lastChange = "2018-12-25 22:04:25 +0000";
layers = (
{
components = (
{
name = E;
}
);
layerId = master01;
paths = (
{
closed = 1;
nodes = (
"231 852 OFFCURVE",
"197 814 OFFCURVE",
"217 774 CURVE SMOOTH",
"239 731 OFFCURVE",
"295 745 OFFCURVE",
"295 745 CURVE SMOOTH",
"295 745 OFFCURVE",
"402 760 OFFCURVE",
"458 809 CURVE SMOOTH",
"508 852 OFFCURVE",
"485 900 OFFCURVE",
"464 922 CURVE",
"444 941 OFFCURVE",
"421 960 OFFCURVE",
"361 940 CURVE SMOOTH",
"318 926 OFFCURVE",
"253 880 OFFCURVE",
"231 852 CURVE"
);
}
);
width = 668;
}
);
unicode = 00C9;
},
{
glyphname = Ecircumflex;
lastChange = "2018-12-25 22:05:11 +0000";
layers = (
{
components = (
{
name = E;
}
);
layerId = master01;
paths = (
{
closed = 1;
nodes = (
"170 810 OFFCURVE",
"174 774 OFFCURVE",
"199 754 CURVE SMOOTH",
"244 718 OFFCURVE",
"279 763 OFFCURVE",
"279 763 CURVE SMOOTH",
"279 763 OFFCURVE",
"304 790 OFFCURVE",
"342 814 CURVE",
"373 797 OFFCURVE",
"396 766 OFFCURVE",
"397 766 CURVE",
"396 766 LINE",
"415 740 OFFCURVE",
"450 734 OFFCURVE",
"476 752 CURVE SMOOTH",
"502 770 OFFCURVE",
"508 806 OFFCURVE",
"490 831 CURVE",
"488 834 OFFCURVE",
"416 928 OFFCURVE",
"342 928 CURVE SMOOTH",
"265 928 OFFCURVE",
"192 837 OFFCURVE",
"190 834 CURVE"
);
}
);
width = 668;
}
);
unicode = 00CA;
},
{
glyphname = Edieresis;
lastChange = "2018-12-25 22:05:20 +0000";
layers = (
{
components = (
{
name = E;
}
);
layerId = master01;
paths = (
{
closed = 1;
nodes = (
"307 864 OFFCURVE",
"280 899 OFFCURVE",
"230 899 CURVE SMOOTH",
"180 899 OFFCURVE",
"153 864 OFFCURVE",
"153 822 CURVE SMOOTH",
"153 779 OFFCURVE",
"180 744 OFFCURVE",
"230 744 CURVE SMOOTH",
"280 744 OFFCURVE",
"307 779 OFFCURVE",
"307 822 CURVE SMOOTH"
);
},
{
closed = 1;
nodes = (
"490 864 OFFCURVE",
"463 899 OFFCURVE",
"413 899 CURVE SMOOTH",
"363 899 OFFCURVE",
"336 864 OFFCURVE",
"336 822 CURVE SMOOTH",
"336 779 OFFCURVE",
"363 744 OFFCURVE",
"413 744 CURVE SMOOTH",
"463 744 OFFCURVE",
"490 779 OFFCURVE",
"490 822 CURVE SMOOTH"
);
}
);
width = 668;
}
);
unicode = 00CB;
},
{
glyphname = Egrave;
lastChange = "2018-12-25 22:05:23 +0000";
layers = (
{
components = (
{
name = E;
}
);
layerId = master01;
paths = (
{
closed = 1;
nodes = (
"243 967 OFFCURVE",
"220 948 OFFCURVE",
"200 929 CURVE",
"179 907 OFFCURVE",
"156 859 OFFCURVE",
"206 816 CURVE SMOOTH",
"262 767 OFFCURVE",
"369 752 OFFCURVE",
"369 752 CURVE SMOOTH",
"369 752 OFFCURVE",
"425 738 OFFCURVE",
"447 781 CURVE SMOOTH",
"467 821 OFFCURVE",
"433 859 OFFCURVE",
"433 859 CURVE",
"411 887 OFFCURVE",
"346 933 OFFCURVE",
"303 947 CURVE SMOOTH"
);
}
);
width = 668;
}
);
unicode = 00C8;
},
{
glyphname = F;
layers = (
{
layerId = master01;
paths = (
{
closed = 1;
nodes = (
"499 260 OFFCURVE",
"499 371 CURVE",
"499 371 OFFCURVE",
"507 449 OFFCURVE",
"374 468 CURVE",
"374 468 OFFCURVE",
"615 452 OFFCURVE",
"608 598 CURVE",
"608 598 OFFCURVE",
"619 716 OFFCURVE",
"361 730 CURVE",
"361 730 OFFCURVE",
"75 757 OFFCURVE",
"40 565 CURVE",
"40 565 OFFCURVE",
"7 360 OFFCURVE",
"40 183 CURVE",
"40 183 OFFCURVE",
"60 0 OFFCURVE",
"207 0 CURVE",
"207 0 OFFCURVE",
"412 -35 OFFCURVE",
"354 257 CURVE",
"354 257 OFFCURVE"
);
}
);
width = 638;
}
);
unicode = 0046;
},
{
glyphname = G;
layers = (
{
layerId = master01;
paths = (
{
closed = 1;
nodes = (
"315 364 OFFCURVE",
"315 364 CURVE",
"317 492 OFFCURVE",
"446 447 OFFCURVE",
"446 447 CURVE",
"586 393 OFFCURVE",
"621 477 OFFCURVE",
"621 477 CURVE",
"662 566 OFFCURVE",
"602 629 OFFCURVE",
"602 629 CURVE",
"469 768 OFFCURVE",
"262 708 OFFCURVE",
"262 708 CURVE",
"-3 621 OFFCURVE",
"9 353 OFFCURVE",
"9 353 CURVE",
"9 33 OFFCURVE",
"262 -1 OFFCURVE",
"262 -1 CURVE",
"387 -23 OFFCURVE",
"465 19 OFFCURVE",
"495 57 CURVE",
"494 -21 OFFCURVE",
"555 -43 OFFCURVE",
"613 -43 CURVE",
"613 -43 OFFCURVE",
"710 -43 OFFCURVE",
"717 65 CURVE",
"717 65 OFFCURVE",
"742 289 OFFCURVE",
"692 353 CURVE",
"692 353 OFFCURVE",
"674 379 OFFCURVE",
"628 386 CURVE SMOOTH",
"558 397 OFFCURVE",
"425 400 OFFCURVE",
"407 353 CURVE",
"407 353 OFFCURVE",
"385 305 OFFCURVE",
"446 279 CURVE",
"315 233 OFFCURVE"
);
}
);
width = 754;
}
);
unicode = 0047;
},
{
glyphname = H;
layers = (
{
layerId = master01;
paths = (
{
closed = 1;
nodes = (
"374 717 OFFCURVE",
"200 717 CURVE SMOOTH",
"70 717 OFFCURVE",
"48 549 OFFCURVE",
"48 549 CURVE SMOOTH",
"48 549 OFFCURVE",
"22 417 OFFCURVE",
"41 187 CURVE SMOOTH",
"58 -10 OFFCURVE",
"202 -2 OFFCURVE",
"202 -2 CURVE",
"359 -1 OFFCURVE",
"371 224 OFFCURVE",
"371 224 CURVE",
"408 224 LINE",
"408 224 OFFCURVE",
"412 -2 OFFCURVE",
"571 -4 CURVE SMOOTH",
"716 -5 OFFCURVE",
"730 171 OFFCURVE",
"730 171 CURVE SMOOTH",
"730 171 OFFCURVE",
"752 332 OFFCURVE",
"730 520 CURVE SMOOTH",
"707 717 OFFCURVE",
"571 718 OFFCURVE",
"571 718 CURVE SMOOTH",
"398 718 OFFCURVE",
"404 489 OFFCURVE",
"404 489 CURVE SMOOTH",
"366 489 LINE SMOOTH",
"366 489 OFFCURVE"
);
}
);
width = 766;
}
);
unicode = 0048;
},
{
glyphname = I;
layers = (
{
layerId = master01;
paths = (
{
closed = 1;
nodes = (
"50 -7 OFFCURVE",
"215 -9 CURVE SMOOTH",
"365 -10 OFFCURVE",
"380 164 OFFCURVE",
"380 164 CURVE SMOOTH",
"380 164 OFFCURVE",
"402 324 OFFCURVE",
"380 510 CURVE SMOOTH",
"356 705 OFFCURVE",
"215 705 OFFCURVE",
"215 705 CURVE SMOOTH",
"42 704 OFFCURVE",
"35 482 OFFCURVE",
"35 482 CURVE SMOOTH",
"35 482 OFFCURVE",
"23 312 OFFCURVE",
"39 203 CURVE",
"39 203 OFFCURVE"
);
}
);
width = 420;
}
);
unicode = 0049;
},
{
glyphname = Iacute;
lastChange = "2018-12-25 22:05:33 +0000";
layers = (
{
components = (
{
name = I;
}
);
layerId = master01;
paths = (
{
closed = 1;
nodes = (
"97 851 OFFCURVE",
"63 813 OFFCURVE",
"83 773 CURVE SMOOTH",
"105 730 OFFCURVE",
"161 744 OFFCURVE",
"161 744 CURVE SMOOTH",
"161 744 OFFCURVE",
"268 759 OFFCURVE",
"324 808 CURVE SMOOTH",
"374 851 OFFCURVE",
"351 899 OFFCURVE",
"330 921 CURVE",
"310 940 OFFCURVE",
"287 959 OFFCURVE",
"227 939 CURVE SMOOTH",
"184 925 OFFCURVE",
"119 879 OFFCURVE",
"97 851 CURVE"
);
}
);
width = 420;
}
);
unicode = 00CD;
},
{
glyphname = Icircumflex;
lastChange = "2018-12-25 22:05:37 +0000";
layers = (
{
components = (
{
name = I;
}
);
layerId = master01;
paths = (
{
closed = 1;
nodes = (
"39 809 OFFCURVE",
"43 773 OFFCURVE",
"68 753 CURVE SMOOTH",
"113 717 OFFCURVE",
"148 762 OFFCURVE",
"148 762 CURVE SMOOTH",
"148 762 OFFCURVE",
"173 789 OFFCURVE",
"211 813 CURVE",
"242 796 OFFCURVE",
"265 765 OFFCURVE",
"266 765 CURVE",
"265 765 LINE",
"284 739 OFFCURVE",
"319 733 OFFCURVE",
"345 751 CURVE SMOOTH",
"371 769 OFFCURVE",
"377 805 OFFCURVE",
"359 830 CURVE",
"357 833 OFFCURVE",
"285 927 OFFCURVE",
"211 927 CURVE SMOOTH",
"134 927 OFFCURVE",
"61 836 OFFCURVE",
"59 833 CURVE"
);
}
);
width = 420;
}
);
unicode = 00CE;
},
{
glyphname = Idieresis;
lastChange = "2018-12-25 22:05:40 +0000";
layers = (
{
components = (
{
name = I;
}
);
layerId = master01;
paths = (
{
closed = 1;
nodes = (
"190 845 OFFCURVE",
"163 880 OFFCURVE",
"113 880 CURVE SMOOTH",
"63 880 OFFCURVE",
"36 845 OFFCURVE",
"36 803 CURVE SMOOTH",
"36 760 OFFCURVE",
"63 725 OFFCURVE",
"113 725 CURVE SMOOTH",
"163 725 OFFCURVE",
"190 760 OFFCURVE",
"190 803 CURVE SMOOTH"
);
},
{
closed = 1;
nodes = (
"373 845 OFFCURVE",
"346 880 OFFCURVE",
"296 880 CURVE SMOOTH",
"246 880 OFFCURVE",
"219 845 OFFCURVE",
"219 803 CURVE SMOOTH",
"219 760 OFFCURVE",
"246 725 OFFCURVE",
"296 725 CURVE SMOOTH",
"346 725 OFFCURVE",
"373 760 OFFCURVE",
"373 803 CURVE SMOOTH"
);
}
);
width = 420;
}
);
unicode = 00CF;
},
{
glyphname = Igrave;
lastChange = "2018-12-25 22:05:44 +0000";
layers = (
{
components = (
{
name = I;
}
);
layerId = master01;
paths = (
{
closed = 1;
nodes = (
"140 962 OFFCURVE",
"117 943 OFFCURVE",
"97 924 CURVE",
"76 902 OFFCURVE",
"53 854 OFFCURVE",
"103 811 CURVE SMOOTH",
"159 762 OFFCURVE",
"266 747 OFFCURVE",
"266 747 CURVE SMOOTH",
"266 747 OFFCURVE",
"322 733 OFFCURVE",
"344 776 CURVE SMOOTH",
"364 816 OFFCURVE",
"330 854 OFFCURVE",
"330 854 CURVE",
"308 882 OFFCURVE",
"243 928 OFFCURVE",
"200 942 CURVE SMOOTH"
);
}
);
width = 420;
}
);
unicode = 00CC;
},
{
glyphname = J;
layers = (
{
layerId = master01;
paths = (
{
closed = 1;
nodes = (
"185 207 OFFCURVE",
"91 199 CURVE SMOOTH",
"39 195 OFFCURVE",
"10 121 OFFCURVE",
"41 73 CURVE SMOOTH",
"115 -41 OFFCURVE",
"358 -20 OFFCURVE",
"422 42 CURVE SMOOTH",
"498 116 OFFCURVE",
"501 235 OFFCURVE",
"501 235 CURVE SMOOTH",
"501 235 OFFCURVE",
"511 348 OFFCURVE",
"496 529 CURVE SMOOTH",
"480 725 OFFCURVE",
"326 712 OFFCURVE",
"326 712 CURVE SMOOTH",
"167 710 OFFCURVE",
"170 501 OFFCURVE",
"170 501 CURVE SMOOTH",
"170 501 OFFCURVE",
"167 361 OFFCURVE",
"175 255 CURVE",
"175 255 OFFCURVE"
);
}
);
width = 547;
}
);
unicode = 004A;
},
{
glyphname = K;
layers = (
{
layerId = master01;
paths = (
{
closed = 1;
nodes = (
"421 719 OFFCURVE",
"213 713 CURVE SMOOTH",
"213 713 OFFCURVE",
"83 717 OFFCURVE",
"51 511 CURVE SMOOTH",
"19 307 OFFCURVE",
"58 148 OFFCURVE",
"58 148 CURVE SMOOTH",
"58 148 OFFCURVE",
"92 -32 OFFCURVE",
"241 -3 CURVE SMOOTH",
"377 23 OFFCURVE",
"355 164 OFFCURVE",
"355 164 CURVE SMOOTH",
"355 164 OFFCURVE",
"463 -92 OFFCURVE",
"646 19 CURVE",
"646 19 OFFCURVE",
"808 102 OFFCURVE",
"558 373 CURVE",
"558 373 OFFCURVE",
"754 522 OFFCURVE",
"629 648 CURVE",
"629 648 OFFCURVE",
"545 733 OFFCURVE",
"446 648 CURVE SMOOTH",
"391 601 OFFCURVE",
"380 541 OFFCURVE",
"380 541 CURVE SMOOTH",
"380 541 OFFCURVE"
);
}
);
width = 732;
}
);
unicode = 004B;
},
{
glyphname = L;
layers = (
{
layerId = master01;
paths = (
{
closed = 1;
nodes = (
"430 716 OFFCURVE",
"205 709 CURVE SMOOTH",
"205 709 OFFCURVE",
"78 717 OFFCURVE",
"48 546 CURVE",
"48 546 OFFCURVE",
"10 323 OFFCURVE",
"58 186 CURVE",
"58 186 OFFCURVE",
"107 -18 OFFCURVE",
"355 -11 CURVE SMOOTH",
"624 -3 OFFCURVE",
"632 170 OFFCURVE",
"624 206 CURVE",
"624 206 OFFCURVE",
"588 408 OFFCURVE",
"355 284 CURVE",
"355 284 OFFCURVE"
);
}
);
width = 651;
}
);
unicode = 004C;
},
{
glyphname = M;
layers = (
{
layerId = master01;
paths = (
{
closed = 1;
nodes = (
"497 716 OFFCURVE",
"312 716 CURVE SMOOTH",
"312 716 OFFCURVE",
"175 733 OFFCURVE",
"105 573 CURVE",
"105 573 OFFCURVE",
"30 422 OFFCURVE",
"30 205 CURVE",
"30 205 OFFCURVE",
"16 -6 OFFCURVE",
"215 -6 CURVE",
"215 -6 OFFCURVE",
"387 -11 OFFCURVE",
"387 314 CURVE",
"387 314 OFFCURVE",
"393 168 OFFCURVE",
"497 168 CURVE",
"497 168 OFFCURVE",
"582 156 OFFCURVE",
"594 312 CURVE",
"594 312 OFFCURVE",
"588 -6 OFFCURVE",
"796 -6 CURVE",
"796 -6 OFFCURVE",
"955 -14 OFFCURVE",
"946 211 CURVE",
"946 211 OFFCURVE",
"946 400 OFFCURVE",
"874 565 CURVE",
"874 565 OFFCURVE",
"810 718 OFFCURVE",
"680 718 CURVE SMOOTH",
"510 718 OFFCURVE",
"492 500 OFFCURVE",
"492 500 CURVE SMOOTH",
"492 500 OFFCURVE"
);
}
);
width = 987;
}
);
unicode = 004D;
},
{
glyphname = N;
layers = (
{
layerId = master01;
paths = (
{
closed = 1;
nodes = (
"5 319 OFFCURVE",
"55 109 CURVE",
"55 109 OFFCURVE",
"79 -5 OFFCURVE",
"193 -2 CURVE",
"193 -2 OFFCURVE",
"372 -32 OFFCURVE",
"354 296 CURVE",
"354 296 OFFCURVE",
"383 -7 OFFCURVE",
"601 -2 CURVE",
"601 -2 OFFCURVE",
"725 -22 OFFCURVE",
"761 148 CURVE",
"761 148 OFFCURVE",
"813 362 OFFCURVE",
"769 593 CURVE",
"769 593 OFFCURVE",
"752 711 OFFCURVE",
"626 707 CURVE SMOOTH",
"626 707 OFFCURVE",
"464 724 OFFCURVE",
"467 450 CURVE",
"467 450 OFFCURVE",
"464 724 OFFCURVE",
"241 714 CURVE SMOOTH",
"84 707 OFFCURVE",
"55 552 OFFCURVE",
"55 552 CURVE SMOOTH",
"55 552 OFFCURVE"
);
}
);
width = 823;
}
);
unicode = 004E;
},
{
glyphname = Ntilde;
lastChange = "2018-12-25 22:06:04 +0000";
layers = (
{
components = (
{
name = N;
transform = "{1, 0, 0, 1, 10, 0}";
}
);
layerId = master01;
paths = (
{
closed = 1;
nodes = (
"653 908 OFFCURVE",
"559 935 OFFCURVE",
"559 935 CURVE",
"518 948 OFFCURVE",
"485 921 OFFCURVE",
"472 883 CURVE",
"471 884 OFFCURVE",
"471 886 OFFCURVE",
"470 887 CURVE",
"263 1049 OFFCURVE",
"210 848 OFFCURVE",
"210 848 CURVE",
"197 813 OFFCURVE",
"219 769 OFFCURVE",
"254 757 CURVE",
"254 757 OFFCURVE",
"330 728 OFFCURVE",
"354 818 CURVE",
"354 818 OFFCURVE",
"517 671 OFFCURVE",
"599 814 CURVE SMOOTH"
);
}
);
width = 833;
}
);
unicode = 00D1;
},
{
glyphname = O;
layers = (
{
layerId = master01;
paths = (
{
closed = 1;
nodes = (
"33 741 OFFCURVE",
"33 327 CURVE",
"33 327 OFFCURVE",
"33 -11 OFFCURVE",
"393 -11 CURVE",
"393 -11 OFFCURVE",
"713 -11 OFFCURVE",
"713 365 CURVE",
"713 365 OFFCURVE",
"713 704 OFFCURVE",
"393 704 CURVE SMOOTH",
"393 704 OFFCURVE"
);
},
{
closed = 1;
nodes = (
"417 362 OFFCURVE",
"417 341 CURVE SMOOTH",
"417 318 OFFCURVE",
"400 304 OFFCURVE",
"378 304 CURVE SMOOTH",
"356 304 OFFCURVE",
"340 313 OFFCURVE",
"338 341 CURVE SMOOTH",
"336 362 OFFCURVE",
"355 383 OFFCURVE",
"378 383 CURVE SMOOTH",
"403 383 OFFCURVE"
);
}
);
width = 748;
}
);
unicode = 004F;
},
{
glyphname = Oacute;
lastChange = "2018-12-25 22:06:13 +0000";
layers = (
{
components = (
{
name = O;
transform = "{1, 0, 0, 1, 10, 0}";
}
);
layerId = master01;
paths = (
{
closed = 1;
nodes = (
"249 852 OFFCURVE",
"215 814 OFFCURVE",
"235 774 CURVE SMOOTH",
"257 731 OFFCURVE",
"313 745 OFFCURVE",
"313 745 CURVE SMOOTH",
"313 745 OFFCURVE",
"420 760 OFFCURVE",
"476 809 CURVE SMOOTH",
"526 852 OFFCURVE",
"503 900 OFFCURVE",
"482 922 CURVE",
"462 941 OFFCURVE",
"439 960 OFFCURVE",
"379 940 CURVE SMOOTH",
"336 926 OFFCURVE",
"271 880 OFFCURVE",
"249 852 CURVE"
);
}
);
width = 771;
}
);
unicode = 00D3;
},
{
glyphname = Ocircumflex;
lastChange = "2018-12-25 22:06:18 +0000";
layers = (
{
components = (
{
name = O;
transform = "{1, 0, 0, 1, 10, 0}";
}
);
layerId = master01;
paths = (
{
closed = 1;
nodes = (
"226 807 OFFCURVE",
"230 771 OFFCURVE",
"255 751 CURVE SMOOTH",
"300 715 OFFCURVE",
"335 760 OFFCURVE",
"335 760 CURVE SMOOTH",
"335 760 OFFCURVE",
"360 787 OFFCURVE",
"398 811 CURVE",
"429 794 OFFCURVE",
"452 763 OFFCURVE",
"453 763 CURVE",
"452 763 LINE",
"471 737 OFFCURVE",
"506 731 OFFCURVE",
"532 749 CURVE SMOOTH",
"558 767 OFFCURVE",
"564 803 OFFCURVE",
"546 828 CURVE",
"544 831 OFFCURVE",
"472 925 OFFCURVE",
"398 925 CURVE SMOOTH",
"321 925 OFFCURVE",
"248 834 OFFCURVE",
"246 831 CURVE"
);
}
);
width = 771;
}
);
unicode = 00D4;
},
{
glyphname = Odieresis;
lastChange = "2018-12-25 22:06:23 +0000";
layers = (
{
components = (
{
name = O;
transform = "{1, 0, 0, 1, 10, 0}";
}
);
layerId = master01;
paths = (
{
closed = 1;
nodes = (
"365 862 OFFCURVE",
"338 897 OFFCURVE",
"288 897 CURVE SMOOTH",
"238 897 OFFCURVE",
"211 862 OFFCURVE",
"211 820 CURVE SMOOTH",
"211 777 OFFCURVE",
"238 742 OFFCURVE",
"288 742 CURVE SMOOTH",
"338 742 OFFCURVE",
"365 777 OFFCURVE",
"365 820 CURVE SMOOTH"
);
},
{
closed = 1;
nodes = (
"548 862 OFFCURVE",
"521 897 OFFCURVE",
"471 897 CURVE SMOOTH",
"421 897 OFFCURVE",
"394 862 OFFCURVE",
"394 820 CURVE SMOOTH",
"394 777 OFFCURVE",
"421 742 OFFCURVE",
"471 742 CURVE SMOOTH",
"521 742 OFFCURVE",
"548 777 OFFCURVE",
"548 820 CURVE SMOOTH"
);
}
);
width = 771;
}
);
unicode = 00D6;
},
{
glyphname = Ograve;
lastChange = "2018-12-25 22:06:28 +0000";
layers = (
{
components = (
{
name = O;
transform = "{1, 0, 0, 1, 10, 0}";
}
);
layerId = master01;
paths = (
{
closed = 1;
nodes = (
"305 965 OFFCURVE",
"282 946 OFFCURVE",
"262 927 CURVE",
"241 905 OFFCURVE",
"218 857 OFFCURVE",
"268 814 CURVE SMOOTH",
"324 765 OFFCURVE",
"431 750 OFFCURVE",
"431 750 CURVE SMOOTH",
"431 750 OFFCURVE",
"487 736 OFFCURVE",
"509 779 CURVE SMOOTH",
"529 819 OFFCURVE",
"495 857 OFFCURVE",
"495 857 CURVE",
"473 885 OFFCURVE",
"408 931 OFFCURVE",
"365 945 CURVE SMOOTH"
);
}
);
width = 771;
}
);
unicode = 00D2;
},
{
glyphname = Oslash;
lastChange = "2018-12-25 22:07:14 +0000";
layers = (
{
components = (
{
name = O;
transform = "{1, 0, 0, 1, -13, 0}";
}
);
layerId = master01;
paths = (
{
closed = 1;
nodes = (
"155 69 LINE",
"144 31 OFFCURVE",
"135 -2 OFFCURVE",
"129 -27 CURVE SMOOTH",
"113 -109 OFFCURVE",
"175 -126 OFFCURVE",
"175 -126 CURVE SMOOTH",
"175 -126 OFFCURVE",
"234 -152 OFFCURVE",
"274 -84 CURVE",
"274 -84 OFFCURVE",
"294 -48 OFFCURVE",
"324 12 CURVE"
);
},
{
closed = 1;
nodes = (
"590 595 LINE",
"603 629 OFFCURVE",
"614 661 OFFCURVE",
"625 693 CURVE",
"654 787 OFFCURVE",
"590 801 OFFCURVE",
"590 801 CURVE SMOOTH",
"590 801 OFFCURVE",
"520 838 OFFCURVE",
"470 756 CURVE SMOOTH",
"459 737 OFFCURVE",
"443 711 OFFCURVE",
"426 679 CURVE"
);
}
);
width = 735;
}
);
unicode = 00D8;
},
{
glyphname = Otilde;
lastChange = "2018-12-25 22:07:25 +0000";
layers = (
{
components = (
{
name = O;
transform = "{1, 0, 0, 1, 12, 0}";
}
);
layerId = master01;
paths = (
{
closed = 1;
nodes = (
"614 901 OFFCURVE",
"520 928 OFFCURVE",
"520 928 CURVE",
"479 941 OFFCURVE",
"446 914 OFFCURVE",
"433 876 CURVE",
"432 877 OFFCURVE",
"432 879 OFFCURVE",
"431 880 CURVE",
"224 1042 OFFCURVE",
"171 841 OFFCURVE",
"171 841 CURVE",
"158 806 OFFCURVE",
"180 762 OFFCURVE",
"215 750 CURVE",
"215 750 OFFCURVE",
"291 721 OFFCURVE",
"315 811 CURVE",
"315 811 OFFCURVE",
"478 664 OFFCURVE",
"560 807 CURVE SMOOTH"
);
}
);
width = 771;
}
);
unicode = 00D5;
},
{
glyphname = P;
layers = (
{
layerId = master01;
paths = (
{
closed = 1;
nodes = (
"688 711 OFFCURVE",
"390 721 CURVE SMOOTH",
"390 721 OFFCURVE",
"159 745 OFFCURVE",
"87 537 CURVE",
"87 537 OFFCURVE",
"21 351 OFFCURVE",
"83 143 CURVE",
"83 143 OFFCURVE",
"128 -13 OFFCURVE",
"285 3 CURVE",
"285 3 OFFCURVE",
"434 10 OFFCURVE",
"390 205 CURVE",
"390 205 OFFCURVE",
"703 170 OFFCURVE",
"693 463 CURVE",
"693 463 OFFCURVE"
);
},
{
closed = 1;
nodes = (
"427 462 OFFCURVE",
"427 441 CURVE SMOOTH",
"427 418 OFFCURVE",
"410 404 OFFCURVE",
"388 404 CURVE SMOOTH",
"366 404 OFFCURVE",
"350 413 OFFCURVE",
"348 441 CURVE SMOOTH",
"346 462 OFFCURVE",
"365 483 OFFCURVE",
"388 483 CURVE SMOOTH",
"413 483 OFFCURVE"
);
}
);
width = 737;
}
);
unicode = 0050;
},
{
glyphname = Thorn;
layers = (
{
layerId = master01;
paths = (
{
closed = 1;
nodes = (
"670 578 OFFCURVE",
"372 587 CURVE",
"406 748 OFFCURVE",
"247 752 OFFCURVE",
"247 752 CURVE",
"104 766 OFFCURVE",
"64 627 OFFCURVE",
"64 627 CURVE",
"33 524 OFFCURVE",
"26 454 OFFCURVE",
"26 367 CURVE SMOOTH",
"26 278 OFFCURVE",
"29 202 OFFCURVE",
"67 96 CURVE",
"67 96 OFFCURVE",
"111 -23 OFFCURVE",
"250 -17 CURVE",
"250 -17 OFFCURVE",
"406 -20 OFFCURVE",
"371 152 CURVE",
"371 152 OFFCURVE",
"675 123 OFFCURVE",
"665 370 CURVE",
"665 370 OFFCURVE"
);
},
{
closed = 1;
nodes = (
"425 380 OFFCURVE",
"425 359 CURVE SMOOTH",
"425 336 OFFCURVE",
"408 322 OFFCURVE",
"386 322 CURVE SMOOTH",
"364 322 OFFCURVE",
"348 331 OFFCURVE",
"346 359 CURVE SMOOTH",
"344 380 OFFCURVE",
"363 401 OFFCURVE",
"386 401 CURVE SMOOTH",
"411 401 OFFCURVE"
);
}
);
width = 708;
}
);
unicode = 00DE;
},
{
glyphname = Q;
layers = (
{
layerId = master01;
paths = (
{
closed = 1;
nodes = (
"754 287 OFFCURVE",
"754 360 CURVE",
"754 360 OFFCURVE",
"754 701 OFFCURVE",
"426 701 CURVE SMOOTH",
"426 701 OFFCURVE",
"57 739 OFFCURVE",
"57 323 CURVE",
"57 323 OFFCURVE",
"57 -18 OFFCURVE",
"426 -18 CURVE",
"426 -18 OFFCURVE",
"486 -18 OFFCURVE",
"554 11 CURVE",
"581 -36 OFFCURVE",
"697 -97 OFFCURVE",
"771 15 CURVE SMOOTH",
"834 110 OFFCURVE",
"776 165 OFFCURVE",
"722 206 CURVE",
"741 245 OFFCURVE"
);
},
{
closed = 1;
nodes = (
"465 349 OFFCURVE",
"465 328 CURVE SMOOTH",
"465 305 OFFCURVE",
"448 291 OFFCURVE",
"426 291 CURVE SMOOTH",
"404 291 OFFCURVE",
"388 300 OFFCURVE",
"386 328 CURVE SMOOTH",
"384 349 OFFCURVE",
"403 370 OFFCURVE",
"426 370 CURVE SMOOTH",
"451 370 OFFCURVE"
);
}
);
width = 833;
}
);
unicode = 0051;
},
{
glyphname = R;
layers = (
{
layerId = master01;
paths = (
{
closed = 1;
nodes = (
"582 708 OFFCURVE",
"347 709 CURVE SMOOTH",
"347 709 OFFCURVE",
"117 731 OFFCURVE",
"60 512 CURVE",
"60 512 OFFCURVE",
"0 344 OFFCURVE",
"67 112 CURVE",
"67 112 OFFCURVE",
"102 -25 OFFCURVE",
"236 -8 CURVE",
"236 -8 OFFCURVE",
"374 4 OFFCURVE",
"347 177 CURVE",
"347 177 OFFCURVE",
"462 -105 OFFCURVE",
"616 18 CURVE",
"616 18 OFFCURVE",
"763 128 OFFCURVE",
"569 293 CURVE",
"569 293 OFFCURVE",
"644 376 OFFCURVE",
"618 519 CURVE",
"618 519 OFFCURVE"
);
},
{
closed = 1;
nodes = (
"386 429 OFFCURVE",
"386 408 CURVE SMOOTH",
"386 385 OFFCURVE",
"369 371 OFFCURVE",
"347 371 CURVE SMOOTH",
"325 371 OFFCURVE",
"309 380 OFFCURVE",
"307 408 CURVE SMOOTH",
"305 429 OFFCURVE",
"324 450 OFFCURVE",
"347 450 CURVE SMOOTH",
"372 450 OFFCURVE"
);
}
);
width = 687;
}
);
unicode = 0052;
},
{
glyphname = S;
layers = (
{
layerId = master01;
paths = (
{
closed = 1;
nodes = (
"543 432 OFFCURVE",
"557 564 CURVE SMOOTH",
"563 622 OFFCURVE",
"538 717 OFFCURVE",
"289 706 CURVE",
"289 706 OFFCURVE",
"91 719 OFFCURVE",
"63 519 CURVE",
"63 519 OFFCURVE",
"30 328 OFFCURVE",
"261 275 CURVE",
"261 275 OFFCURVE",
"33 312 OFFCURVE",
"35 138 CURVE",
"35 138 OFFCURVE",
"31 -28 OFFCURVE",
"331 -6 CURVE",
"331 -6 OFFCURVE",
"591 -3 OFFCURVE",
"591 239 CURVE",
"591 239 OFFCURVE",
"604 421 OFFCURVE",
"306 460 CURVE",
"306 460 OFFCURVE"
);
}
);
width = 625;
}
);
unicode = 0053;
},
{
glyphname = Scaron;
lastChange = "2018-12-25 22:08:04 +0000";
layers = (
{
components = (
{
name = S;
}
);
layerId = master01;
paths = (
{
closed = 1;
nodes = (
"490 866 OFFCURVE",
"486 902 OFFCURVE",
"461 922 CURVE SMOOTH",
"416 958 OFFCURVE",
"381 913 OFFCURVE",
"381 913 CURVE SMOOTH",
"381 913 OFFCURVE",
"356 886 OFFCURVE",
"318 862 CURVE",
"287 879 OFFCURVE",
"264 910 OFFCURVE",
"263 910 CURVE",
"264 910 LINE",
"245 936 OFFCURVE",
"210 942 OFFCURVE",
"184 924 CURVE SMOOTH",
"158 906 OFFCURVE",
"152 870 OFFCURVE",
"170 845 CURVE",
"172 842 OFFCURVE",
"244 748 OFFCURVE",
"318 748 CURVE SMOOTH",
"395 748 OFFCURVE",
"468 839 OFFCURVE",
"470 842 CURVE"
);
}
);
width = 625;
}
);
unicode = 0160;
},
{
glyphname = T;
layers = (
{
layerId = master01;
paths = (
{
closed = 1;
nodes = (
"210 242 OFFCURVE",
"239 107 CURVE SMOOTH",
"267 -23 OFFCURVE",
"389 -10 OFFCURVE",
"389 -10 CURVE SMOOTH",
"389 -10 OFFCURVE",
"499 -18 OFFCURVE",
"525 107 CURVE",
"525 107 OFFCURVE",
"559 221 OFFCURVE",
"525 423 CURVE",
"525 423 OFFCURVE",
"706 399 OFFCURVE",
"712 569 CURVE",
"712 569 OFFCURVE",
"718 672 OFFCURVE",
"596 698 CURVE",
"596 698 OFFCURVE",
"380 739 OFFCURVE",
"168 695 CURVE",
"168 695 OFFCURVE",
"36 680 OFFCURVE",
"36 547 CURVE SMOOTH",
"36 393 OFFCURVE",
"239 415 OFFCURVE",
"239 415 CURVE SMOOTH",
"239 415 OFFCURVE"
);
}
);
width = 736;
}
);
unicode = 0054;
},
{
glyphname = U;
layers = (
{
layerId = master01;
paths = (
{
closed = 1;
nodes = (
"69 727 OFFCURVE",
"37 559 CURVE",
"37 559 OFFCURVE",
"-8 297 OFFCURVE",
"92 127 CURVE",
"92 127 OFFCURVE",
"164 -13 OFFCURVE",
"380 -15 CURVE SMOOTH",
"638 -17 OFFCURVE",
"697 201 OFFCURVE",
"697 201 CURVE SMOOTH",
"697 201 OFFCURVE",
"754 393 OFFCURVE",
"709 594 CURVE",
"709 594 OFFCURVE",
"683 712 OFFCURVE",
"547 704 CURVE",
"547 704 OFFCURVE",
"404 712 OFFCURVE",
"408 559 CURVE SMOOTH",
"411 445 OFFCURVE",
"418 345 OFFCURVE",
"370 345 CURVE SMOOTH",
"321 345 OFFCURVE",
"331 445 OFFCURVE",
"331 559 CURVE SMOOTH",
"331 711 OFFCURVE",
"202 711 OFFCURVE",
"202 711 CURVE SMOOTH",
"202 711 OFFCURVE"
);
}
);
width = 767;
}
);
unicode = 0055;
},
{
glyphname = Uacute;
lastChange = "2018-12-25 22:08:11 +0000";
layers = (
{
components = (
{
name = U;
}
);
layerId = master01;
paths = (
{
closed = 1;
nodes = (
"271 852 OFFCURVE",
"237 814 OFFCURVE",
"257 774 CURVE SMOOTH",
"279 731 OFFCURVE",
"335 745 OFFCURVE",
"335 745 CURVE SMOOTH",
"335 745 OFFCURVE",
"442 760 OFFCURVE",
"498 809 CURVE SMOOTH",
"548 852 OFFCURVE",
"525 900 OFFCURVE",
"504 922 CURVE",
"484 941 OFFCURVE",
"461 960 OFFCURVE",
"401 940 CURVE SMOOTH",
"358 926 OFFCURVE",
"293 880 OFFCURVE",
"271 852 CURVE"
);
}
);
width = 767;
}
);
unicode = 00DA;
},
{
glyphname = Ucircumflex;
lastChange = "2018-12-25 22:08:15 +0000";
layers = (
{
components = (
{
name = U;
}
);
layerId = master01;
paths = (
{
closed = 1;
nodes = (
"207 806 OFFCURVE",
"211 770 OFFCURVE",
"236 750 CURVE SMOOTH",
"281 714 OFFCURVE",
"316 759 OFFCURVE",
"316 759 CURVE SMOOTH",
"316 759 OFFCURVE",
"341 786 OFFCURVE",
"379 810 CURVE",
"410 793 OFFCURVE",
"433 762 OFFCURVE",
"434 762 CURVE",
"433 762 LINE",
"452 736 OFFCURVE",
"487 730 OFFCURVE",
"513 748 CURVE SMOOTH",
"539 766 OFFCURVE",
"545 802 OFFCURVE",
"527 827 CURVE",
"525 830 OFFCURVE",
"453 924 OFFCURVE",
"379 924 CURVE SMOOTH",
"302 924 OFFCURVE",
"229 833 OFFCURVE",
"227 830 CURVE"
);
}
);
width = 767;
}
);
unicode = 00DB;
},
{
glyphname = Udieresis;
lastChange = "2018-12-25 22:08:18 +0000";
layers = (
{
components = (
{
name = U;
}
);
layerId = master01;
paths = (
{
closed = 1;
nodes = (
"354 862 OFFCURVE",
"327 897 OFFCURVE",
"277 897 CURVE SMOOTH",
"227 897 OFFCURVE",
"200 862 OFFCURVE",
"200 820 CURVE SMOOTH",
"200 777 OFFCURVE",
"227 742 OFFCURVE",
"277 742 CURVE SMOOTH",
"327 742 OFFCURVE",
"354 777 OFFCURVE",
"354 820 CURVE SMOOTH"
);
},
{
closed = 1;
nodes = (
"537 862 OFFCURVE",
"510 897 OFFCURVE",
"460 897 CURVE SMOOTH",
"410 897 OFFCURVE",
"383 862 OFFCURVE",
"383 820 CURVE SMOOTH",
"383 777 OFFCURVE",
"410 742 OFFCURVE",
"460 742 CURVE SMOOTH",
"510 742 OFFCURVE",
"537 777 OFFCURVE",
"537 820 CURVE SMOOTH"
);
}
);
width = 767;
}
);
unicode = 00DC;
},
{
glyphname = Ugrave;
lastChange = "2018-12-25 22:08:21 +0000";
layers = (
{
components = (
{
name = U;
}
);
layerId = master01;
paths = (
{
closed = 1;
nodes = (
"271 957 OFFCURVE",
"248 938 OFFCURVE",
"228 919 CURVE",
"207 897 OFFCURVE",
"184 849 OFFCURVE",
"234 806 CURVE SMOOTH",
"290 757 OFFCURVE",
"397 742 OFFCURVE",
"397 742 CURVE SMOOTH",
"397 742 OFFCURVE",
"453 728 OFFCURVE",
"475 771 CURVE SMOOTH",
"495 811 OFFCURVE",
"461 849 OFFCURVE",
"461 849 CURVE",
"439 877 OFFCURVE",
"374 923 OFFCURVE",
"331 937 CURVE SMOOTH"
);
}
);
width = 767;
}
);
unicode = 00D9;
},
{
glyphname = V;
layers = (
{
layerId = master01;
paths = (
{
closed = 1;
nodes = (
"368 748 OFFCURVE",
"169 713 CURVE SMOOTH",
"-27 678 OFFCURVE",
"29 478 OFFCURVE",
"63 380 CURVE SMOOTH",
"96 282 OFFCURVE",
"194 -5 OFFCURVE",
"419 -5 CURVE SMOOTH",
"628 -5 OFFCURVE",
"741 337 OFFCURVE",
"741 337 CURVE SMOOTH",
"741 337 OFFCURVE",
"877 670 OFFCURVE",
"671 715 CURVE SMOOTH",
"455 762 OFFCURVE",
"419 424 OFFCURVE",
"419 424 CURVE SMOOTH",
"419 424 OFFCURVE"
);
}
);
width = 806;
}
);
unicode = 0056;
},
{
glyphname = W;
layers = (
{
layerId = master01;
paths = (
{
closed = 1;
nodes = (
"507 -8 OFFCURVE",
"699 -8 CURVE",
"699 -8 OFFCURVE",
"838 -15 OFFCURVE",
"906 136 CURVE",
"906 136 OFFCURVE",
"978 280 OFFCURVE",
"978 497 CURVE",
"978 497 OFFCURVE",
"983 717 OFFCURVE",
"799 714 CURVE SMOOTH",
"799 714 OFFCURVE",
"620 714 OFFCURVE",
"620 389 CURVE",
"620 389 OFFCURVE",
"625 539 OFFCURVE",
"507 540 CURVE SMOOTH",
"507 540 OFFCURVE",
"399 547 OFFCURVE",
"405 389 CURVE",
"405 389 OFFCURVE",
"413 714 OFFCURVE",
"198 714 CURVE SMOOTH",
"198 714 OFFCURVE",
"33 715 OFFCURVE",
"44 497 CURVE",
"44 497 OFFCURVE",
"44 308 OFFCURVE",
"117 143 CURVE",
"117 143 OFFCURVE",
"183 -10 OFFCURVE",
"318 -10 CURVE SMOOTH",
"494 -10 OFFCURVE",
"513 208 OFFCURVE",
"513 208 CURVE SMOOTH",
"513 208 OFFCURVE"
);
}
);
width = 1012;
}
);
unicode = 0057;
},
{
glyphname = X;
layers = (
{
layerId = master01;
paths = (
{
closed = 1;
nodes = (
"262 821 OFFCURVE",
"86 681 CURVE SMOOTH",
"-106 529 OFFCURVE",
"168 361 OFFCURVE",
"168 361 CURVE SMOOTH",
"168 361 OFFCURVE",
"-70 189 OFFCURVE",
"94 35 CURVE SMOOTH",
"268 -129 OFFCURVE",
"390 172 OFFCURVE",
"390 172 CURVE",
"406 130 OFFCURVE",
"548 -115 OFFCURVE",
"707 36 CURVE SMOOTH",
"866 188 OFFCURVE",
"638 353 OFFCURVE",
"638 353 CURVE SMOOTH",
"638 353 OFFCURVE",
"851 549 OFFCURVE",
"704 677 CURVE SMOOTH",
"523 835 OFFCURVE",
"402 539 OFFCURVE",
"402 539 CURVE SMOOTH",
"402 539 OFFCURVE"
);
}
);
width = 833;
}
);
unicode = 0058;
},
{
glyphname = Y;
layers = (
{
layerId = master01;
paths = (
{
closed = 1;
nodes = (
"363 742 OFFCURVE",
"185 731 CURVE",
"185 731 OFFCURVE",
"25 719 OFFCURVE",
"48 543 CURVE SMOOTH",
"68 393 OFFCURVE",
"249 320 OFFCURVE",
"249 320 CURVE SMOOTH",
"249 320 OFFCURVE",
"206 138 OFFCURVE",
"291 43 CURVE",
"291 43 OFFCURVE",
"330 -3 OFFCURVE",
"415 -3 CURVE SMOOTH",
"467 -3 OFFCURVE",
"504 13 OFFCURVE",
"535 56 CURVE",
"535 56 OFFCURVE",
"611 160 OFFCURVE",
"559 327 CURVE",
"559 327 OFFCURVE",
"707 395 OFFCURVE",
"741 541 CURVE",
"741 541 OFFCURVE",
"780 704 OFFCURVE",
"610 724 CURVE",
"610 724 OFFCURVE",
"471 751 OFFCURVE",
"415 547 CURVE",
"415 547 OFFCURVE"
);
}
);
width = 792;
}
);
unicode = 0059;
},
{
glyphname = Yacute;
lastChange = "2018-12-25 22:08:32 +0000";
layers = (
{
components = (
{
name = Y;
transform = "{1, 0, 0, 1, 33, 0}";
}
);
layerId = master01;
paths = (
{
closed = 1;
nodes = (
"344 852 OFFCURVE",
"310 814 OFFCURVE",
"330 774 CURVE SMOOTH",
"352 731 OFFCURVE",
"408 745 OFFCURVE",
"408 745 CURVE SMOOTH",
"408 745 OFFCURVE",
"515 760 OFFCURVE",
"571 809 CURVE SMOOTH",
"621 852 OFFCURVE",
"598 900 OFFCURVE",
"577 922 CURVE",
"557 941 OFFCURVE",
"534 960 OFFCURVE",
"474 940 CURVE SMOOTH",
"431 926 OFFCURVE",
"366 880 OFFCURVE",
"344 852 CURVE"
);
}
);
width = 833;
}
);
unicode = 00DD;
},
{
glyphname = Ydieresis;
lastChange = "2018-12-25 22:08:36 +0000";
layers = (
{
components = (
{
name = Y;
transform = "{1, 0, 0, 1, 33, 0}";
}
);
layerId = master01;
paths = (
{
closed = 1;
nodes = (
"422 875 OFFCURVE",
"395 910 OFFCURVE",
"345 910 CURVE SMOOTH",
"295 910 OFFCURVE",
"268 875 OFFCURVE",
"268 833 CURVE SMOOTH",
"268 790 OFFCURVE",
"295 755 OFFCURVE",
"345 755 CURVE SMOOTH",
"395 755 OFFCURVE",
"422 790 OFFCURVE",
"422 833 CURVE SMOOTH"
);
},
{
closed = 1;
nodes = (
"605 875 OFFCURVE",
"578 910 OFFCURVE",
"528 910 CURVE SMOOTH",
"478 910 OFFCURVE",
"451 875 OFFCURVE",
"451 833 CURVE SMOOTH",
"451 790 OFFCURVE",
"478 755 OFFCURVE",
"528 755 CURVE SMOOTH",
"578 755 OFFCURVE",
"605 790 OFFCURVE",
"605 833 CURVE SMOOTH"
);
}
);
width = 833;
}
);
unicode = 0178;
},
{
glyphname = Z;
layers = (
{
layerId = master01;
paths = (
{
closed = 1;
nodes = (
"17 248 OFFCURVE",
"70 92 CURVE SMOOTH",
"109 -24 OFFCURVE",
"244 -19 OFFCURVE",
"383 -19 CURVE SMOOTH",
"522 -19 OFFCURVE",
"695 -19 OFFCURVE",
"695 152 CURVE SMOOTH",
"695 324 OFFCURVE",
"452 289 OFFCURVE",
"452 289 CURVE",
"596 419 OFFCURVE",
"619 552 OFFCURVE",
"619 552 CURVE",
"633 649 OFFCURVE",
"566 697 OFFCURVE",
"348 701 CURVE SMOOTH",
"21 707 OFFCURVE",
"36 541 OFFCURVE",
"36 541 CURVE",
"36 376 OFFCURVE",
"244 392 OFFCURVE",
"244 392 CURVE SMOOTH",
"244 392 OFFCURVE"
);
}
);
width = 727;
}
);
unicode = 005A;
},
{
glyphname = Zcaron;
lastChange = "2018-12-25 22:08:51 +0000";
layers = (
{
components = (
{
name = Z;
transform = "{1, 0, 0, 1, 38, 0}";
}
);
layerId = master01;
paths = (
{
closed = 1;
nodes = (
"568 855 OFFCURVE",
"564 891 OFFCURVE",
"539 911 CURVE SMOOTH",
"494 947 OFFCURVE",
"459 902 OFFCURVE",
"459 902 CURVE SMOOTH",
"459 902 OFFCURVE",
"434 875 OFFCURVE",
"396 851 CURVE",
"365 868 OFFCURVE",
"342 899 OFFCURVE",
"341 899 CURVE",
"342 899 LINE",
"323 925 OFFCURVE",
"288 931 OFFCURVE",
"262 913 CURVE SMOOTH",
"236 895 OFFCURVE",
"230 859 OFFCURVE",
"248 834 CURVE",
"250 831 OFFCURVE",
"322 737 OFFCURVE",
"396 737 CURVE SMOOTH",
"473 737 OFFCURVE",
"546 828 OFFCURVE",
"548 831 CURVE"
);
}
);
width = 786;
}
);
unicode = 017D;
},
{
glyphname = a;
lastChange = "2018-12-25 22:21:21 +0000";
layers = (
{
layerId = master01;
paths = (
{
closed = 1;
nodes = (
"391 527 OFFCURVE",
"242 513 CURVE SMOOTH",
"9 492 OFFCURVE",
"30 225 OFFCURVE",
"30 225 CURVE",
"30 -4 OFFCURVE",
"222 -11 OFFCURVE",
"222 -11 CURVE",
"399 -32 OFFCURVE",
"426 76 OFFCURVE",
"426 76 CURVE",
"441 -25 OFFCURVE",
"540 -18 OFFCURVE",
"540 -18 CURVE SMOOTH",
"540 -18 OFFCURVE",
"698 -39 OFFCURVE",
"683 265 CURVE",
"683 265 OFFCURVE",
"682 520 OFFCURVE",
"533 520 CURVE SMOOTH",
"442 520 OFFCURVE",
"419 435 OFFCURVE",
"419 435 CURVE SMOOTH",
"419 435 OFFCURVE"
);
},
{
closed = 1;
nodes = (
"424 262 OFFCURVE",
"424 235 CURVE SMOOTH",
"424 207 OFFCURVE",
"403 189 OFFCURVE",
"375 189 CURVE SMOOTH",
"348 189 OFFCURVE",
"328 200 OFFCURVE",
"325 235 CURVE SMOOTH",
"323 262 OFFCURVE",
"346 288 OFFCURVE",
"375 288 CURVE SMOOTH",
"406 288 OFFCURVE"
);
}
);
width = 704;
},
{
associatedMasterId = master01;
layerId = "4004F724-A4A2-4D09-8B85-61321B42246C";
name = "Dec 26 18, 00:21";
paths = (
{
closed = 1;
nodes = (
"391 527 OFFCURVE",
"242 513 CURVE SMOOTH",
"9 492 OFFCURVE",
"30 225 OFFCURVE",
"30 225 CURVE",
"30 -4 OFFCURVE",
"222 -11 OFFCURVE",
"222 -11 CURVE",
"399 -32 OFFCURVE",
"426 76 OFFCURVE",
"426 76 CURVE",
"441 -25 OFFCURVE",
"540 -18 OFFCURVE",
"540 -18 CURVE SMOOTH",
"540 -18 OFFCURVE",
"698 -39 OFFCURVE",
"683 265 CURVE",
"683 265 OFFCURVE",
"682 520 OFFCURVE",
"533 520 CURVE SMOOTH",
"442 520 OFFCURVE",
"419 435 OFFCURVE",
"419 435 CURVE SMOOTH",
"419 435 OFFCURVE"
);
},
{
closed = 1;
nodes = (
"414 257 OFFCURVE",
"414 236 CURVE SMOOTH",
"414 213 OFFCURVE",
"397 199 OFFCURVE",
"375 199 CURVE SMOOTH",
"353 199 OFFCURVE",
"337 208 OFFCURVE",
"335 236 CURVE SMOOTH",
"333 257 OFFCURVE",
"352 278 OFFCURVE",
"375 278 CURVE SMOOTH",
"400 278 OFFCURVE"
);
}
);
width = 704;
}
);
unicode = 0061;
},
{
glyphname = aacute;
lastChange = "2018-12-25 22:09:00 +0000";
layers = (
{
components = (
{
name = a;
}
);
layerId = master01;
paths = (
{
closed = 1;
nodes = (
"251 667 OFFCURVE",
"217 629 OFFCURVE",
"237 589 CURVE SMOOTH",
"259 546 OFFCURVE",
"315 560 OFFCURVE",
"315 560 CURVE SMOOTH",
"315 560 OFFCURVE",
"422 575 OFFCURVE",
"478 624 CURVE SMOOTH",
"528 667 OFFCURVE",
"505 715 OFFCURVE",
"484 737 CURVE",
"464 756 OFFCURVE",
"441 775 OFFCURVE",
"381 755 CURVE SMOOTH",
"338 741 OFFCURVE",
"273 695 OFFCURVE",
"251 667 CURVE"
);
}
);
width = 704;
}
);
unicode = 00E1;
},
{
glyphname = acircumflex;
lastChange = "2018-12-25 22:09:06 +0000";
layers = (
{
components = (
{
name = a;
}
);
layerId = master01;
paths = (
{
closed = 1;
nodes = (
"182 631 OFFCURVE",
"186 595 OFFCURVE",
"211 575 CURVE SMOOTH",
"256 539 OFFCURVE",
"291 584 OFFCURVE",
"291 584 CURVE SMOOTH",
"291 584 OFFCURVE",
"316 611 OFFCURVE",
"354 635 CURVE",
"385 618 OFFCURVE",
"408 587 OFFCURVE",
"409 587 CURVE",
"408 587 LINE",
"427 561 OFFCURVE",
"462 555 OFFCURVE",
"488 573 CURVE SMOOTH",
"514 591 OFFCURVE",
"520 627 OFFCURVE",
"502 652 CURVE",
"500 655 OFFCURVE",
"428 749 OFFCURVE",
"354 749 CURVE SMOOTH",
"277 749 OFFCURVE",
"204 658 OFFCURVE",
"202 655 CURVE"
);
}
);
width = 704;
}
);
unicode = 00E2;
},
{
glyphname = adieresis;
lastChange = "2018-12-25 22:09:13 +0000";
layers = (
{
components = (
{
name = a;
}
);
layerId = master01;
paths = (
{
closed = 1;
nodes = (
"344 670 OFFCURVE",
"317 705 OFFCURVE",
"267 705 CURVE SMOOTH",
"217 705 OFFCURVE",
"190 670 OFFCURVE",
"190 628 CURVE SMOOTH",
"190 585 OFFCURVE",
"217 550 OFFCURVE",
"267 550 CURVE SMOOTH",
"317 550 OFFCURVE",
"344 585 OFFCURVE",
"344 628 CURVE SMOOTH"
);
},
{
closed = 1;
nodes = (
"527 670 OFFCURVE",
"500 705 OFFCURVE",
"450 705 CURVE SMOOTH",
"400 705 OFFCURVE",
"373 670 OFFCURVE",
"373 628 CURVE SMOOTH",
"373 585 OFFCURVE",
"400 550 OFFCURVE",
"450 550 CURVE SMOOTH",
"500 550 OFFCURVE",
"527 585 OFFCURVE",
"527 628 CURVE SMOOTH"
);
}
);
width = 704;
}
);
unicode = 00E4;
},
{
glyphname = agrave;
lastChange = "2018-12-25 22:09:19 +0000";
layers = (
{
components = (
{
name = a;
}
);
layerId = master01;
paths = (
{
closed = 1;
nodes = (
"275 776 OFFCURVE",
"252 757 OFFCURVE",
"232 738 CURVE",
"211 716 OFFCURVE",
"188 668 OFFCURVE",
"238 625 CURVE SMOOTH",
"294 576 OFFCURVE",
"401 561 OFFCURVE",
"401 561 CURVE SMOOTH",
"401 561 OFFCURVE",
"457 547 OFFCURVE",
"479 590 CURVE SMOOTH",
"499 630 OFFCURVE",
"465 668 OFFCURVE",
"465 668 CURVE",
"443 696 OFFCURVE",
"378 742 OFFCURVE",
"335 756 CURVE SMOOTH"
);
}
);
width = 704;
}
);
unicode = 00E0;
},
{
glyphname = aring;
lastChange = "2018-12-25 22:09:30 +0000";
layers = (
{
components = (
{
name = a;
}
);
layerId = master01;
paths = (
{
closed = 1;
nodes = (
"493 713 OFFCURVE",
"438 765 OFFCURVE",
"371 765 CURVE SMOOTH",
"303 765 OFFCURVE",
"248 713 OFFCURVE",
"248 650 CURVE SMOOTH",
"248 586 OFFCURVE",
"303 535 OFFCURVE",
"371 535 CURVE SMOOTH",
"438 535 OFFCURVE",
"493 586 OFFCURVE",
"493 650 CURVE SMOOTH"
);
},
{
closed = 1;
nodes = (
"405 702 OFFCURVE",
"422 677 OFFCURVE",
"422 648 CURVE SMOOTH",
"422 625 OFFCURVE",
"409 597 OFFCURVE",
"371 597 CURVE SMOOTH",
"327 597 OFFCURVE",
"318 625 OFFCURVE",
"318 648 CURVE SMOOTH",
"318 679 OFFCURVE",
"340 702 OFFCURVE",
"371 702 CURVE SMOOTH"
);
}
);
width = 704;
}
);
unicode = 00E5;
},
{
glyphname = atilde;
lastChange = "2018-12-25 22:09:34 +0000";
layers = (
{
components = (
{
name = a;
}
);
layerId = master01;
paths = (
{
closed = 1;
nodes = (
"598 719 OFFCURVE",
"504 746 OFFCURVE",
"504 746 CURVE",
"463 759 OFFCURVE",
"430 732 OFFCURVE",
"417 694 CURVE",
"416 695 OFFCURVE",
"416 697 OFFCURVE",
"415 698 CURVE",
"208 860 OFFCURVE",
"155 659 OFFCURVE",
"155 659 CURVE",
"142 624 OFFCURVE",
"164 580 OFFCURVE",
"199 568 CURVE",
"199 568 OFFCURVE",
"275 539 OFFCURVE",
"299 629 CURVE",
"299 629 OFFCURVE",
"462 482 OFFCURVE",
"544 625 CURVE SMOOTH"
);
}
);
width = 724;
}
);
unicode = 00E3;
},
{
glyphname = b;
layers = (
{
layerId = master01;
paths = (
{
closed = 1;
nodes = (
"41 604 OFFCURVE",
"41 604 CURVE SMOOTH",
"41 604 OFFCURVE",
"-23 256 OFFCURVE",
"96 100 CURVE SMOOTH",
"167 7 OFFCURVE",
"341 -50 OFFCURVE",
"494 20 CURVE",
"494 20 OFFCURVE",
"571 48 OFFCURVE",
"616 145 CURVE SMOOTH",
"654 226 OFFCURVE",
"646 358 OFFCURVE",
"589 423 CURVE SMOOTH",
"470 558 OFFCURVE",
"312 485 OFFCURVE",
"312 485 CURVE SMOOTH",
"312 485 OFFCURVE",
"372 749 OFFCURVE",
"201 765 CURVE SMOOTH",
"63 777 OFFCURVE"
);
},
{
closed = 1;
nodes = (
"376 268 OFFCURVE",
"376 247 CURVE SMOOTH",
"376 224 OFFCURVE",
"359 210 OFFCURVE",
"337 210 CURVE SMOOTH",
"315 210 OFFCURVE",
"299 219 OFFCURVE",
"297 247 CURVE SMOOTH",
"295 268 OFFCURVE",
"314 289 OFFCURVE",
"337 289 CURVE SMOOTH",
"362 289 OFFCURVE"
);
}
);
width = 680;
}
);
unicode = 0062;
},
{
glyphname = c;
layers = (
{
layerId = master01;
paths = (
{
closed = 1;
nodes = (
"528 343 OFFCURVE",
"528 343 CURVE",
"556 422 OFFCURVE",
"506 465 OFFCURVE",
"506 465 CURVE",
"390 573 OFFCURVE",
"218 515 OFFCURVE",
"218 515 CURVE",
"31 458 OFFCURVE",
"38 255 OFFCURVE",
"38 255 CURVE",
"38 71 OFFCURVE",
"166 14 OFFCURVE",
"166 14 CURVE",
"360 -73 OFFCURVE",
"492 26 OFFCURVE",
"492 26 CURVE",
"592 98 OFFCURVE",
"542 184 OFFCURVE",
"542 184 CURVE",
"484 278 OFFCURVE",
"385 233 OFFCURVE",
"385 233 CURVE",
"314 206 OFFCURVE",
"314 256 OFFCURVE",
"314 256 CURVE",
"314 307 OFFCURVE",
"384 285 OFFCURVE",
"384 285 CURVE",
"499 263 OFFCURVE"
);
}
);
width = 570;
}
);
unicode = 0063;
},
{
glyphname = ccedilla;
lastChange = "2018-12-25 22:10:54 +0000";
layers = (
{
components = (
{
name = c;
transform = "{1, 0, 0, 1, -12, 0}";
}
);
layerId = master01;
paths = (
{
closed = 1;
nodes = (
"216 23 LINE",
"216 -82 LINE SMOOTH",
"216 -114 OFFCURVE",
"233 -113 OFFCURVE",
"253 -114 CURVE",
"305 -114 OFFCURVE",
"333 -119 OFFCURVE",
"333 -144 CURVE SMOOTH",
"333 -172 OFFCURVE",
"268 -164 OFFCURVE",
"268 -164 CURVE",
"239 -161 OFFCURVE",
"225 -178 OFFCURVE",
"223 -200 CURVE SMOOTH",
"220 -228 OFFCURVE",
"242 -250 OFFCURVE",
"267 -250 CURVE",
"267 -250 OFFCURVE",
"350 -262 OFFCURVE",
"393 -226 CURVE SMOOTH",
"414 -209 OFFCURVE",
"429 -181 OFFCURVE",
"429 -143 CURVE SMOOTH",
"429 -102 OFFCURVE",
"417 -74 OFFCURVE",
"394 -58 CURVE SMOOTH",
"367 -39 OFFCURVE",
"333 -34 OFFCURVE",
"306 -34 CURVE",
"306 -26 OFFCURVE",
"306 2 OFFCURVE",
"306 10 CURVE"
);
}
);
width = 570;
}
);
unicode = 00E7;
},
{
glyphname = d;
layers = (
{
layerId = master01;
paths = (
{
closed = 1;
nodes = (
"741 181 OFFCURVE",
"663 218 CURVE",
"710 385 OFFCURVE",
"687 571 OFFCURVE",
"687 571 CURVE SMOOTH",
"687 571 OFFCURVE",
"674 755 OFFCURVE",
"523 755 CURVE SMOOTH",
"352 755 OFFCURVE",
"401 486 OFFCURVE",
"401 486 CURVE SMOOTH",
"401 486 OFFCURVE",
"236 546 OFFCURVE",
"113 430 CURVE SMOOTH",
"34 355 OFFCURVE",
"31 227 OFFCURVE",
"52 145 CURVE SMOOTH",
"75 55 OFFCURVE",
"160 12 OFFCURVE",
"160 12 CURVE",
"256 -38 OFFCURVE",
"415 -30 OFFCURVE",
"518 23 CURVE",
"518 24 OFFCURVE",
"621 -42 OFFCURVE",
"689 30 CURVE SMOOTH",
"737 81 OFFCURVE"
);
},
{
closed = 1;
nodes = (
"435 257 OFFCURVE",
"435 236 CURVE SMOOTH",
"435 213 OFFCURVE",
"418 199 OFFCURVE",
"396 199 CURVE SMOOTH",
"374 199 OFFCURVE",
"358 208 OFFCURVE",
"356 236 CURVE SMOOTH",
"354 257 OFFCURVE",
"373 278 OFFCURVE",
"396 278 CURVE SMOOTH",
"421 278 OFFCURVE"
);
}
);
width = 754;
}
);
unicode = 0064;
},
{
glyphname = eth;
lastChange = "2018-12-25 22:12:02 +0000";
layers = (
{
components = (
{
name = d;
transform = "{1, 0, 0, 1, -23, 17}";
}
);
layerId = master01;
paths = (
{
closed = 1;
nodes = (
"657 549 LINE",
"682 550 OFFCURVE",
"714 553 OFFCURVE",
"733 555 CURVE",
"813 567 OFFCURVE",
"804 629 OFFCURVE",
"804 629 CURVE SMOOTH",
"804 629 OFFCURVE",
"807 687 OFFCURVE",
"714 696 CURVE",
"714 696 OFFCURVE",
"670 699 OFFCURVE",
"617 702 CURVE"
);
},
{
closed = 1;
nodes = (
"402 703 LINE",
"376 701 OFFCURVE",
"339 699 OFFCURVE",
"313 696 CURVE SMOOTH",
"208 683 OFFCURVE",
"218 617 OFFCURVE",
"218 617 CURVE SMOOTH",
"218 617 OFFCURVE",
"217 556 OFFCURVE",
"310 550 CURVE",
"330 548 OFFCURVE",
"361 547 OFFCURVE",
"383 546 CURVE"
);
}
);
width = 821;
}
);
unicode = 00F0;
},
{
glyphname = e;
layers = (
{
layerId = master01;
paths = (
{
closed = 1;
nodes = (
"558 217 OFFCURVE",
"557 320 CURVE SMOOTH",
"556 412 OFFCURVE",
"501 460 OFFCURVE",
"501 460 CURVE",
"373 574 OFFCURVE",
"197 513 OFFCURVE",
"197 513 CURVE",
"31 453 OFFCURVE",
"31 261 OFFCURVE",
"31 261 CURVE",
"24 75 OFFCURVE",
"168 19 OFFCURVE",
"168 19 CURVE",
"330 -47 OFFCURVE",
"480 5 OFFCURVE",
"480 5 CURVE",
"562 38 OFFCURVE",
"551 108 OFFCURVE",
"551 108 CURVE",
"539 201 OFFCURVE",
"436 145 OFFCURVE",
"359 207 CURVE",
"452 189 OFFCURVE"
);
},
{
closed = 1;
nodes = (
"372 313 OFFCURVE",
"372 292 CURVE SMOOTH",
"372 269 OFFCURVE",
"355 255 OFFCURVE",
"333 255 CURVE SMOOTH",
"311 255 OFFCURVE",
"295 264 OFFCURVE",
"293 292 CURVE SMOOTH",
"291 313 OFFCURVE",
"310 334 OFFCURVE",
"333 334 CURVE SMOOTH",
"358 334 OFFCURVE"
);
}
);
width = 585;
}
);
unicode = 0065;
},
{
glyphname = eacute;
lastChange = "2018-12-25 22:12:13 +0000";
layers = (
{
components = (
{
name = e;
transform = "{1, 0, 0, 1, 5, 0}";
}
);
layerId = master01;
paths = (
{
closed = 1;
nodes = (
"178 667 OFFCURVE",
"144 629 OFFCURVE",
"164 589 CURVE SMOOTH",
"186 546 OFFCURVE",
"242 560 OFFCURVE",
"242 560 CURVE SMOOTH",
"242 560 OFFCURVE",
"349 575 OFFCURVE",
"405 624 CURVE SMOOTH",
"455 667 OFFCURVE",
"432 715 OFFCURVE",
"411 737 CURVE",
"391 756 OFFCURVE",
"368 775 OFFCURVE",
"308 755 CURVE SMOOTH",
"265 741 OFFCURVE",
"200 695 OFFCURVE",
"178 667 CURVE"
);
}
);
width = 584;
}
);
unicode = 00E9;
},
{
glyphname = ecircumflex;
lastChange = "2018-12-25 22:12:18 +0000";
layers = (
{
components = (
{
name = e;
transform = "{1, 0, 0, 1, 5, 0}";
}
);
layerId = master01;
paths = (
{
closed = 1;
nodes = (
"139 631 OFFCURVE",
"143 595 OFFCURVE",
"168 575 CURVE SMOOTH",
"213 539 OFFCURVE",
"248 584 OFFCURVE",
"248 584 CURVE SMOOTH",
"248 584 OFFCURVE",
"273 611 OFFCURVE",
"311 635 CURVE",
"342 618 OFFCURVE",
"365 587 OFFCURVE",
"366 587 CURVE",
"365 587 LINE",
"384 561 OFFCURVE",
"419 555 OFFCURVE",
"445 573 CURVE SMOOTH",
"471 591 OFFCURVE",
"477 627 OFFCURVE",
"459 652 CURVE",
"457 655 OFFCURVE",
"385 749 OFFCURVE",
"311 749 CURVE SMOOTH",
"234 749 OFFCURVE",
"161 658 OFFCURVE",
"159 655 CURVE"
);
}
);
width = 584;
}
);
unicode = 00EA;
},
{
glyphname = edieresis;
lastChange = "2018-12-25 22:12:22 +0000";
layers = (
{
components = (
{
name = e;
transform = "{1, 0, 0, 1, 5, 0}";
}
);
layerId = master01;
paths = (
{
closed = 1;
nodes = (
"290 670 OFFCURVE",
"263 705 OFFCURVE",
"213 705 CURVE SMOOTH",
"163 705 OFFCURVE",
"136 670 OFFCURVE",
"136 628 CURVE SMOOTH",
"136 585 OFFCURVE",
"163 550 OFFCURVE",
"213 550 CURVE SMOOTH",
"263 550 OFFCURVE",
"290 585 OFFCURVE",
"290 628 CURVE SMOOTH"
);
},
{
closed = 1;
nodes = (
"473 670 OFFCURVE",
"446 705 OFFCURVE",
"396 705 CURVE SMOOTH",
"346 705 OFFCURVE",
"319 670 OFFCURVE",
"319 628 CURVE SMOOTH",
"319 585 OFFCURVE",
"346 550 OFFCURVE",
"396 550 CURVE SMOOTH",
"446 550 OFFCURVE",
"473 585 OFFCURVE",
"473 628 CURVE SMOOTH"
);
}
);
width = 584;
}
);
unicode = 00EB;
},
{
glyphname = egrave;
lastChange = "2018-12-25 22:12:27 +0000";
layers = (
{
components = (
{
name = e;
transform = "{1, 0, 0, 1, 5, 0}";
}
);
layerId = master01;
paths = (
{
closed = 1;
nodes = (
"219 776 OFFCURVE",
"196 757 OFFCURVE",
"176 738 CURVE",
"155 716 OFFCURVE",
"132 668 OFFCURVE",
"182 625 CURVE SMOOTH",
"238 576 OFFCURVE",
"345 561 OFFCURVE",
"345 561 CURVE SMOOTH",
"345 561 OFFCURVE",
"401 547 OFFCURVE",
"423 590 CURVE SMOOTH",
"443 630 OFFCURVE",
"409 668 OFFCURVE",
"409 668 CURVE",
"387 696 OFFCURVE",
"322 742 OFFCURVE",
"279 756 CURVE SMOOTH"
);
}
);
width = 584;
}
);
unicode = 00E8;
},
{
glyphname = f;
layers = (
{
layerId = master01;
paths = (
{
closed = 1;
nodes = (
"460 566 OFFCURVE",
"460 566 CURVE",
"473 602 OFFCURVE",
"520 601 OFFCURVE",
"520 601 CURVE",
"586 599 OFFCURVE",
"588 663 OFFCURVE",
"588 663 CURVE",
"597 733 OFFCURVE",
"514 755 OFFCURVE",
"514 755 CURVE",
"311 810 OFFCURVE",
"228 695 OFFCURVE",
"228 695 CURVE",
"162 610 OFFCURVE",
"174 515 OFFCURVE",
"174 515 CURVE",
"123 527 OFFCURVE",
"30 516 OFFCURVE",
"33 436 CURVE SMOOTH",
"39 321 OFFCURVE",
"174 363 OFFCURVE",
"174 363 CURVE",
"170 127 OFFCURVE",
"169 -24 OFFCURVE",
"341 -16 CURVE SMOOTH",
"538 -8 OFFCURVE",
"477 363 OFFCURVE",
"477 363 CURVE SMOOTH",
"477 363 OFFCURVE",
"607 341 OFFCURVE",
"602 448 CURVE SMOOTH",
"597 558 OFFCURVE",
"455 513 OFFCURVE",
"455 513 CURVE",
"453 550 OFFCURVE"
);
}
);
width = 641;
}
);
unicode = 0066;
},
{
glyphname = g;
layers = (
{
layerId = master01;
paths = (
{
closed = 1;
nodes = (
"589 -369 OFFCURVE",
"653 -6 CURVE",
"653 -6 OFFCURVE",
"714 287 OFFCURVE",
"564 429 CURVE SMOOTH",
"476 512 OFFCURVE",
"299 549 OFFCURVE",
"167 471 CURVE",
"167 471 OFFCURVE",
"96 429 OFFCURVE",
"60 329 CURVE SMOOTH",
"31 246 OFFCURVE",
"50 129 OFFCURVE",
"109 67 CURVE SMOOTH",
"205 -35 OFFCURVE",
"376 8 OFFCURVE",
"376 8 CURVE SMOOTH",
"376 8 OFFCURVE",
"383 -63 OFFCURVE",
"265 -68 CURVE",
"265 -68 OFFCURVE",
"174 -54 OFFCURVE",
"145 -118 CURVE",
"145 -118 OFFCURVE",
"91 -219 OFFCURVE",
"223 -266 CURVE",
"223 -266 OFFCURVE"
);
},
{
closed = 1;
nodes = (
"402 238 OFFCURVE",
"402 217 CURVE SMOOTH",
"402 194 OFFCURVE",
"385 180 OFFCURVE",
"363 180 CURVE SMOOTH",
"341 180 OFFCURVE",
"325 189 OFFCURVE",
"323 217 CURVE SMOOTH",
"321 238 OFFCURVE",
"340 259 OFFCURVE",
"363 259 CURVE SMOOTH",
"388 259 OFFCURVE"
);
}
);
width = 680;
}
);
unicode = 0067;
},
{
glyphname = h;
layers = (
{
layerId = master01;
paths = (
{
closed = 1;
nodes = (
"363 471 OFFCURVE",
"363 471 CURVE",
"371 644 OFFCURVE",
"323 753 OFFCURVE",
"201 755 CURVE SMOOTH",
"56 757 OFFCURVE",
"49 597 OFFCURVE",
"49 597 CURVE",
"18 330 OFFCURVE",
"49 131 OFFCURVE",
"49 131 CURVE SMOOTH",
"49 131 OFFCURVE",
"63 -8 OFFCURVE",
"201 -8 CURVE SMOOTH",
"339 -8 OFFCURVE",
"350 126 OFFCURVE",
"350 126 CURVE SMOOTH",
"350 126 OFFCURVE",
"357 177 OFFCURVE",
"349 274 CURVE",
"375 274 OFFCURVE",
"384 133 OFFCURVE",
"384 133 CURVE",
"391 -28 OFFCURVE",
"556 -5 OFFCURVE",
"555 -5 CURVE",
"714 23 OFFCURVE",
"696 230 OFFCURVE",
"696 230 CURVE",
"667 641 OFFCURVE"
);
}
);
width = 731;
}
);
unicode = 0068;
},
{
glyphname = i;
lastChange = "2018-12-25 22:12:39 +0000";
layers = (
{
components = (
{
name = dotlessi;
transform = "{1, 0, 0, 1, 0, -4}";
}
);
layerId = master01;
paths = (
{
closed = 1;
nodes = (
"298 723 OFFCURVE",
"238 766 OFFCURVE",
"172 759 CURVE SMOOTH",
"105 752 OFFCURVE",
"56 697 OFFCURVE",
"62 638 CURVE SMOOTH",
"69 578 OFFCURVE",
"127 535 OFFCURVE",
"195 542 CURVE SMOOTH",
"261 549 OFFCURVE",
"310 604 OFFCURVE",
"304 663 CURVE SMOOTH"
);
}
);
width = 389;
}
);
unicode = 0069;
},
{
glyphname = dotlessi;
layers = (
{
layerId = master01;
paths = (
{
closed = 1;
nodes = (
"348 403 OFFCURVE",
"348 403 CURVE SMOOTH",
"348 403 OFFCURVE",
"323 529 OFFCURVE",
"199 522 CURVE",
"199 522 OFFCURVE",
"92 527 OFFCURVE",
"58 404 CURVE",
"58 404 OFFCURVE",
"9 223 OFFCURVE",
"62 77 CURVE",
"62 77 OFFCURVE",
"92 -15 OFFCURVE",
"206 -11 CURVE",
"206 -11 OFFCURVE",
"327 -14 OFFCURVE",
"347 106 CURVE SMOOTH",
"379 296 OFFCURVE"
);
}
);
width = 389;
}
);
unicode = 0131;
},
{
glyphname = iacute;
lastChange = "2018-12-25 22:12:49 +0000";
layers = (
{
components = (
{
name = dotlessi;
}
);
layerId = master01;
paths = (
{
closed = 1;
nodes = (
"87 667 OFFCURVE",
"53 629 OFFCURVE",
"73 589 CURVE SMOOTH",
"95 546 OFFCURVE",
"151 560 OFFCURVE",
"151 560 CURVE SMOOTH",
"151 560 OFFCURVE",
"258 575 OFFCURVE",
"314 624 CURVE SMOOTH",
"364 667 OFFCURVE",
"341 715 OFFCURVE",
"320 737 CURVE",
"300 756 OFFCURVE",
"277 775 OFFCURVE",
"217 755 CURVE SMOOTH",
"174 741 OFFCURVE",
"109 695 OFFCURVE",
"87 667 CURVE"
);
}
);
width = 389;
}
);
unicode = 00ED;
},
{
glyphname = icircumflex;
lastChange = "2018-12-25 22:12:53 +0000";
layers = (
{
components = (
{
name = dotlessi;
}
);
layerId = master01;
paths = (
{
closed = 1;
nodes = (
"21 629 OFFCURVE",
"25 593 OFFCURVE",
"50 573 CURVE SMOOTH",
"95 537 OFFCURVE",
"130 582 OFFCURVE",
"130 582 CURVE SMOOTH",
"130 582 OFFCURVE",
"155 609 OFFCURVE",
"193 633 CURVE",
"224 616 OFFCURVE",
"247 585 OFFCURVE",
"248 585 CURVE",
"247 585 LINE",
"266 559 OFFCURVE",
"301 553 OFFCURVE",
"327 571 CURVE SMOOTH",
"353 589 OFFCURVE",
"359 625 OFFCURVE",
"341 650 CURVE",
"339 653 OFFCURVE",
"267 747 OFFCURVE",
"193 747 CURVE SMOOTH",
"116 747 OFFCURVE",
"43 656 OFFCURVE",
"41 653 CURVE"
);
}
);
width = 389;
}
);
unicode = 00EE;
},
{
glyphname = idieresis;
lastChange = "2018-12-25 22:13:00 +0000";
layers = (
{
components = (
{
name = dotlessi;
transform = "{1, 0, 0, 1, 6, 0}";
}
);
layerId = master01;
paths = (
{
closed = 1;
nodes = (
"199 670 OFFCURVE",
"172 705 OFFCURVE",
"122 705 CURVE SMOOTH",
"72 705 OFFCURVE",
"45 670 OFFCURVE",
"45 628 CURVE SMOOTH",
"45 585 OFFCURVE",
"72 550 OFFCURVE",
"122 550 CURVE SMOOTH",
"172 550 OFFCURVE",
"199 585 OFFCURVE",
"199 628 CURVE SMOOTH"
);
},
{
closed = 1;
nodes = (
"382 670 OFFCURVE",
"355 705 OFFCURVE",
"305 705 CURVE SMOOTH",
"255 705 OFFCURVE",
"228 670 OFFCURVE",
"228 628 CURVE SMOOTH",
"228 585 OFFCURVE",
"255 550 OFFCURVE",
"305 550 CURVE SMOOTH",
"355 550 OFFCURVE",
"382 585 OFFCURVE",
"382 628 CURVE SMOOTH"
);
}
);
width = 436;
}
);
unicode = 00EF;
},
{
glyphname = igrave;
lastChange = "2018-12-25 22:13:05 +0000";
layers = (
{
components = (
{
name = dotlessi;
}
);
layerId = master01;
paths = (
{
closed = 1;
nodes = (
"124 776 OFFCURVE",
"101 757 OFFCURVE",
"81 738 CURVE",
"60 716 OFFCURVE",
"37 668 OFFCURVE",
"87 625 CURVE SMOOTH",
"143 576 OFFCURVE",
"250 561 OFFCURVE",
"250 561 CURVE SMOOTH",
"250 561 OFFCURVE",
"306 547 OFFCURVE",
"328 590 CURVE SMOOTH",
"348 630 OFFCURVE",
"314 668 OFFCURVE",
"314 668 CURVE",
"292 696 OFFCURVE",
"227 742 OFFCURVE",
"184 756 CURVE SMOOTH"
);
}
);
width = 389;
}
);
unicode = 00EC;
},
{
glyphname = j;
layers = (
{
layerId = master01;
paths = (
{
closed = 1;
nodes = (
"385 762 OFFCURVE",
"313 765 CURVE SMOOTH",
"242 769 OFFCURVE",
"182 721 OFFCURVE",
"178 659 CURVE SMOOTH",
"175 596 OFFCURVE",
"231 543 OFFCURVE",
"302 539 CURVE SMOOTH",
"373 536 OFFCURVE",
"434 584 OFFCURVE",
"437 646 CURVE SMOOTH",
"440 708 OFFCURVE"
);
},
{
closed = 1;
nodes = (
"462 388 OFFCURVE",
"462 388 CURVE SMOOTH",
"462 388 OFFCURVE",
"458 509 OFFCURVE",
"305 509 CURVE SMOOTH",
"305 509 OFFCURVE",
"170 515 OFFCURVE",
"164 390 CURVE SMOOTH",
"153 167 OFFCURVE",
"160 88 OFFCURVE",
"155 28 CURVE",
"155 28 OFFCURVE",
"160 -101 OFFCURVE",
"103 -109 CURVE",
"103 -109 OFFCURVE",
"34 -119 OFFCURVE",
"42 -198 CURVE",
"42 -198 OFFCURVE",
"42 -271 OFFCURVE",
"137 -285 CURVE",
"137 -285 OFFCURVE",
"289 -311 OFFCURVE",
"375 -227 CURVE SMOOTH",
"441 -163 OFFCURVE",
"456 -69 OFFCURVE",
"456 -69 CURVE",
"497 180 OFFCURVE"
);
}
);
width = 514;
}
);
unicode = 006A;
},
{
glyphname = k;
layers = (
{
layerId = master01;
paths = (
{
closed = 1;
nodes = (
"369 756 OFFCURVE",
"200 749 CURVE SMOOTH",
"97 745 OFFCURVE",
"77 662 OFFCURVE",
"63 608 CURVE",
"63 608 OFFCURVE",
"9 339 OFFCURVE",
"65 117 CURVE",
"65 117 OFFCURVE",
"97 -7 OFFCURVE",
"198 -14 CURVE SMOOTH",
"382 -26 OFFCURVE",
"359 216 OFFCURVE",
"359 216 CURVE SMOOTH",
"359 216 OFFCURVE",
"469 -108 OFFCURVE",
"654 18 CURVE SMOOTH",
"767 95 OFFCURVE",
"666 277 OFFCURVE",
"556 347 CURVE",
"556 347 OFFCURVE",
"698 486 OFFCURVE",
"600 589 CURVE",
"600 589 OFFCURVE",
"485 712 OFFCURVE",
"361 543 CURVE",
"361 543 OFFCURVE"
);
}
);
width = 738;
}
);
unicode = 006B;
},
{
glyphname = l;
layers = (
{
layerId = master01;
paths = (
{
closed = 1;
nodes = (
"52 -10 OFFCURVE",
"192 -14 CURVE SMOOTH",
"342 -18 OFFCURVE",
"351 137 OFFCURVE",
"351 137 CURVE SMOOTH",
"351 137 OFFCURVE",
"373 334 OFFCURVE",
"356 545 CURVE SMOOTH",
"338 766 OFFCURVE",
"201 758 OFFCURVE",
"201 758 CURVE SMOOTH",
"56 758 OFFCURVE",
"44 560 OFFCURVE",
"44 560 CURVE SMOOTH",
"44 560 OFFCURVE",
"21 353 OFFCURVE",
"39 202 CURVE",
"39 202 OFFCURVE"
);
}
);
width = 394;
}
);
unicode = 006C;
},
{
glyphname = m;
layers = (
{
layerId = master01;
paths = (
{
closed = 1;
nodes = (
"505 377 OFFCURVE",
"493 332 CURVE",
"482 377 OFFCURVE",
"390 584 OFFCURVE",
"165 500 CURVE SMOOTH",
"2 439 OFFCURVE",
"43 112 OFFCURVE",
"43 112 CURVE SMOOTH",
"43 112 OFFCURVE",
"57 -14 OFFCURVE",
"179 -14 CURVE SMOOTH",
"317 -14 OFFCURVE",
"323 189 OFFCURVE",
"322 205 CURVE",
"323 188 OFFCURVE",
"340 -17 OFFCURVE",
"493 -17 CURVE",
"493 -17 LINE",
"646 -17 OFFCURVE",
"659 184 OFFCURVE",
"660 201 CURVE",
"659 185 OFFCURVE",
"662 -14 OFFCURVE",
"813 -14 CURVE SMOOTH",
"921 -14 OFFCURVE",
"945 105 OFFCURVE",
"945 105 CURVE SMOOTH",
"945 105 OFFCURVE",
"1009 437 OFFCURVE",
"813 500 CURVE SMOOTH",
"591 571 OFFCURVE"
);
}
);
width = 994;
}
);
unicode = 006D;
},
{
glyphname = n;
layers = (
{
layerId = master01;
paths = (
{
closed = 1;
nodes = (
"349 446 OFFCURVE",
"349 446 CURVE",
"331 477 OFFCURVE",
"303 526 OFFCURVE",
"186 519 CURVE SMOOTH",
"52 511 OFFCURVE",
"40 361 OFFCURVE",
"40 361 CURVE",
"28 220 OFFCURVE",
"52 131 OFFCURVE",
"52 131 CURVE SMOOTH",
"52 131 OFFCURVE",
"73 -10 OFFCURVE",
"204 -8 CURVE SMOOTH",
"342 -6 OFFCURVE",
"353 126 OFFCURVE",
"353 126 CURVE SMOOTH",
"353 126 OFFCURVE",
"360 177 OFFCURVE",
"352 274 CURVE",
"378 274 OFFCURVE",
"387 133 OFFCURVE",
"387 133 CURVE",
"394 -28 OFFCURVE",
"559 -5 OFFCURVE",
"558 -5 CURVE",
"717 23 OFFCURVE",
"699 230 OFFCURVE",
"699 230 CURVE",
"670 641 OFFCURVE"
);
}
);
width = 716;
}
);
unicode = 006E;
},
{
glyphname = ntilde;
lastChange = "2018-12-25 22:13:12 +0000";
layers = (
{
components = (
{
name = n;
}
);
layerId = master01;
paths = (
{
closed = 1;
nodes = (
"602 719 OFFCURVE",
"508 746 OFFCURVE",
"508 746 CURVE",
"467 759 OFFCURVE",
"434 732 OFFCURVE",
"421 694 CURVE",
"420 695 OFFCURVE",
"420 697 OFFCURVE",
"419 698 CURVE",
"212 860 OFFCURVE",
"159 659 OFFCURVE",
"159 659 CURVE",
"146 624 OFFCURVE",
"168 580 OFFCURVE",
"203 568 CURVE",
"203 568 OFFCURVE",
"279 539 OFFCURVE",
"303 629 CURVE",
"303 629 OFFCURVE",
"466 482 OFFCURVE",
"548 625 CURVE SMOOTH"
);
}
);
width = 716;
}
);
unicode = 00F1;
},
{
glyphname = o;
layers = (
{
layerId = master01;
paths = (
{
closed = 1;
nodes = (
"571 201 OFFCURVE",
"571 263 CURVE",
"571 263 OFFCURVE",
"571 516 OFFCURVE",
"313 516 CURVE SMOOTH",
"313 516 OFFCURVE",
"21 544 OFFCURVE",
"21 235 CURVE",
"21 235 OFFCURVE",
"21 -19 OFFCURVE",
"313 -19 CURVE",
"313 -19 OFFCURVE",
"360 -19 OFFCURVE",
"414 3 CURVE",
"414 3 OFFCURVE",
"498 38 OFFCURVE",
"540 116 CURVE SMOOTH",
"559 153 OFFCURVE"
);
},
{
closed = 1;
nodes = (
"346 253 OFFCURVE",
"346 232 CURVE SMOOTH",
"346 209 OFFCURVE",
"329 195 OFFCURVE",
"307 195 CURVE SMOOTH",
"285 195 OFFCURVE",
"269 204 OFFCURVE",
"267 232 CURVE SMOOTH",
"265 253 OFFCURVE",
"284 274 OFFCURVE",
"307 274 CURVE SMOOTH",
"332 274 OFFCURVE"
);
}
);
width = 586;
}
);
unicode = 006F;
},
{
glyphname = oacute;
lastChange = "2018-12-25 22:13:20 +0000";
layers = (
{
components = (
{
name = o;
transform = "{1, 0, 0, 1, 10, 0}";
}
);
layerId = master01;
paths = (
{
closed = 1;
nodes = (
"181 667 OFFCURVE",
"147 629 OFFCURVE",
"167 589 CURVE SMOOTH",
"189 546 OFFCURVE",
"245 560 OFFCURVE",
"245 560 CURVE SMOOTH",
"245 560 OFFCURVE",
"352 575 OFFCURVE",
"408 624 CURVE SMOOTH",
"458 667 OFFCURVE",
"435 715 OFFCURVE",
"414 737 CURVE",
"394 756 OFFCURVE",
"371 775 OFFCURVE",
"311 755 CURVE SMOOTH",
"268 741 OFFCURVE",
"203 695 OFFCURVE",
"181 667 CURVE"
);
}
);
width = 597;
}
);
unicode = 00F3;
},
{
glyphname = ocircumflex;
lastChange = "2018-12-25 22:13:24 +0000";
layers = (
{
components = (
{
name = o;
transform = "{1, 0, 0, 1, 10, 0}";
}
);
layerId = master01;
paths = (
{
closed = 1;
nodes = (
"136 639 OFFCURVE",
"140 603 OFFCURVE",
"165 583 CURVE SMOOTH",
"210 547 OFFCURVE",
"245 592 OFFCURVE",
"245 592 CURVE SMOOTH",
"245 592 OFFCURVE",
"270 619 OFFCURVE",
"308 643 CURVE",
"339 626 OFFCURVE",
"362 595 OFFCURVE",
"363 595 CURVE",
"362 595 LINE",
"381 569 OFFCURVE",
"416 563 OFFCURVE",
"442 581 CURVE SMOOTH",
"468 599 OFFCURVE",
"474 635 OFFCURVE",
"456 660 CURVE",
"454 663 OFFCURVE",
"382 757 OFFCURVE",
"308 757 CURVE SMOOTH",
"231 757 OFFCURVE",
"158 666 OFFCURVE",
"156 663 CURVE"
);
}
);
width = 597;
}
);
unicode = 00F4;
},
{
glyphname = odieresis;
lastChange = "2018-12-25 22:13:31 +0000";
layers = (
{
components = (
{
name = o;
transform = "{1, 0, 0, 1, 10, 0}";
}
);
layerId = master01;
paths = (
{
closed = 1;
nodes = (
"285 677 OFFCURVE",
"258 712 OFFCURVE",
"208 712 CURVE SMOOTH",
"158 712 OFFCURVE",
"131 677 OFFCURVE",
"131 635 CURVE SMOOTH",
"131 592 OFFCURVE",
"158 557 OFFCURVE",
"208 557 CURVE SMOOTH",
"258 557 OFFCURVE",
"285 592 OFFCURVE",
"285 635 CURVE SMOOTH"
);
},
{
closed = 1;
nodes = (
"468 677 OFFCURVE",
"441 712 OFFCURVE",
"391 712 CURVE SMOOTH",
"341 712 OFFCURVE",
"314 677 OFFCURVE",
"314 635 CURVE SMOOTH",
"314 592 OFFCURVE",
"341 557 OFFCURVE",
"391 557 CURVE SMOOTH",
"441 557 OFFCURVE",
"468 592 OFFCURVE",
"468 635 CURVE SMOOTH"
);
}
);
width = 597;
}
);
unicode = 00F6;
},
{
glyphname = ograve;
lastChange = "2018-12-25 22:13:35 +0000";
layers = (
{
components = (
{
name = o;
transform = "{1, 0, 0, 1, 10, 0}";
}
);
layerId = master01;
paths = (
{
closed = 1;
nodes = (
"221 776 OFFCURVE",
"198 757 OFFCURVE",
"178 738 CURVE",
"157 716 OFFCURVE",
"134 668 OFFCURVE",
"184 625 CURVE SMOOTH",
"240 576 OFFCURVE",
"347 561 OFFCURVE",
"347 561 CURVE SMOOTH",
"347 561 OFFCURVE",
"403 547 OFFCURVE",
"425 590 CURVE SMOOTH",
"445 630 OFFCURVE",
"411 668 OFFCURVE",
"411 668 CURVE",
"389 696 OFFCURVE",
"324 742 OFFCURVE",
"281 756 CURVE SMOOTH"
);
}
);
width = 597;
}
);
unicode = 00F2;
},
{
glyphname = oslash;
lastChange = "2018-12-25 22:14:08 +0000";
layers = (
{
components = (
{
name = o;
transform = "{1, 0, 0, 1, -2, 0}";
}
);
layerId = master01;
paths = (
{
closed = 1;
nodes = (
"488 443 LINE",
"495 462 OFFCURVE",
"501 494 OFFCURVE",
"507 512 CURVE SMOOTH",
"537 606 OFFCURVE",
"473 619 OFFCURVE",
"473 619 CURVE SMOOTH",
"473 619 OFFCURVE",
"403 656 OFFCURVE",
"353 575 CURVE SMOOTH",
"344 561 OFFCURVE",
"322 523 OFFCURVE",
"309 500 CURVE"
);
},
{
closed = 1;
nodes = (
"119 39 LINE",
"111 15 OFFCURVE",
"106 -7 OFFCURVE",
"102 -24 CURVE",
"86 -106 OFFCURVE",
"148 -123 OFFCURVE",
"148 -123 CURVE SMOOTH",
"148 -123 OFFCURVE",
"207 -148 OFFCURVE",
"247 -81 CURVE",
"247 -81 OFFCURVE",
"260 -56 OFFCURVE",
"281 -16 CURVE"
);
}
);
width = 586;
}
);
unicode = 00F8;
},
{
glyphname = otilde;
lastChange = "2018-12-25 22:14:18 +0000";
layers = (
{
components = (
{
name = o;
transform = "{1, 0, 0, 1, 10, 0}";
}
);
layerId = master01;
paths = (
{
closed = 1;
nodes = (
"554 719 OFFCURVE",
"460 746 OFFCURVE",
"460 746 CURVE",
"419 759 OFFCURVE",
"386 732 OFFCURVE",
"373 694 CURVE",
"372 695 OFFCURVE",
"372 697 OFFCURVE",
"371 698 CURVE",
"164 860 OFFCURVE",
"111 659 OFFCURVE",
"111 659 CURVE",
"98 624 OFFCURVE",
"120 580 OFFCURVE",
"155 568 CURVE",
"155 568 OFFCURVE",
"231 539 OFFCURVE",
"255 629 CURVE",
"255 629 OFFCURVE",
"418 482 OFFCURVE",
"500 625 CURVE SMOOTH"
);
}
);
width = 597;
}
);
unicode = 00F5;
},
{
glyphname = p;
layers = (
{
layerId = master01;
paths = (
{
closed = 1;
nodes = (
"54 -251 OFFCURVE",
"197 -251 CURVE SMOOTH",
"379 -251 OFFCURVE",
"320 18 OFFCURVE",
"320 18 CURVE SMOOTH",
"320 18 OFFCURVE",
"468 -57 OFFCURVE",
"598 50 CURVE SMOOTH",
"668 108 OFFCURVE",
"687 252 OFFCURVE",
"665 338 CURVE SMOOTH",
"640 434 OFFCURVE",
"557 482 OFFCURVE",
"557 482 CURVE",
"428 554 OFFCURVE",
"226 540 OFFCURVE",
"132 432 CURVE SMOOTH",
"-12 266 OFFCURVE",
"35 -76 OFFCURVE",
"35 -76 CURVE SMOOTH",
"35 -76 OFFCURVE"
);
},
{
closed = 1;
nodes = (
"406 253 OFFCURVE",
"406 232 CURVE SMOOTH",
"406 209 OFFCURVE",
"389 195 OFFCURVE",
"367 195 CURVE SMOOTH",
"345 195 OFFCURVE",
"329 204 OFFCURVE",
"327 232 CURVE SMOOTH",
"325 253 OFFCURVE",
"344 274 OFFCURVE",
"367 274 CURVE SMOOTH",
"392 274 OFFCURVE"
);
}
);
width = 686;
}
);
unicode = 0070;
},
{
glyphname = thorn;
layers = (
{
layerId = master01;
paths = (
{
closed = 1;
nodes = (
"334 498 OFFCURVE",
"334 498 CURVE SMOOTH",
"334 498 OFFCURVE",
"394 768 OFFCURVE",
"223 778 CURVE SMOOTH",
"82 785 OFFCURVE",
"63 617 OFFCURVE",
"63 617 CURVE SMOOTH",
"63 617 OFFCURVE",
"24 433 OFFCURVE",
"24 253 CURVE SMOOTH",
"17 44 OFFCURVE",
"63 -104 OFFCURVE",
"63 -104 CURVE SMOOTH",
"63 -104 OFFCURVE",
"96 -273 OFFCURVE",
"223 -265 CURVE SMOOTH",
"372 -256 OFFCURVE",
"345 -48 OFFCURVE",
"336 3 CURVE",
"394 -3 OFFCURVE",
"454 -12 OFFCURVE",
"514 15 CURVE",
"514 15 OFFCURVE",
"591 43 OFFCURVE",
"636 140 CURVE SMOOTH",
"674 221 OFFCURVE",
"669 351 OFFCURVE",
"615 426 CURVE SMOOTH",
"518 559 OFFCURVE"
);
},
{
closed = 1;
nodes = (
"426 253 OFFCURVE",
"426 232 CURVE SMOOTH",
"426 209 OFFCURVE",
"409 195 OFFCURVE",
"387 195 CURVE SMOOTH",
"365 195 OFFCURVE",
"349 204 OFFCURVE",
"347 232 CURVE SMOOTH",
"345 253 OFFCURVE",
"364 274 OFFCURVE",
"387 274 CURVE SMOOTH",
"412 274 OFFCURVE"
);
}
);
width = 681;
}
);
unicode = 00FE;
},
{
glyphname = q;
layers = (
{
layerId = master01;
paths = (
{
closed = 1;
nodes = (
"703 -89 OFFCURVE",
"703 -89 CURVE SMOOTH",
"703 -89 OFFCURVE",
"753 260 OFFCURVE",
"638 422 CURVE SMOOTH",
"559 534 OFFCURVE",
"331 573 OFFCURVE",
"182 495 CURVE",
"182 495 OFFCURVE",
"90 445 OFFCURVE",
"58 345 CURVE SMOOTH",
"29 253 OFFCURVE",
"43 115 OFFCURVE",
"123 50 CURVE SMOOTH",
"253 -57 OFFCURVE",
"403 25 OFFCURVE",
"403 25 CURVE SMOOTH",
"403 25 OFFCURVE",
"369 -244 OFFCURVE",
"541 -244 CURVE SMOOTH",
"685 -244 OFFCURVE"
);
},
{
closed = 1;
nodes = (
"416 253 OFFCURVE",
"416 232 CURVE SMOOTH",
"416 209 OFFCURVE",
"399 195 OFFCURVE",
"377 195 CURVE SMOOTH",
"355 195 OFFCURVE",
"339 204 OFFCURVE",
"337 232 CURVE SMOOTH",
"335 253 OFFCURVE",
"354 274 OFFCURVE",
"377 274 CURVE SMOOTH",
"402 274 OFFCURVE"
);
}
);
width = 722;
}
);
unicode = 0071;
},
{
glyphname = r;
layers = (
{
layerId = master01;
paths = (
{
closed = 1;
nodes = (
"297 542 OFFCURVE",
"185 538 CURVE",
"185 538 OFFCURVE",
"61 545 OFFCURVE",
"33 418 CURVE",
"33 418 OFFCURVE",
"3 233 OFFCURVE",
"51 90 CURVE",
"51 90 OFFCURVE",
"82 -10 OFFCURVE",
"195 -7 CURVE",
"195 -7 OFFCURVE",
"398 -29 OFFCURVE",
"354 293 CURVE",
"354 293 OFFCURVE",
"443 225 OFFCURVE",
"527 274 CURVE",
"527 274 OFFCURVE",
"590 309 OFFCURVE",
"587 395 CURVE SMOOTH",
"586 430 OFFCURVE",
"572 497 OFFCURVE",
"491 518 CURVE",
"491 518 OFFCURVE",
"386 546 OFFCURVE",
"317 448 CURVE",
"317 448 OFFCURVE"
);
}
);
width = 609;
}
);
unicode = 0072;
},
{
glyphname = s;
layers = (
{
layerId = master01;
paths = (
{
closed = 1;
nodes = (
"538 291 OFFCURVE",
"544 411 CURVE SMOOTH",
"547 476 OFFCURVE",
"511 528 OFFCURVE",
"324 532 CURVE SMOOTH",
"324 532 OFFCURVE",
"76 538 OFFCURVE",
"68 368 CURVE",
"68 368 OFFCURVE",
"60 264 OFFCURVE",
"239 222 CURVE",
"239 222 OFFCURVE",
"44 223 OFFCURVE",
"49 90 CURVE",
"49 90 OFFCURVE",
"34 -43 OFFCURVE",
"330 -31 CURVE",
"330 -31 OFFCURVE",
"548 -25 OFFCURVE",
"548 150 CURVE",
"548 150 OFFCURVE",
"563 289 OFFCURVE",
"330 318 CURVE",
"330 318 OFFCURVE"
);
}
);
width = 561;
}
);
unicode = 0073;
},
{
glyphname = scaron;
lastChange = "2018-12-25 22:15:03 +0000";
layers = (
{
components = (
{
name = s;
transform = "{1, 0, 0, 1, -5, 0}";
}
);
layerId = master01;
paths = (
{
closed = 1;
nodes = (
"449 719 OFFCURVE",
"445 755 OFFCURVE",
"420 775 CURVE SMOOTH",
"375 811 OFFCURVE",
"340 766 OFFCURVE",
"340 766 CURVE SMOOTH",
"340 766 OFFCURVE",
"315 739 OFFCURVE",
"277 715 CURVE",
"246 732 OFFCURVE",
"223 763 OFFCURVE",
"222 763 CURVE",
"223 763 LINE",
"204 789 OFFCURVE",
"169 795 OFFCURVE",
"143 777 CURVE SMOOTH",
"117 759 OFFCURVE",
"111 723 OFFCURVE",
"129 698 CURVE",
"131 695 OFFCURVE",
"203 601 OFFCURVE",
"277 601 CURVE SMOOTH",
"354 601 OFFCURVE",
"427 692 OFFCURVE",
"429 695 CURVE"
);
}
);
width = 556;
}
);
unicode = 0161;
},
{
glyphname = germandbls;
layers = (
{
layerId = master01;
paths = (
{
closed = 1;
nodes = (
"376 522 OFFCURVE",
"384 504 OFFCURVE",
"384 484 CURVE SMOOTH",
"384 463 OFFCURVE",
"370 441 OFFCURVE",
"344 441 CURVE SMOOTH",
"314 441 OFFCURVE",
"304 463 OFFCURVE",
"304 484 CURVE SMOOTH",
"304 506 OFFCURVE",
"322 522 OFFCURVE",
"344 522 CURVE",
"344 522 LINE"
);
},
{
closed = 1;
nodes = (
"120 5 OFFCURVE",
"184 5 CURVE SMOOTH",
"235 5 OFFCURVE",
"285 20 OFFCURVE",
"300 113 CURVE SMOOTH",
"314 206 OFFCURVE",
"307 190 OFFCURVE",
"307 250 CURVE SMOOTH",
"307 279 OFFCURVE",
"324 294 OFFCURVE",
"347 294 CURVE SMOOTH",
"372 294 OFFCURVE",
"386 286 OFFCURVE",
"393 265 CURVE",
"393 265 OFFCURVE",
"408 221 OFFCURVE",
"369 206 CURVE SMOOTH",
"327 189 OFFCURVE",
"305 118 OFFCURVE",
"333 69 CURVE SMOOTH",
"362 19 OFFCURVE",
"430 -35 OFFCURVE",
"535 14 CURVE SMOOTH",
"666 75 OFFCURVE",
"638 257 OFFCURVE",
"638 257 CURVE SMOOTH",
"638 257 OFFCURVE",
"624 351 OFFCURVE",
"520 385 CURVE",
"520 385 OFFCURVE",
"616 459 OFFCURVE",
"566 589 CURVE",
"566 589 OFFCURVE",
"517 715 OFFCURVE",
"328 722 CURVE",
"328 722 OFFCURVE",
"125 739 OFFCURVE",
"59 553 CURVE",
"59 553 OFFCURVE",
"30 466 OFFCURVE",
"30 322 CURVE SMOOTH",
"30 56 OFFCURVE"
);
}
);
width = 657;
}
);
unicode = 00DF;
},
{
glyphname = t;
layers = (
{
layerId = master01;
paths = (
{
closed = 1;
nodes = (
"23 559 OFFCURVE",
"23 448 CURVE SMOOTH",
"23 289 OFFCURVE",
"224 327 OFFCURVE",
"224 327 CURVE",
"211 147 OFFCURVE",
"198 -12 OFFCURVE",
"369 -12 CURVE SMOOTH",
"541 -12 OFFCURVE",
"498 321 OFFCURVE",
"498 321 CURVE SMOOTH",
"498 321 OFFCURVE",
"676 305 OFFCURVE",
"676 448 CURVE SMOOTH",
"676 602 OFFCURVE",
"486 581 OFFCURVE",
"486 581 CURVE SMOOTH",
"486 581 OFFCURVE",
"508 758 OFFCURVE",
"342 758 CURVE SMOOTH",
"171 759 OFFCURVE",
"205 583 OFFCURVE",
"205 583 CURVE SMOOTH",
"136 583 OFFCURVE"
);
}
);
width = 692;
}
);
unicode = 0074;
},
{
glyphname = u;
layers = (
{
layerId = master01;
paths = (
{
closed = 1;
nodes = (
"83 536 OFFCURVE",
"53 403 CURVE",
"53 403 OFFCURVE",
"10 207 OFFCURVE",
"92 87 CURVE",
"92 87 OFFCURVE",
"147 -12 OFFCURVE",
"354 -17 CURVE SMOOTH",
"550 -22 OFFCURVE",
"607 136 OFFCURVE",
"607 136 CURVE SMOOTH",
"607 136 OFFCURVE",
"666 267 OFFCURVE",
"637 406 CURVE",
"637 406 OFFCURVE",
"621 522 OFFCURVE",
"489 515 CURVE",
"489 515 OFFCURVE",
"376 515 OFFCURVE",
"375 384 CURVE SMOOTH",
"374 300 OFFCURVE",
"375 264 OFFCURVE",
"344 264 CURVE SMOOTH",
"310 264 OFFCURVE",
"313 338 OFFCURVE",
"312 384 CURVE SMOOTH",
"309 507 OFFCURVE",
"205 514 OFFCURVE",
"205 514 CURVE SMOOTH",
"205 514 OFFCURVE"
);
}
);
width = 680;
}
);
unicode = 0075;
},
{
glyphname = uacute;
lastChange = "2018-12-25 22:15:10 +0000";
layers = (
{
components = (
{
name = u;
}
);
layerId = master01;
paths = (
{
closed = 1;
nodes = (
"238 667 OFFCURVE",
"204 629 OFFCURVE",
"224 589 CURVE SMOOTH",
"246 546 OFFCURVE",
"302 560 OFFCURVE",
"302 560 CURVE SMOOTH",
"302 560 OFFCURVE",
"409 575 OFFCURVE",
"465 624 CURVE SMOOTH",
"515 667 OFFCURVE",
"492 715 OFFCURVE",
"471 737 CURVE",
"451 756 OFFCURVE",
"428 775 OFFCURVE",
"368 755 CURVE SMOOTH",
"325 741 OFFCURVE",
"260 695 OFFCURVE",
"238 667 CURVE"
);
}
);
width = 680;
}
);
unicode = 00FA;
},
{
glyphname = ucircumflex;
lastChange = "2018-12-25 22:15:13 +0000";
layers = (
{
components = (
{
name = u;
}
);
layerId = master01;
paths = (
{
closed = 1;
nodes = (
"166 652 OFFCURVE",
"170 616 OFFCURVE",
"195 596 CURVE SMOOTH",
"240 560 OFFCURVE",
"275 605 OFFCURVE",
"275 605 CURVE SMOOTH",
"275 605 OFFCURVE",
"300 632 OFFCURVE",
"338 656 CURVE",
"369 639 OFFCURVE",
"392 608 OFFCURVE",
"393 608 CURVE",
"392 608 LINE",
"411 582 OFFCURVE",
"446 576 OFFCURVE",
"472 594 CURVE SMOOTH",
"498 612 OFFCURVE",
"504 648 OFFCURVE",
"486 673 CURVE",
"484 676 OFFCURVE",
"412 770 OFFCURVE",
"338 770 CURVE SMOOTH",
"261 770 OFFCURVE",
"188 679 OFFCURVE",
"186 676 CURVE"
);
}
);
width = 680;
}
);
unicode = 00FB;
},
{
glyphname = udieresis;
lastChange = "2018-12-25 22:15:16 +0000";
layers = (
{
components = (
{
name = u;
}
);
layerId = master01;
paths = (
{
closed = 1;
nodes = (
"331 687 OFFCURVE",
"304 722 OFFCURVE",
"254 722 CURVE SMOOTH",
"204 722 OFFCURVE",
"177 687 OFFCURVE",
"177 645 CURVE SMOOTH",
"177 602 OFFCURVE",
"204 567 OFFCURVE",
"254 567 CURVE SMOOTH",
"304 567 OFFCURVE",
"331 602 OFFCURVE",
"331 645 CURVE SMOOTH"
);
},
{
closed = 1;
nodes = (
"514 687 OFFCURVE",
"487 722 OFFCURVE",
"437 722 CURVE SMOOTH",
"387 722 OFFCURVE",
"360 687 OFFCURVE",
"360 645 CURVE SMOOTH",
"360 602 OFFCURVE",
"387 567 OFFCURVE",
"437 567 CURVE SMOOTH",
"487 567 OFFCURVE",
"514 602 OFFCURVE",
"514 645 CURVE SMOOTH"
);
}
);
width = 680;
}
);
unicode = 00FC;
},
{
glyphname = ugrave;
lastChange = "2018-12-25 22:15:19 +0000";
layers = (
{
components = (
{
name = u;
}
);
layerId = master01;
paths = (
{
closed = 1;
nodes = (
"237 776 OFFCURVE",
"214 757 OFFCURVE",
"194 738 CURVE",
"173 716 OFFCURVE",
"150 668 OFFCURVE",
"200 625 CURVE SMOOTH",
"256 576 OFFCURVE",
"363 561 OFFCURVE",
"363 561 CURVE SMOOTH",
"363 561 OFFCURVE",
"419 547 OFFCURVE",
"441 590 CURVE SMOOTH",
"461 630 OFFCURVE",
"427 668 OFFCURVE",
"427 668 CURVE",
"405 696 OFFCURVE",
"340 742 OFFCURVE",
"297 756 CURVE SMOOTH"
);
}
);
width = 680;
}
);
unicode = 00F9;
},
{
glyphname = v;
layers = (
{
layerId = master01;
paths = (
{
closed = 1;
nodes = (
"298 543 OFFCURVE",
"135 512 CURVE SMOOTH",
"-4 484 OFFCURVE",
"20 340 OFFCURVE",
"48 270 CURVE SMOOTH",
"75 199 OFFCURVE",
"172 -6 OFFCURVE",
"340 -6 CURVE SMOOTH",
"499 -6 OFFCURVE",
"603 236 OFFCURVE",
"603 236 CURVE SMOOTH",
"603 236 OFFCURVE",
"717 476 OFFCURVE",
"548 513 CURVE SMOOTH",
"362 553 OFFCURVE",
"340 303 OFFCURVE",
"340 303 CURVE SMOOTH",
"340 303 OFFCURVE"
);
}
);
width = 668;
}
);
unicode = 0076;
},
{
glyphname = w;
layers = (
{
layerId = master01;
paths = (
{
closed = 1;
nodes = (
"444 -13 OFFCURVE",
"616 -13 CURVE",
"616 -13 OFFCURVE",
"719 -18 OFFCURVE",
"782 97 CURVE",
"782 97 OFFCURVE",
"841 195 OFFCURVE",
"847 363 CURVE",
"847 363 OFFCURVE",
"857 524 OFFCURVE",
"705 526 CURVE SMOOTH",
"705 526 OFFCURVE",
"545 537 OFFCURVE",
"545 290 CURVE",
"545 290 OFFCURVE",
"550 404 OFFCURVE",
"444 405 CURVE SMOOTH",
"444 405 OFFCURVE",
"346 410 OFFCURVE",
"352 290 CURVE",
"352 290 OFFCURVE",
"363 526 OFFCURVE",
"169 526 CURVE SMOOTH",
"169 526 OFFCURVE",
"26 521 OFFCURVE",
"39 359 CURVE",
"39 359 OFFCURVE",
"46 228 OFFCURVE",
"112 102 CURVE",
"112 102 OFFCURVE",
"163 -14 OFFCURVE",
"274 -14 CURVE SMOOTH",
"432 -14 OFFCURVE",
"443 130 OFFCURVE",
"443 130 CURVE SMOOTH",
"443 130 OFFCURVE"
);
}
);
width = 875;
}
);
unicode = 0077;
},
{
glyphname = x;
layers = (
{
layerId = master01;
paths = (
{
closed = 1;
nodes = (
"220 613 OFFCURVE",
"79 481 CURVE SMOOTH",
"-30 377 OFFCURVE",
"102 256 OFFCURVE",
"102 256 CURVE SMOOTH",
"102 256 OFFCURVE",
"-53 143 OFFCURVE",
"88 16 CURVE SMOOTH",
"218 -102 OFFCURVE",
"305 80 OFFCURVE",
"305 80 CURVE",
"317 49 OFFCURVE",
"406 -96 OFFCURVE",
"538 16 CURVE SMOOTH",
"680 136 OFFCURVE",
"516 262 OFFCURVE",
"516 262 CURVE SMOOTH",
"516 262 OFFCURVE",
"654 385 OFFCURVE",
"546 481 CURVE SMOOTH",
"415 598 OFFCURVE",
"313 429 OFFCURVE",
"313 429 CURVE SMOOTH",
"313 429 OFFCURVE"
);
}
);
width = 624;
}
);
unicode = 0078;
},
{
glyphname = y;
layers = (
{
layerId = master01;
paths = (
{
closed = 1;
nodes = (
"394 406 OFFCURVE",
"364 352 CURVE",
"346 378 OFFCURVE",
"327 406 OFFCURVE",
"305 434 CURVE SMOOTH",
"200 566 OFFCURVE",
"93 493 OFFCURVE",
"93 493 CURVE",
"-28 396 OFFCURVE",
"61 269 OFFCURVE",
"61 269 CURVE SMOOTH",
"61 269 OFFCURVE",
"110 188 OFFCURVE",
"198 121 CURVE",
"198 121 OFFCURVE",
"217 105 OFFCURVE",
"233 89 CURVE",
"211 42 OFFCURVE",
"111 -150 OFFCURVE",
"243 -213 CURVE SMOOTH",
"382 -280 OFFCURVE",
"475 -100 OFFCURVE",
"475 -100 CURVE SMOOTH",
"475 -100 OFFCURVE",
"569 37 OFFCURVE",
"644 244 CURVE SMOOTH",
"725 468 OFFCURVE",
"606 505 OFFCURVE",
"606 505 CURVE",
"475 564 OFFCURVE"
);
}
);
width = 711;
}
);
unicode = 0079;
},
{
glyphname = yacute;
lastChange = "2018-12-25 22:15:28 +0000";
layers = (
{
components = (
{
name = y;
transform = "{1, 0, 0, 1, -10, 0}";
}
);
layerId = master01;
paths = (
{
closed = 1;
nodes = (
"251 667 OFFCURVE",
"217 629 OFFCURVE",
"237 589 CURVE SMOOTH",
"259 546 OFFCURVE",
"315 560 OFFCURVE",
"315 560 CURVE SMOOTH",
"315 560 OFFCURVE",
"422 575 OFFCURVE",
"478 624 CURVE SMOOTH",
"528 667 OFFCURVE",
"505 715 OFFCURVE",
"484 737 CURVE",
"464 756 OFFCURVE",
"441 775 OFFCURVE",
"381 755 CURVE SMOOTH",
"338 741 OFFCURVE",
"273 695 OFFCURVE",
"251 667 CURVE"
);
}
);
width = 728;
}
);
unicode = 00FD;
},
{
glyphname = ydieresis;
lastChange = "2018-12-25 22:15:31 +0000";
layers = (
{
components = (
{
name = y;
transform = "{1, 0, 0, 1, -10, 0}";
}
);
layerId = master01;
paths = (
{
closed = 1;
nodes = (
"335 670 OFFCURVE",
"308 705 OFFCURVE",
"258 705 CURVE SMOOTH",
"208 705 OFFCURVE",
"181 670 OFFCURVE",
"181 628 CURVE SMOOTH",
"181 585 OFFCURVE",
"208 550 OFFCURVE",
"258 550 CURVE SMOOTH",
"308 550 OFFCURVE",
"335 585 OFFCURVE",
"335 628 CURVE SMOOTH"
);
},
{
closed = 1;
nodes = (
"518 670 OFFCURVE",
"491 705 OFFCURVE",
"441 705 CURVE SMOOTH",
"391 705 OFFCURVE",
"364 670 OFFCURVE",
"364 628 CURVE SMOOTH",
"364 585 OFFCURVE",
"391 550 OFFCURVE",
"441 550 CURVE SMOOTH",
"491 550 OFFCURVE",
"518 585 OFFCURVE",
"518 628 CURVE SMOOTH"
);
}
);
width = 728;
}
);
unicode = 00FF;
},
{
glyphname = z;
layers = (
{
layerId = master01;
paths = (
{
closed = 1;
nodes = (
"24 201 OFFCURVE",
"57 75 CURVE SMOOTH",
"82 -13 OFFCURVE",
"202 -14 OFFCURVE",
"317 -14 CURVE SMOOTH",
"432 -14 OFFCURVE",
"568 -13 OFFCURVE",
"568 123 CURVE SMOOTH",
"568 259 OFFCURVE",
"393 253 OFFCURVE",
"393 253 CURVE",
"499 344 OFFCURVE",
"514 427 OFFCURVE",
"514 427 CURVE",
"527 503 OFFCURVE",
"468 551 OFFCURVE",
"287 557 CURVE SMOOTH",
"20 564 OFFCURVE",
"28 434 OFFCURVE",
"28 434 CURVE",
"20 295 OFFCURVE",
"180 306 OFFCURVE",
"180 306 CURVE SMOOTH",
"180 306 OFFCURVE"
);
}
);
width = 601;
}
);
unicode = 007A;
},
{
glyphname = zcaron;
lastChange = "2018-12-25 22:15:39 +0000";
layers = (
{
components = (
{
name = z;
}
);
layerId = master01;
paths = (
{
closed = 1;
nodes = (
"471 711 OFFCURVE",
"467 747 OFFCURVE",
"442 767 CURVE SMOOTH",
"397 803 OFFCURVE",
"362 758 OFFCURVE",
"362 758 CURVE SMOOTH",
"362 758 OFFCURVE",
"337 731 OFFCURVE",
"299 707 CURVE",
"268 724 OFFCURVE",
"245 755 OFFCURVE",
"244 755 CURVE",
"245 755 LINE",
"226 781 OFFCURVE",
"191 787 OFFCURVE",
"165 769 CURVE SMOOTH",
"139 751 OFFCURVE",
"133 715 OFFCURVE",
"151 690 CURVE",
"153 687 OFFCURVE",
"225 593 OFFCURVE",
"299 593 CURVE SMOOTH",
"376 593 OFFCURVE",
"449 684 OFFCURVE",
"451 687 CURVE"
);
}
);
width = 542;
}
);
unicode = 017E;
},
{
glyphname = ordfeminine;
layers = (
{
layerId = master01;
paths = (
{
closed = 1;
nodes = (
"121 660 OFFCURVE",
"77 655 CURVE SMOOTH",
"9 649 OFFCURVE",
"15 571 OFFCURVE",
"15 571 CURVE",
"15 504 OFFCURVE",
"71 502 OFFCURVE",
"71 502 CURVE",
"124 496 OFFCURVE",
"132 527 OFFCURVE",
"132 527 CURVE",
"136 498 OFFCURVE",
"165 500 OFFCURVE",
"165 500 CURVE SMOOTH",
"165 500 OFFCURVE",
"212 494 OFFCURVE",
"207 583 CURVE",
"207 583 OFFCURVE",
"207 658 OFFCURVE",
"163 658 CURVE SMOOTH",
"136 658 OFFCURVE",
"129 633 OFFCURVE",
"129 633 CURVE SMOOTH",
"129 633 OFFCURVE"
);
},
{
closed = 1;
nodes = (
"128 580 OFFCURVE",
"128 574 CURVE SMOOTH",
"128 567 OFFCURVE",
"123 563 OFFCURVE",
"116 563 CURVE SMOOTH",
"110 563 OFFCURVE",
"105 566 OFFCURVE",
"105 574 CURVE",
"104 580 OFFCURVE",
"110 587 OFFCURVE",
"116 587 CURVE SMOOTH",
"124 587 OFFCURVE"
);
}
);
width = 234;
}
);
unicode = 00AA;
},
{
glyphname = mu;
layers = (
{
layerId = master01;
paths = (
{
closed = 1;
nodes = (
"70 178 OFFCURVE",
"99 -72 CURVE",
"99 -72 OFFCURVE",
"114 -220 OFFCURVE",
"222 -220 CURVE SMOOTH",
"345 -220 OFFCURVE",
"370 -121 OFFCURVE",
"370 2 CURVE",
"370 2 OFFCURVE",
"639 -61 OFFCURVE",
"646 273 CURVE",
"646 273 OFFCURVE",
"661 472 OFFCURVE",
"524 493 CURVE",
"524 493 OFFCURVE",
"406 505 OFFCURVE",
"419 349 CURVE",
"419 349 OFFCURVE",
"437 199 OFFCURVE",
"387 199 CURVE SMOOTH",
"338 199 OFFCURVE",
"344 263 OFFCURVE",
"345 346 CURVE",
"345 346 OFFCURVE",
"372 493 OFFCURVE",
"236 493 CURVE SMOOTH",
"106 493 OFFCURVE",
"95 361 OFFCURVE",
"95 361 CURVE SMOOTH",
"95 361 OFFCURVE"
);
}
);
width = 833;
}
);
unicode = 03BC;
},
{
glyphname = zero;
layers = (
{
layerId = master01;
paths = (
{
closed = 1;
nodes = (
"541 706 OFFCURVE",
"301 706 CURVE SMOOTH",
"79 706 OFFCURVE",
"38 504 OFFCURVE",
"38 310 CURVE SMOOTH",
"38 116 OFFCURVE",
"151 4 OFFCURVE",
"301 4 CURVE SMOOTH",
"451 4 OFFCURVE",
"564 116 OFFCURVE",
"564 310 CURVE SMOOTH",
"564 504 OFFCURVE"
);
},
{
closed = 1;
nodes = (
"344 367 OFFCURVE",
"344 337 CURVE SMOOTH",
"344 319 OFFCURVE",
"336 300 OFFCURVE",
"308 300 CURVE SMOOTH",
"283 300 OFFCURVE",
"269 315 OFFCURVE",
"269 338 CURVE SMOOTH",
"269 367 OFFCURVE",
"284 382 OFFCURVE",
"308 382 CURVE SMOOTH",
"329 382 OFFCURVE"
);
}
);
width = 592;
}
);
unicode = 0030;
},
{
glyphname = one;
layers = (
{
layerId = master01;
paths = (
{
closed = 1;
nodes = (
"155 279 OFFCURVE",
"187 120 CURVE",
"187 120 OFFCURVE",
"208 0 OFFCURVE",
"312 0 CURVE",
"312 0 OFFCURVE",
"441 -10 OFFCURVE",
"454 174 CURVE",
"454 174 OFFCURVE",
"497 574 OFFCURVE",
"366 664 CURVE",
"366 664 OFFCURVE",
"277 730 OFFCURVE",
"142 664 CURVE",
"142 664 OFFCURVE",
"-28 580 OFFCURVE",
"36 454 CURVE SMOOTH",
"83 361 OFFCURVE",
"206 454 OFFCURVE",
"206 454 CURVE SMOOTH",
"206 454 OFFCURVE"
);
}
);
width = 492;
}
);
unicode = 0031;
},
{
glyphname = two;
layers = (
{
layerId = master01;
paths = (
{
closed = 1;
nodes = (
"23 685 OFFCURVE",
"29 550 CURVE",
"29 550 OFFCURVE",
"38 447 OFFCURVE",
"127 465 CURVE",
"127 465 OFFCURVE",
"192 495 OFFCURVE",
"226 448 CURVE SMOOTH",
"253 411 OFFCURVE",
"220 363 OFFCURVE",
"183 332 CURVE SMOOTH",
"106 267 OFFCURVE",
"30 227 OFFCURVE",
"43 114 CURVE",
"43 114 OFFCURVE",
"51 -3 OFFCURVE",
"264 -4 CURVE",
"264 -4 OFFCURVE",
"544 -21 OFFCURVE",
"548 117 CURVE SMOOTH",
"552 259 OFFCURVE",
"388 254 OFFCURVE",
"388 254 CURVE SMOOTH",
"388 254 OFFCURVE",
"557 435 OFFCURVE",
"463 609 CURVE",
"463 609 OFFCURVE",
"413 721 OFFCURVE",
"226 706 CURVE",
"226 706 OFFCURVE"
);
}
);
width = 582;
}
);
unicode = 0032;
},
{
glyphname = three;
layers = (
{
layerId = master01;
paths = (
{
closed = 1;
nodes = (
"46 707 OFFCURVE",
"44 587 CURVE",
"44 587 OFFCURVE",
"29 471 OFFCURVE",
"244 495 CURVE",
"244 495 OFFCURVE",
"130 472 OFFCURVE",
"130 397 CURVE",
"130 397 OFFCURVE",
"120 300 OFFCURVE",
"245 300 CURVE",
"245 300 OFFCURVE",
"295 303 OFFCURVE",
"312 274 CURVE",
"312 274 OFFCURVE",
"333 240 OFFCURVE",
"302 213 CURVE",
"302 213 OFFCURVE",
"265 181 OFFCURVE",
"203 219 CURVE",
"203 219 OFFCURVE",
"118 276 OFFCURVE",
"61 219 CURVE",
"61 219 OFFCURVE",
"-32 131 OFFCURVE",
"89 49 CURVE",
"89 49 OFFCURVE",
"264 -58 OFFCURVE",
"464 28 CURVE",
"464 28 OFFCURVE",
"605 92 OFFCURVE",
"584 279 CURVE",
"584 279 OFFCURVE",
"571 398 OFFCURVE",
"468 445 CURVE",
"468 445 OFFCURVE",
"553 537 OFFCURVE",
"500 634 CURVE SMOOTH",
"451 723 OFFCURVE",
"246 709 OFFCURVE",
"246 709 CURVE SMOOTH",
"246 709 OFFCURVE"
);
}
);
width = 618;
}
);
unicode = 0033;
},
{
glyphname = four;
layers = (
{
layerId = master01;
paths = (
{
closed = 1;
nodes = (
"613 374 OFFCURVE",
"536 376 CURVE SMOOTH",
"536 376 OFFCURVE",
"559 656 OFFCURVE",
"402 699 CURVE",
"402 699 OFFCURVE",
"224 756 OFFCURVE",
"102 540 CURVE",
"102 540 OFFCURVE",
"-56 266 OFFCURVE",
"102 223 CURVE",
"102 223 OFFCURVE",
"160 202 OFFCURVE",
"265 202 CURVE",
"265 202 OFFCURVE",
"234 -7 OFFCURVE",
"396 -7 CURVE SMOOTH",
"571 -7 OFFCURVE",
"536 202 OFFCURVE",
"536 202 CURVE SMOOTH",
"536 202 OFFCURVE",
"613 207 OFFCURVE",
"613 288 CURVE",
"613 288 OFFCURVE"
);
},
{
closed = 1;
nodes = (
"289 411 OFFCURVE",
"289 390 CURVE SMOOTH",
"289 367 OFFCURVE",
"272 353 OFFCURVE",
"250 353 CURVE SMOOTH",
"228 353 OFFCURVE",
"212 362 OFFCURVE",
"210 390 CURVE SMOOTH",
"208 411 OFFCURVE",
"227 432 OFFCURVE",
"250 432 CURVE SMOOTH",
"275 432 OFFCURVE"
);
}
);
width = 649;
}
);
unicode = 0034;
},
{
glyphname = five;
layers = (
{
layerId = master01;
paths = (
{
closed = 1;
nodes = (
"62 651 OFFCURVE",
"58 529 CURVE SMOOTH",
"54 396 OFFCURVE",
"106 362 OFFCURVE",
"192 333 CURVE",
"192 333 OFFCURVE",
"279 312 OFFCURVE",
"264 261 CURVE",
"264 261 OFFCURVE",
"258 202 OFFCURVE",
"169 248 CURVE",
"169 248 OFFCURVE",
"78 296 OFFCURVE",
"44 200 CURVE",
"44 200 OFFCURVE",
"-3 61 OFFCURVE",
"192 4 CURVE",
"192 4 OFFCURVE",
"432 -48 OFFCURVE",
"519 89 CURVE",
"519 89 OFFCURVE",
"608 222 OFFCURVE",
"523 360 CURVE",
"523 360 OFFCURVE",
"473 451 OFFCURVE",
"304 460 CURVE",
"304 460 OFFCURVE",
"511 446 OFFCURVE",
"513 574 CURVE",
"513 574 OFFCURVE",
"524 671 OFFCURVE",
"373 695 CURVE",
"373 695 OFFCURVE",
"246 717 OFFCURVE",
"159 682 CURVE",
"159 682 OFFCURVE"
);
}
);
width = 591;
}
);
unicode = 0035;
},
{
glyphname = six;
layers = (
{
layerId = master01;
paths = (
{
closed = 1;
nodes = (
"583 443 OFFCURVE",
"374 443 CURVE SMOOTH",
"374 443 OFFCURVE",
"388 464 OFFCURVE",
"432 515 CURVE",
"432 515 OFFCURVE",
"519 606 OFFCURVE",
"427 675 CURVE",
"427 675 OFFCURVE",
"331 754 OFFCURVE",
"221 655 CURVE",
"221 655 OFFCURVE",
"14 500 OFFCURVE",
"47 238 CURVE",
"47 238 OFFCURVE",
"81 -6 OFFCURVE",
"325 -6 CURVE",
"325 -6 OFFCURVE",
"576 -10 OFFCURVE",
"576 234 CURVE",
"576 234 OFFCURVE"
);
},
{
closed = 1;
nodes = (
"354 253 OFFCURVE",
"354 232 CURVE SMOOTH",
"354 209 OFFCURVE",
"337 195 OFFCURVE",
"315 195 CURVE SMOOTH",
"293 195 OFFCURVE",
"277 204 OFFCURVE",
"275 232 CURVE SMOOTH",
"273 253 OFFCURVE",
"292 274 OFFCURVE",
"315 274 CURVE SMOOTH",
"340 274 OFFCURVE"
);
}
);
width = 614;
}
);
unicode = 0036;
},
{
glyphname = seven;
layers = (
{
layerId = master01;
paths = (
{
closed = 1;
nodes = (
"176 282 OFFCURVE",
"165 129 CURVE",
"165 129 OFFCURVE",
"151 34 OFFCURVE",
"250 1 CURVE",
"250 1 OFFCURVE",
"380 -41 OFFCURVE",
"442 115 CURVE",
"442 115 OFFCURVE",
"627 482 OFFCURVE",
"534 619 CURVE",
"534 619 OFFCURVE",
"487 711 OFFCURVE",
"321 718 CURVE",
"321 718 OFFCURVE",
"32 747 OFFCURVE",
"39 545 CURVE SMOOTH",
"44 393 OFFCURVE",
"295 465 OFFCURVE",
"295 465 CURVE SMOOTH",
"295 465 OFFCURVE"
);
}
);
width = 600;
}
);
unicode = 0037;
},
{
glyphname = eight;
layers = (
{
layerId = master01;
paths = (
{
closed = 1;
nodes = (
"554 360 OFFCURVE",
"482 403 CURVE",
"513 432 OFFCURVE",
"527 473 OFFCURVE",
"527 528 CURVE SMOOTH",
"527 645 OFFCURVE",
"434 710 OFFCURVE",
"308 710 CURVE SMOOTH",
"181 710 OFFCURVE",
"87 644 OFFCURVE",
"86 528 CURVE SMOOTH",
"85 480 OFFCURVE",
"101 437 OFFCURVE",
"138 404 CURVE",
"70 365 OFFCURVE",
"40 300 OFFCURVE",
"40 214 CURVE SMOOTH",
"40 62 OFFCURVE",
"154 -18 OFFCURVE",
"313 -18 CURVE SMOOTH",
"472 -18 OFFCURVE",
"587 62 OFFCURVE",
"587 214 CURVE SMOOTH",
"587 292 OFFCURVE"
);
},
{
closed = 1;
nodes = (
"355 252 OFFCURVE",
"355 231 CURVE SMOOTH",
"355 208 OFFCURVE",
"338 194 OFFCURVE",
"316 194 CURVE SMOOTH",
"294 194 OFFCURVE",
"278 203 OFFCURVE",
"276 231 CURVE SMOOTH",
"274 252 OFFCURVE",
"293 273 OFFCURVE",
"316 273 CURVE SMOOTH",
"341 273 OFFCURVE"
);
},
{
closed = 1;
nodes = (
"355 516 OFFCURVE",
"355 495 CURVE SMOOTH",
"355 472 OFFCURVE",
"338 458 OFFCURVE",
"316 458 CURVE SMOOTH",
"294 458 OFFCURVE",
"278 467 OFFCURVE",
"276 495 CURVE SMOOTH",
"274 516 OFFCURVE",
"293 537 OFFCURVE",
"316 537 CURVE SMOOTH",
"341 537 OFFCURVE"
);
}
);
width = 625;
}
);
unicode = 0038;
},
{
glyphname = nine;
layers = (
{
layerId = master01;
paths = (
{
closed = 1;
nodes = (
"28 260 OFFCURVE",
"236 260 CURVE",
"236 260 OFFCURVE",
"222 238 OFFCURVE",
"179 188 CURVE",
"179 188 OFFCURVE",
"93 93 OFFCURVE",
"182 22 CURVE",
"182 22 OFFCURVE",
"272 -57 OFFCURVE",
"390 47 CURVE",
"390 47 OFFCURVE",
"604 206 OFFCURVE",
"572 468 CURVE",
"572 468 OFFCURVE",
"547 709 OFFCURVE",
"303 709 CURVE SMOOTH",
"303 709 OFFCURVE",
"35 712 OFFCURVE",
"35 468 CURVE",
"35 468 OFFCURVE"
);
},
{
closed = 1;
nodes = (
"350 451 OFFCURVE",
"350 430 CURVE SMOOTH",
"350 407 OFFCURVE",
"333 393 OFFCURVE",
"311 393 CURVE SMOOTH",
"289 393 OFFCURVE",
"273 402 OFFCURVE",
"271 430 CURVE SMOOTH",
"269 451 OFFCURVE",
"288 472 OFFCURVE",
"311 472 CURVE SMOOTH",
"336 472 OFFCURVE"
);
}
);
width = 609;
}
);
unicode = 0039;
},
{
glyphname = onesuperior;
layers = (
{
layerId = master01;
paths = (
{
closed = 1;
nodes = (
"53 582 OFFCURVE",
"63 533 CURVE",
"63 533 OFFCURVE",
"69 496 OFFCURVE",
"101 496 CURVE",
"101 496 OFFCURVE",
"141 493 OFFCURVE",
"145 550 CURVE",
"145 550 OFFCURVE",
"158 673 OFFCURVE",
"118 701 CURVE",
"118 701 OFFCURVE",
"90 721 OFFCURVE",
"49 701 CURVE",
"49 701 OFFCURVE",
"-4 675 OFFCURVE",
"16 636 CURVE SMOOTH",
"31 607 OFFCURVE",
"69 636 OFFCURVE",
"69 636 CURVE SMOOTH",
"69 636 OFFCURVE"
);
}
);
width = 170;
}
);
unicode = 00B9;
},
{
glyphname = twosuperior;
layers = (
{
layerId = master01;
paths = (
{
closed = 1;
nodes = (
"12 710 OFFCURVE",
"14 667 CURVE",
"14 667 OFFCURVE",
"17 635 OFFCURVE",
"45 641 CURVE",
"45 641 OFFCURVE",
"66 650 OFFCURVE",
"77 635 CURVE SMOOTH",
"85 624 OFFCURVE",
"75 608 OFFCURVE",
"63 599 CURVE",
"39 578 OFFCURVE",
"14 566 OFFCURVE",
"19 530 CURVE",
"19 530 OFFCURVE",
"21 493 OFFCURVE",
"89 493 CURVE",
"89 493 OFFCURVE",
"177 487 OFFCURVE",
"178 531 CURVE SMOOTH",
"180 576 OFFCURVE",
"128 574 OFFCURVE",
"128 574 CURVE SMOOTH",
"128 574 OFFCURVE",
"181 631 OFFCURVE",
"152 686 CURVE",
"152 686 OFFCURVE",
"136 721 OFFCURVE",
"77 717 CURVE",
"77 717 OFFCURVE"
);
}
);
width = 194;
}
);
unicode = 00B2;
},
{
glyphname = threesuperior;
layers = (
{
layerId = master01;
paths = (
{
closed = 1;
nodes = (
"43 708 OFFCURVE",
"42 672 CURVE",
"42 672 OFFCURVE",
"38 638 OFFCURVE",
"102 645 CURVE",
"102 645 OFFCURVE",
"68 638 OFFCURVE",
"68 615 CURVE",
"68 615 OFFCURVE",
"65 586 OFFCURVE",
"103 586 CURVE",
"103 586 OFFCURVE",
"118 587 OFFCURVE",
"123 578 CURVE",
"123 578 OFFCURVE",
"129 568 OFFCURVE",
"120 560 CURVE",
"120 560 OFFCURVE",
"109 550 OFFCURVE",
"90 562 CURVE",
"90 562 OFFCURVE",
"64 579 OFFCURVE",
"47 562 CURVE",
"47 562 OFFCURVE",
"19 535 OFFCURVE",
"56 511 CURVE",
"56 511 OFFCURVE",
"108 479 OFFCURVE",
"168 504 CURVE",
"168 504 OFFCURVE",
"211 524 OFFCURVE",
"204 580 CURVE",
"204 580 OFFCURVE",
"201 616 OFFCURVE",
"170 630 CURVE",
"170 630 OFFCURVE",
"195 657 OFFCURVE",
"179 687 CURVE SMOOTH",
"165 713 OFFCURVE",
"103 709 OFFCURVE",
"103 709 CURVE SMOOTH",
"103 709 OFFCURVE"
);
}
);
width = 210;
}
);
unicode = 00B3;
},
{
glyphname = fraction;
layers = (
{
layerId = master01;
paths = (
{
closed = 1;
nodes = (
"354 402 OFFCURVE",
"398 678 CURVE SMOOTH",
"413 775 OFFCURVE",
"348 779 OFFCURVE",
"348 779 CURVE SMOOTH",
"348 779 OFFCURVE",
"273 805 OFFCURVE",
"236 717 CURVE SMOOTH",
"189 605 OFFCURVE",
"53 212 OFFCURVE",
"37 70 CURVE SMOOTH",
"28 -13 OFFCURVE",
"91 -25 OFFCURVE",
"91 -25 CURVE SMOOTH",
"91 -25 OFFCURVE",
"152 -45 OFFCURVE",
"186 26 CURVE",
"186 26 OFFCURVE"
);
}
);
width = 428;
}
);
unicode = 2044;
},
{
glyphname = period;
layers = (
{
layerId = master01;
paths = (
{
closed = 1;
nodes = (
"257 242 OFFCURVE",
"175 242 CURVE SMOOTH",
"94 242 OFFCURVE",
"49 185 OFFCURVE",
"49 116 CURVE SMOOTH",
"49 46 OFFCURVE",
"94 -10 OFFCURVE",
"175 -10 CURVE SMOOTH",
"257 -10 OFFCURVE",
"301 46 OFFCURVE",
"301 116 CURVE SMOOTH",
"301 185 OFFCURVE"
);
}
);
width = 352;
}
);
unicode = 002E;
},
{
glyphname = comma;
layers = (
{
layerId = master01;
paths = (
{
closed = 1;
nodes = (
"269 183 OFFCURVE",
"226 236 OFFCURVE",
"146 236 CURVE SMOOTH",
"65 236 OFFCURVE",
"21 180 OFFCURVE",
"21 111 CURVE SMOOTH",
"21 44 OFFCURVE",
"61 -10 OFFCURVE",
"137 -15 CURVE",
"138 -28 OFFCURVE",
"140 -46 OFFCURVE",
"121 -46 CURVE SMOOTH",
"121 -46 OFFCURVE",
"102 -46 OFFCURVE",
"96 -65 CURVE",
"96 -65 OFFCURVE",
"84 -97 OFFCURVE",
"121 -103 CURVE",
"121 -103 OFFCURVE",
"284 -134 OFFCURVE",
"272 117 CURVE",
"272 117 LINE"
);
}
);
width = 326;
}
);
unicode = 002C;
},
{
glyphname = colon;
layers = (
{
layerId = master01;
paths = (
{
closed = 1;
nodes = (
"239 521 OFFCURVE",
"164 521 CURVE SMOOTH",
"93 521 OFFCURVE",
"52 470 OFFCURVE",
"52 408 CURVE SMOOTH",
"52 345 OFFCURVE",
"93 296 OFFCURVE",
"164 296 CURVE SMOOTH",
"239 296 OFFCURVE",
"278 345 OFFCURVE",
"278 408 CURVE SMOOTH",
"278 470 OFFCURVE"
);
},
{
closed = 1;
nodes = (
"239 208 OFFCURVE",
"164 208 CURVE SMOOTH",
"93 208 OFFCURVE",
"52 157 OFFCURVE",
"52 94 CURVE SMOOTH",
"52 31 OFFCURVE",
"93 -18 OFFCURVE",
"164 -18 CURVE SMOOTH",
"239 -18 OFFCURVE",
"278 31 OFFCURVE",
"278 94 CURVE SMOOTH",
"278 157 OFFCURVE"
);
}
);
width = 339;
}
);
unicode = 003A;
},
{
glyphname = semicolon;
layers = (
{
layerId = master01;
paths = (
{
closed = 1;
nodes = (
"235 510 OFFCURVE",
"162 510 CURVE SMOOTH",
"92 510 OFFCURVE",
"52 459 OFFCURVE",
"52 399 CURVE SMOOTH",
"52 336 OFFCURVE",
"92 288 OFFCURVE",
"162 288 CURVE SMOOTH",
"235 288 OFFCURVE",
"273 336 OFFCURVE",
"273 399 CURVE SMOOTH",
"273 459 OFFCURVE"
);
},
{
closed = 1;
nodes = (
"229 201 OFFCURVE",
"160 201 CURVE SMOOTH",
"88 201 OFFCURVE",
"50 153 OFFCURVE",
"50 92 CURVE SMOOTH",
"50 33 OFFCURVE",
"85 -13 OFFCURVE",
"151 -18 CURVE",
"152 -30 OFFCURVE",
"154 -46 OFFCURVE",
"138 -46 CURVE SMOOTH",
"138 -46 OFFCURVE",
"121 -46 OFFCURVE",
"116 -62 CURVE",
"116 -62 OFFCURVE",
"105 -90 OFFCURVE",
"138 -94 CURVE",
"138 -94 OFFCURVE",
"280 -122 OFFCURVE",
"269 97 CURVE SMOOTH",
"266 154 OFFCURVE"
);
}
);
width = 337;
}
);
unicode = 003B;
},
{
glyphname = exclam;
layers = (
{
layerId = master01;
paths = (
{
closed = 1;
nodes = (
"83 248 OFFCURVE",
"224 248 CURVE SMOOTH",
"349 248 OFFCURVE",
"383 371 OFFCURVE",
"383 371 CURVE SMOOTH",
"383 371 OFFCURVE",
"414 486 OFFCURVE",
"383 615 CURVE SMOOTH",
"350 751 OFFCURVE",
"224 754 OFFCURVE",
"224 754 CURVE SMOOTH",
"68 754 OFFCURVE",
"57 594 OFFCURVE",
"57 594 CURVE SMOOTH",
"57 594 OFFCURVE",
"45 476 OFFCURVE",
"62 408 CURVE",
"62 408 OFFCURVE"
);
},
{
closed = 1;
nodes = (
"295 -31 OFFCURVE",
"223 -31 CURVE SMOOTH",
"152 -31 OFFCURVE",
"94 17 OFFCURVE",
"94 77 CURVE SMOOTH",
"94 137 OFFCURVE",
"152 185 OFFCURVE",
"223 185 CURVE SMOOTH",
"295 185 OFFCURVE",
"353 137 OFFCURVE",
"353 77 CURVE SMOOTH",
"353 17 OFFCURVE"
);
}
);
width = 446;
}
);
unicode = 0021;
},
{
glyphname = exclamdown;
layers = (
{
layerId = master01;
paths = (
{
closed = 1;
nodes = (
"366 265 OFFCURVE",
"225 265 CURVE SMOOTH",
"100 265 OFFCURVE",
"66 142 OFFCURVE",
"66 142 CURVE SMOOTH",
"66 142 OFFCURVE",
"35 27 OFFCURVE",
"66 -102 CURVE SMOOTH",
"99 -238 OFFCURVE",
"225 -241 OFFCURVE",
"225 -241 CURVE",
"381 -241 OFFCURVE",
"392 -81 OFFCURVE",
"392 -81 CURVE SMOOTH",
"392 -81 OFFCURVE",
"404 37 OFFCURVE",
"387 105 CURVE",
"387 105 OFFCURVE"
);
},
{
closed = 1;
nodes = (
"154 328 OFFCURVE",
"226 328 CURVE SMOOTH",
"297 328 OFFCURVE",
"355 376 OFFCURVE",
"355 436 CURVE SMOOTH",
"355 496 OFFCURVE",
"297 544 OFFCURVE",
"226 544 CURVE SMOOTH",
"154 544 OFFCURVE",
"96 496 OFFCURVE",
"96 436 CURVE SMOOTH",
"96 376 OFFCURVE"
);
}
);
width = 446;
}
);
unicode = 00A1;
},
{
glyphname = question;
layers = (
{
layerId = master01;
paths = (
{
closed = 1;
nodes = (
"454 -48 OFFCURVE",
"377 -48 CURVE SMOOTH",
"300 -48 OFFCURVE",
"250 2 OFFCURVE",
"250 63 CURVE SMOOTH",
"250 134 OFFCURVE",
"300 175 OFFCURVE",
"377 175 CURVE SMOOTH",
"454 175 OFFCURVE",
"509 129 OFFCURVE",
"509 61 CURVE SMOOTH",
"509 -8 OFFCURVE"
);
},
{
closed = 1;
nodes = (
"648 594 OFFCURVE",
"497 691 CURVE SMOOTH",
"279 831 OFFCURVE",
"129 683 OFFCURVE",
"129 683 CURVE",
"-20 529 OFFCURVE",
"114 421 OFFCURVE",
"114 421 CURVE",
"210 341 OFFCURVE",
"319 454 OFFCURVE",
"319 454 CURVE SMOOTH",
"319 454 OFFCURVE",
"214 291 OFFCURVE",
"305 234 CURVE SMOOTH",
"446 145 OFFCURVE",
"525 290 OFFCURVE",
"525 290 CURVE",
"565 352 OFFCURVE"
);
}
);
width = 646;
}
);
unicode = 003F;
},
{
glyphname = questiondown;
layers = (
{
layerId = master01;
paths = (
{
closed = 1;
nodes = (
"193 328 OFFCURVE",
"270 328 CURVE SMOOTH",
"347 328 OFFCURVE",
"397 369 OFFCURVE",
"397 440 CURVE SMOOTH",
"397 501 OFFCURVE",
"347 551 OFFCURVE",
"270 551 CURVE SMOOTH",
"193 551 OFFCURVE",
"138 511 OFFCURVE",
"138 442 CURVE SMOOTH",
"138 374 OFFCURVE"
);
},
{
closed = 1;
nodes = (
"-1 -91 OFFCURVE",
"150 -188 CURVE SMOOTH",
"368 -328 OFFCURVE",
"518 -180 OFFCURVE",
"518 -180 CURVE",
"667 -26 OFFCURVE",
"533 82 OFFCURVE",
"533 82 CURVE",
"437 162 OFFCURVE",
"328 49 OFFCURVE",
"328 49 CURVE SMOOTH",
"328 49 OFFCURVE",
"433 212 OFFCURVE",
"342 269 CURVE SMOOTH",
"201 358 OFFCURVE",
"122 213 OFFCURVE",
"122 213 CURVE",
"82 151 OFFCURVE"
);
}
);
width = 646;
}
);
unicode = 00BF;
},
{
glyphname = bullet;
layers = (
{
layerId = master01;
paths = (
{
closed = 1;
nodes = (
"406 530 OFFCURVE",
"273 530 CURVE SMOOTH",
"142 530 OFFCURVE",
"70 438 OFFCURVE",
"70 327 CURVE SMOOTH",
"70 214 OFFCURVE",
"142 124 OFFCURVE",
"273 124 CURVE SMOOTH",
"406 124 OFFCURVE",
"476 214 OFFCURVE",
"476 327 CURVE SMOOTH",
"476 438 OFFCURVE"
);
}
);
width = 541;
}
);
unicode = 2022;
},
{
glyphname = asterisk;
layers = (
{
layerId = master01;
paths = (
{
closed = 1;
nodes = (
"141 670 OFFCURVE",
"82 576 CURVE SMOOTH",
"27 487 OFFCURVE",
"160 443 OFFCURVE",
"160 443 CURVE",
"71 377 OFFCURVE",
"138 310 OFFCURVE",
"138 310 CURVE",
"227 232 OFFCURVE",
"281 336 OFFCURVE",
"281 336 CURVE SMOOTH",
"281 336 OFFCURVE",
"323 212 OFFCURVE",
"415 266 CURVE SMOOTH",
"504 319 OFFCURVE",
"425 409 OFFCURVE",
"425 409 CURVE SMOOTH",
"425 409 OFFCURVE",
"547 377 OFFCURVE",
"547 498 CURVE SMOOTH",
"547 620 OFFCURVE",
"404 576 OFFCURVE",
"404 576 CURVE",
"448 709 OFFCURVE",
"326 709 OFFCURVE",
"326 709 CURVE SMOOTH",
"217 709 OFFCURVE",
"244 590 OFFCURVE",
"244 590 CURVE SMOOTH",
"244 590 OFFCURVE"
);
}
);
width = 625;
}
);
unicode = 002A;
},
{
glyphname = numbersign;
layers = (
{
layerId = master01;
paths = (
{
closed = 1;
nodes = (
"723 462 OFFCURVE",
"723 462 CURVE SMOOTH",
"723 462 OFFCURVE",
"728 525 OFFCURVE",
"651 537 CURVE",
"642 538 OFFCURVE",
"633 539 OFFCURVE",
"624 540 CURVE",
"626 557 OFFCURVE",
"628 574 OFFCURVE",
"629 591 CURVE SMOOTH",
"636 670 OFFCURVE",
"564 671 OFFCURVE",
"564 671 CURVE SMOOTH",
"564 671 OFFCURVE",
"503 687 OFFCURVE",
"478 613 CURVE SMOOTH",
"471 594 OFFCURVE",
"465 573 OFFCURVE",
"459 552 CURVE",
"433 552 OFFCURVE",
"407 553 OFFCURVE",
"381 553 CURVE",
"382 565 OFFCURVE",
"384 578 OFFCURVE",
"385 591 CURVE SMOOTH",
"392 670 OFFCURVE",
"320 671 OFFCURVE",
"320 671 CURVE SMOOTH",
"320 671 OFFCURVE",
"258 687 OFFCURVE",
"234 613 CURVE",
"226 591 OFFCURVE",
"219 568 OFFCURVE",
"213 544 CURVE",
"190 541 OFFCURVE",
"170 538 OFFCURVE",
"153 535 CURVE SMOOTH",
"84 521 OFFCURVE",
"87 457 OFFCURVE",
"87 457 CURVE SMOOTH",
"87 457 OFFCURVE",
"91 392 OFFCURVE",
"164 387 CURVE",
"164 387 OFFCURVE",
"169 386 OFFCURVE",
"177 386 CURVE",
"173 369 OFFCURVE",
"170 352 OFFCURVE",
"168 335 CURVE",
"144 333 OFFCURVE",
"123 330 OFFCURVE",
"106 326 CURVE SMOOTH",
"36 312 OFFCURVE",
"39 248 OFFCURVE",
"39 248 CURVE SMOOTH",
"39 248 OFFCURVE",
"44 183 OFFCURVE",
"117 178 CURVE",
"117 178 OFFCURVE",
"128 177 OFFCURVE",
"148 175 CURVE",
"147 156 OFFCURVE",
"147 138 OFFCURVE",
"147 123 CURVE SMOOTH",
"149 53 OFFCURVE",
"212 44 OFFCURVE",
"212 44 CURVE SMOOTH",
"212 44 OFFCURVE",
"277 37 OFFCURVE",
"295 108 CURVE",
"295 108 OFFCURVE",
"301 130 OFFCURVE",
"310 168 CURVE",
"336 167 OFFCURVE",
"364 167 OFFCURVE",
"392 167 CURVE",
"391 151 OFFCURVE",
"391 136 OFFCURVE",
"392 123 CURVE",
"393 53 OFFCURVE",
"456 44 OFFCURVE",
"456 44 CURVE SMOOTH",
"456 44 OFFCURVE",
"521 37 OFFCURVE",
"539 108 CURVE",
"539 108 OFFCURVE",
"546 132 OFFCURVE",
"556 171 CURVE",
"573 172 OFFCURVE",
"591 174 OFFCURVE",
"608 175 CURVE SMOOTH",
"687 182 OFFCURVE",
"675 253 OFFCURVE",
"675 253 CURVE SMOOTH",
"675 253 OFFCURVE",
"680 317 OFFCURVE",
"603 328 CURVE",
"599 328 OFFCURVE",
"595 329 OFFCURVE",
"590 330 CURVE",
"594 346 OFFCURVE",
"597 363 OFFCURVE",
"600 380 CURVE",
"619 381 OFFCURVE",
"637 382 OFFCURVE",
"656 384 CURVE SMOOTH",
"735 391 OFFCURVE"
);
},
{
closed = 1;
nodes = (
"353 365 OFFCURVE",
"355 377 CURVE",
"375 376 OFFCURVE",
"397 376 OFFCURVE",
"419 375 CURVE",
"417 365 OFFCURVE",
"415 354 OFFCURVE",
"413 343 CURVE",
"392 343 OFFCURVE",
"370 344 OFFCURVE",
"349 344 CURVE",
"351 354 OFFCURVE"
);
}
);
width = 759;
}
);
unicode = 0023;
},
{
glyphname = slash;
layers = (
{
layerId = master01;
paths = (
{
closed = 1;
nodes = (
"355 392 OFFCURVE",
"399 668 CURVE SMOOTH",
"414 765 OFFCURVE",
"349 769 OFFCURVE",
"349 769 CURVE SMOOTH",
"349 769 OFFCURVE",
"274 795 OFFCURVE",
"237 707 CURVE SMOOTH",
"190 595 OFFCURVE",
"54 202 OFFCURVE",
"38 60 CURVE SMOOTH",
"29 -23 OFFCURVE",
"92 -35 OFFCURVE",
"92 -35 CURVE SMOOTH",
"92 -35 OFFCURVE",
"153 -55 OFFCURVE",
"187 16 CURVE",
"187 16 OFFCURVE"
);
}
);
width = 429;
}
);
unicode = 002F;
},
{
glyphname = backslash;
layers = (
{
layerId = master01;
paths = (
{
closed = 1;
nodes = (
"437 -21 OFFCURVE",
"428 62 CURVE SMOOTH",
"412 204 OFFCURVE",
"276 597 OFFCURVE",
"229 709 CURVE SMOOTH",
"192 797 OFFCURVE",
"117 771 OFFCURVE",
"117 771 CURVE SMOOTH",
"117 771 OFFCURVE",
"52 767 OFFCURVE",
"67 670 CURVE SMOOTH",
"111 394 OFFCURVE",
"279 18 OFFCURVE",
"279 18 CURVE",
"313 -53 OFFCURVE",
"374 -33 OFFCURVE",
"374 -33 CURVE SMOOTH",
"374 -33 OFFCURVE"
);
}
);
width = 495;
}
);
unicode = 005C;
},
{
glyphname = parenleft;
layers = (
{
layerId = master01;
paths = (
{
closed = 1;
nodes = (
"-65 428 OFFCURVE",
"109 64 CURVE SMOOTH",
"140 -1 OFFCURVE",
"224 -107 OFFCURVE",
"329 -65 CURVE SMOOTH",
"436 -22 OFFCURVE",
"394 71 OFFCURVE",
"394 71 CURVE SMOOTH",
"394 71 OFFCURVE",
"264 330 OFFCURVE",
"381 660 CURVE",
"381 660 OFFCURVE",
"420 761 OFFCURVE",
"323 804 CURVE SMOOTH",
"243 839 OFFCURVE",
"182 804 OFFCURVE",
"146 746 CURVE",
"146 746 OFFCURVE"
);
}
);
width = 444;
}
);
unicode = 0028;
},
{
glyphname = parenright;
layers = (
{
layerId = master01;
paths = (
{
closed = 1;
nodes = (
"511 315 OFFCURVE",
"337 679 CURVE SMOOTH",
"306 744 OFFCURVE",
"222 850 OFFCURVE",
"117 808 CURVE SMOOTH",
"10 765 OFFCURVE",
"52 672 OFFCURVE",
"52 672 CURVE SMOOTH",
"52 672 OFFCURVE",
"182 413 OFFCURVE",
"65 83 CURVE",
"65 83 OFFCURVE",
"26 -18 OFFCURVE",
"123 -61 CURVE SMOOTH",
"203 -96 OFFCURVE",
"264 -61 OFFCURVE",
"300 -3 CURVE",
"300 -3 OFFCURVE"
);
}
);
width = 447;
}
);
unicode = 0029;
},
{
glyphname = braceleft;
layers = (
{
layerId = master01;
paths = (
{
closed = 1;
nodes = (
"361 72 OFFCURVE",
"419 195 CURVE SMOOTH",
"459 280 OFFCURVE",
"393 333 OFFCURVE",
"377 344 CURVE",
"393 355 OFFCURVE",
"459 407 OFFCURVE",
"419 493 CURVE SMOOTH",
"361 615 OFFCURVE",
"433 630 OFFCURVE",
"433 630 CURVE",
"505 644 OFFCURVE",
"477 716 OFFCURVE",
"477 716 CURVE",
"462 766 OFFCURVE",
"373 777 OFFCURVE",
"373 777 CURVE",
"266 786 OFFCURVE",
"231 732 OFFCURVE",
"231 732 CURVE",
"177 663 OFFCURVE",
"223 560 OFFCURVE",
"223 560 CURVE SMOOTH",
"223 560 OFFCURVE",
"261 471 OFFCURVE",
"198 460 CURVE",
"198 460 OFFCURVE",
"108 458 OFFCURVE",
"106 346 CURVE",
"106 346 LINE",
"106 345 OFFCURVE",
"106 344 OFFCURVE",
"106 344 CURVE",
"106 343 OFFCURVE",
"106 342 OFFCURVE",
"106 342 CURVE SMOOTH",
"106 342 LINE",
"108 230 OFFCURVE",
"198 227 OFFCURVE",
"198 227 CURVE",
"261 216 OFFCURVE",
"223 127 OFFCURVE",
"223 127 CURVE SMOOTH",
"223 127 OFFCURVE",
"177 25 OFFCURVE",
"231 -45 CURVE",
"231 -45 OFFCURVE",
"266 -98 OFFCURVE",
"373 -89 CURVE",
"373 -89 OFFCURVE",
"462 -79 OFFCURVE",
"477 -29 CURVE",
"477 -29 OFFCURVE",
"505 43 OFFCURVE",
"433 58 CURVE",
"433 58 OFFCURVE"
);
}
);
width = 568;
}
);
unicode = 007B;
},
{
glyphname = braceright;
layers = (
{
layerId = master01;
paths = (
{
closed = 1;
nodes = (
"80 -20 OFFCURVE",
"80 -20 CURVE",
"94 -70 OFFCURVE",
"183 -81 OFFCURVE",
"183 -81 CURVE",
"290 -90 OFFCURVE",
"326 -36 OFFCURVE",
"326 -36 CURVE",
"379 33 OFFCURVE",
"333 136 OFFCURVE",
"333 136 CURVE SMOOTH",
"333 136 OFFCURVE",
"296 225 OFFCURVE",
"358 236 CURVE",
"358 236 OFFCURVE",
"449 239 OFFCURVE",
"451 350 CURVE",
"451 350 LINE",
"451 351 OFFCURVE",
"451 352 OFFCURVE",
"451 352 CURVE",
"451 353 OFFCURVE",
"451 354 OFFCURVE",
"451 354 CURVE SMOOTH",
"451 354 LINE",
"449 466 OFFCURVE",
"358 469 OFFCURVE",
"358 469 CURVE",
"296 480 OFFCURVE",
"333 569 OFFCURVE",
"333 569 CURVE SMOOTH",
"333 569 OFFCURVE",
"379 672 OFFCURVE",
"326 741 CURVE",
"326 741 OFFCURVE",
"290 794 OFFCURVE",
"183 786 CURVE",
"183 786 OFFCURVE",
"94 775 OFFCURVE",
"80 725 CURVE",
"80 725 OFFCURVE",
"51 653 OFFCURVE",
"123 638 CURVE",
"123 638 OFFCURVE",
"195 624 OFFCURVE",
"137 501 CURVE SMOOTH",
"97 416 OFFCURVE",
"164 363 OFFCURVE",
"180 352 CURVE",
"164 341 OFFCURVE",
"97 289 OFFCURVE",
"137 203 CURVE SMOOTH",
"195 81 OFFCURVE",
"123 67 OFFCURVE",
"123 67 CURVE",
"51 52 OFFCURVE"
);
}
);
width = 517;
}
);
unicode = 007D;
},
{
glyphname = bracketleft;
layers = (
{
layerId = master01;
paths = (
{
closed = 1;
nodes = (
"387 27 OFFCURVE",
"327 22 CURVE",
"332 97 OFFCURVE",
"346 472 OFFCURVE",
"332 657 CURVE",
"330 675 OFFCURVE",
"330 696 OFFCURVE",
"327 711 CURVE",
"388 715 OFFCURVE",
"464 718 OFFCURVE",
"509 725 CURVE SMOOTH",
"599 739 OFFCURVE",
"594 798 OFFCURVE",
"594 798 CURVE SMOOTH",
"594 798 OFFCURVE",
"601 850 OFFCURVE",
"515 868 CURVE SMOOTH",
"415 889 OFFCURVE",
"263 884 OFFCURVE",
"178 857 CURVE SMOOTH",
"149 848 OFFCURVE",
"104 816 OFFCURVE",
"96 797 CURVE",
"57 738 OFFCURVE",
"64 666 OFFCURVE",
"64 666 CURVE SMOOTH",
"64 666 OFFCURVE",
"52 196 OFFCURVE",
"69 75 CURVE",
"69 75 OFFCURVE",
"73 -109 OFFCURVE",
"224 -142 CURVE SMOOTH",
"279 -154 OFFCURVE",
"379 -162 OFFCURVE",
"499 -139 CURVE SMOOTH",
"592 -121 OFFCURVE",
"586 -51 OFFCURVE",
"586 -51 CURVE SMOOTH",
"586 -51 OFFCURVE",
"594 15 OFFCURVE",
"500 22 CURVE SMOOTH",
"471 24 OFFCURVE"
);
}
);
width = 617;
}
);
unicode = 005B;
},
{
glyphname = bracketright;
layers = (
{
layerId = master01;
paths = (
{
closed = 1;
nodes = (
"218 715 OFFCURVE",
"278 720 CURVE",
"273 645 OFFCURVE",
"259 270 OFFCURVE",
"273 85 CURVE",
"275 67 OFFCURVE",
"275 46 OFFCURVE",
"278 31 CURVE",
"217 27 OFFCURVE",
"141 24 OFFCURVE",
"96 17 CURVE SMOOTH",
"6 3 OFFCURVE",
"11 -56 OFFCURVE",
"11 -56 CURVE SMOOTH",
"11 -56 OFFCURVE",
"4 -108 OFFCURVE",
"90 -126 CURVE SMOOTH",
"190 -147 OFFCURVE",
"342 -142 OFFCURVE",
"427 -115 CURVE SMOOTH",
"456 -106 OFFCURVE",
"501 -74 OFFCURVE",
"509 -55 CURVE",
"548 4 OFFCURVE",
"541 76 OFFCURVE",
"541 76 CURVE SMOOTH",
"541 76 OFFCURVE",
"553 546 OFFCURVE",
"536 667 CURVE",
"536 667 OFFCURVE",
"532 851 OFFCURVE",
"381 884 CURVE SMOOTH",
"326 896 OFFCURVE",
"226 904 OFFCURVE",
"106 881 CURVE SMOOTH",
"13 863 OFFCURVE",
"19 793 OFFCURVE",
"19 793 CURVE SMOOTH",
"19 793 OFFCURVE",
"11 727 OFFCURVE",
"105 720 CURVE SMOOTH",
"134 718 OFFCURVE"
);
}
);
width = 582;
}
);
unicode = 005D;
},
{
glyphname = hyphen;
layers = (
{
layerId = master01;
paths = (
{
closed = 1;
nodes = (
"274 432 OFFCURVE",
"140 402 CURVE SMOOTH",
"35 378 OFFCURVE",
"48 286 OFFCURVE",
"48 286 CURVE SMOOTH",
"48 286 OFFCURVE",
"47 198 OFFCURVE",
"141 183 CURVE SMOOTH",
"236 168 OFFCURVE",
"315 165 OFFCURVE",
"414 192 CURVE SMOOTH",
"500 216 OFFCURVE",
"486 302 OFFCURVE",
"486 302 CURVE SMOOTH",
"486 302 OFFCURVE",
"486 380 OFFCURVE",
"395 404 CURVE",
"395 404 OFFCURVE"
);
}
);
width = 526;
}
);
unicode = 002D;
},
{
glyphname = endash;
layers = (
{
layerId = master01;
paths = (
{
closed = 1;
nodes = (
"286 432 OFFCURVE",
"152 402 CURVE SMOOTH",
"47 378 OFFCURVE",
"60 286 OFFCURVE",
"60 286 CURVE SMOOTH",
"60 286 OFFCURVE",
"59 198 OFFCURVE",
"153 183 CURVE SMOOTH",
"248 168 OFFCURVE",
"329 168 OFFCURVE",
"426 200 CURVE SMOOTH",
"511 228 OFFCURVE",
"498 307 OFFCURVE",
"498 307 CURVE SMOOTH",
"498 307 OFFCURVE",
"498 385 OFFCURVE",
"407 409 CURVE",
"407 409 OFFCURVE"
);
}
);
width = 579;
}
);
unicode = 2013;
},
{
glyphname = emdash;
layers = (
{
layerId = master01;
paths = (
{
closed = 1;
nodes = (
"319 442 OFFCURVE",
"152 402 CURVE SMOOTH",
"47 377 OFFCURVE",
"60 286 OFFCURVE",
"60 286 CURVE SMOOTH",
"60 286 OFFCURVE",
"61 202 OFFCURVE",
"153 183 CURVE SMOOTH",
"272 158 OFFCURVE",
"450 162 OFFCURVE",
"547 194 CURVE SMOOTH",
"632 222 OFFCURVE",
"622 307 OFFCURVE",
"622 307 CURVE SMOOTH",
"622 307 OFFCURVE",
"622 390 OFFCURVE",
"531 409 CURVE",
"531 409 OFFCURVE"
);
}
);
width = 833;
}
);
unicode = 2014;
},
{
glyphname = underscore;
layers = (
{
layerId = master01;
paths = (
{
closed = 1;
nodes = (
"348 175 OFFCURVE",
"156 148 CURVE SMOOTH",
"51 133 OFFCURVE",
"61 56 OFFCURVE",
"61 56 CURVE SMOOTH",
"61 56 OFFCURVE",
"60 -16 OFFCURVE",
"153 -24 CURVE SMOOTH",
"285 -35 OFFCURVE",
"476 -34 OFFCURVE",
"576 -17 CURVE SMOOTH",
"656 -3 OFFCURVE",
"647 69 OFFCURVE",
"647 69 CURVE SMOOTH",
"647 69 OFFCURVE",
"650 138 OFFCURVE",
"557 148 CURVE",
"557 148 OFFCURVE"
);
}
);
width = 686;
}
);
unicode = 005F;
},
{
glyphname = quotesinglbase;
layers = (
{
layerId = master01;
paths = (
{
closed = 1;
nodes = (
"211 203 OFFCURVE",
"143 203 CURVE SMOOTH",
"75 203 OFFCURVE",
"38 156 OFFCURVE",
"38 98 CURVE SMOOTH",
"38 41 OFFCURVE",
"72 -4 OFFCURVE",
"135 -8 CURVE",
"136 -20 OFFCURVE",
"139 -35 OFFCURVE",
"122 -35 CURVE SMOOTH",
"122 -35 OFFCURVE",
"106 -35 OFFCURVE",
"101 -51 CURVE",
"101 -51 OFFCURVE",
"91 -78 OFFCURVE",
"122 -82 CURVE",
"122 -82 OFFCURVE",
"260 -109 OFFCURVE",
"250 103 CURVE SMOOTH",
"247 158 OFFCURVE"
);
}
);
width = 296;
}
);
unicode = 201A;
},
{
glyphname = quotedblbase;
layers = (
{
layerId = master01;
paths = (
{
closed = 1;
nodes = (
"216 199 OFFCURVE",
"148 199 CURVE SMOOTH",
"80 199 OFFCURVE",
"43 152 OFFCURVE",
"43 94 CURVE SMOOTH",
"43 37 OFFCURVE",
"77 -8 OFFCURVE",
"140 -12 CURVE",
"141 -24 OFFCURVE",
"144 -39 OFFCURVE",
"127 -39 CURVE SMOOTH",
"127 -39 OFFCURVE",
"111 -39 OFFCURVE",
"106 -55 CURVE",
"106 -55 OFFCURVE",
"96 -82 OFFCURVE",
"127 -86 CURVE",
"127 -86 OFFCURVE",
"265 -113 OFFCURVE",
"255 99 CURVE SMOOTH",
"252 154 OFFCURVE"
);
},
{
closed = 1;
nodes = (
"461 199 OFFCURVE",
"393 199 CURVE SMOOTH",
"325 199 OFFCURVE",
"288 152 OFFCURVE",
"288 94 CURVE SMOOTH",
"288 37 OFFCURVE",
"322 -8 OFFCURVE",
"385 -12 CURVE",
"386 -24 OFFCURVE",
"389 -39 OFFCURVE",
"372 -39 CURVE SMOOTH",
"372 -39 OFFCURVE",
"356 -39 OFFCURVE",
"351 -55 CURVE",
"351 -55 OFFCURVE",
"341 -82 OFFCURVE",
"372 -86 CURVE",
"372 -86 OFFCURVE",
"510 -113 OFFCURVE",
"500 99 CURVE SMOOTH",
"497 154 OFFCURVE"
);
}
);
width = 544;
}
);
unicode = 201E;
},
{
glyphname = quotedblleft;
layers = (
{
layerId = master01;
paths = (
{
closed = 1;
nodes = (
"319 424 OFFCURVE",
"387 424 CURVE SMOOTH",
"455 424 OFFCURVE",
"492 471 OFFCURVE",
"492 529 CURVE SMOOTH",
"492 586 OFFCURVE",
"458 631 OFFCURVE",
"395 635 CURVE",
"394 647 OFFCURVE",
"391 662 OFFCURVE",
"408 662 CURVE",
"408 662 OFFCURVE",
"424 662 OFFCURVE",
"429 678 CURVE",
"429 678 OFFCURVE",
"439 705 OFFCURVE",
"408 709 CURVE",
"408 709 OFFCURVE",
"270 736 OFFCURVE",
"280 524 CURVE SMOOTH",
"283 469 OFFCURVE"
);
},
{
closed = 1;
nodes = (
"74 424 OFFCURVE",
"142 424 CURVE SMOOTH",
"210 424 OFFCURVE",
"247 471 OFFCURVE",
"247 529 CURVE SMOOTH",
"247 586 OFFCURVE",
"213 631 OFFCURVE",
"150 635 CURVE",
"149 647 OFFCURVE",
"146 662 OFFCURVE",
"163 662 CURVE",
"163 662 OFFCURVE",
"179 662 OFFCURVE",
"184 678 CURVE",
"184 678 OFFCURVE",
"194 705 OFFCURVE",
"163 709 CURVE",
"163 709 OFFCURVE",
"25 736 OFFCURVE",
"35 524 CURVE SMOOTH",
"38 469 OFFCURVE"
);
}
);
width = 541;
}
);
unicode = 201C;
},
{
glyphname = quotedblright;
layers = (
{
layerId = master01;
paths = (
{
closed = 1;
nodes = (
"216 723 OFFCURVE",
"148 723 CURVE SMOOTH",
"80 723 OFFCURVE",
"43 676 OFFCURVE",
"43 618 CURVE SMOOTH",
"43 561 OFFCURVE",
"77 516 OFFCURVE",
"140 512 CURVE",
"141 500 OFFCURVE",
"144 485 OFFCURVE",
"127 485 CURVE SMOOTH",
"127 485 OFFCURVE",
"111 485 OFFCURVE",
"106 469 CURVE",
"106 469 OFFCURVE",
"96 442 OFFCURVE",
"127 438 CURVE",
"127 438 OFFCURVE",
"265 411 OFFCURVE",
"255 623 CURVE SMOOTH",
"252 678 OFFCURVE"
);
},
{
closed = 1;
nodes = (
"461 723 OFFCURVE",
"393 723 CURVE SMOOTH",
"325 723 OFFCURVE",
"288 676 OFFCURVE",
"288 618 CURVE SMOOTH",
"288 561 OFFCURVE",
"322 516 OFFCURVE",
"385 512 CURVE",
"386 500 OFFCURVE",
"389 485 OFFCURVE",
"372 485 CURVE SMOOTH",
"372 485 OFFCURVE",
"356 485 OFFCURVE",
"351 469 CURVE",
"351 469 OFFCURVE",
"341 442 OFFCURVE",
"372 438 CURVE",
"372 438 OFFCURVE",
"510 411 OFFCURVE",
"500 623 CURVE SMOOTH",
"497 678 OFFCURVE"
);
}
);
width = 550;
}
);
unicode = 201D;
},
{
glyphname = quoteleft;
layers = (
{
layerId = master01;
paths = (
{
closed = 1;
nodes = (
"74 424 OFFCURVE",
"142 424 CURVE SMOOTH",
"210 424 OFFCURVE",
"247 471 OFFCURVE",
"247 529 CURVE SMOOTH",
"247 586 OFFCURVE",
"213 631 OFFCURVE",
"150 635 CURVE",
"149 647 OFFCURVE",
"146 662 OFFCURVE",
"163 662 CURVE",
"163 662 OFFCURVE",
"179 662 OFFCURVE",
"184 678 CURVE",
"184 678 OFFCURVE",
"194 705 OFFCURVE",
"163 709 CURVE",
"163 709 OFFCURVE",
"25 736 OFFCURVE",
"35 524 CURVE SMOOTH",
"38 469 OFFCURVE"
);
}
);
width = 285;
}
);
unicode = 2018;
},
{
glyphname = quoteright;
layers = (
{
layerId = master01;
paths = (
{
closed = 1;
nodes = (
"211 723 OFFCURVE",
"143 723 CURVE SMOOTH",
"75 723 OFFCURVE",
"38 676 OFFCURVE",
"38 618 CURVE SMOOTH",
"38 561 OFFCURVE",
"72 516 OFFCURVE",
"135 512 CURVE",
"136 500 OFFCURVE",
"139 485 OFFCURVE",
"122 485 CURVE SMOOTH",
"122 485 OFFCURVE",
"106 485 OFFCURVE",
"101 469 CURVE",
"101 469 OFFCURVE",
"91 442 OFFCURVE",
"122 438 CURVE",
"122 438 OFFCURVE",
"260 411 OFFCURVE",
"250 623 CURVE SMOOTH",
"247 678 OFFCURVE"
);
}
);
width = 296;
}
);
unicode = 2019;
},
{
glyphname = guilsinglleft;
layers = (
{
layerId = master01;
paths = (
{
closed = 1;
nodes = (
"360 -14 OFFCURVE",
"394 26 CURVE SMOOTH",
"467 112 OFFCURVE",
"394 173 OFFCURVE",
"394 173 CURVE SMOOTH",
"394 173 OFFCURVE",
"344 214 OFFCURVE",
"286 271 CURVE",
"329 317 OFFCURVE",
"366 346 OFFCURVE",
"366 346 CURVE",
"415 382 OFFCURVE",
"435 437 OFFCURVE",
"399 494 CURVE SMOOTH",
"365 548 OFFCURVE",
"287 561 OFFCURVE",
"243 530 CURVE",
"239 528 OFFCURVE",
"34 395 OFFCURVE",
"34 269 CURVE SMOOTH",
"34 139 OFFCURVE",
"239 15 OFFCURVE",
"243 11 CURVE",
"284 -22 OFFCURVE"
);
}
);
width = 450;
}
);
unicode = 2039;
},
{
glyphname = guilsinglright;
layers = (
{
layerId = master01;
paths = (
{
closed = 1;
nodes = (
"107 549 OFFCURVE",
"73 509 CURVE SMOOTH",
"0 423 OFFCURVE",
"73 362 OFFCURVE",
"73 362 CURVE SMOOTH",
"73 362 OFFCURVE",
"123 321 OFFCURVE",
"181 264 CURVE",
"138 218 OFFCURVE",
"101 189 OFFCURVE",
"101 189 CURVE",
"52 153 OFFCURVE",
"32 98 OFFCURVE",
"68 41 CURVE SMOOTH",
"102 -13 OFFCURVE",
"180 -26 OFFCURVE",
"224 5 CURVE",
"228 7 OFFCURVE",
"433 140 OFFCURVE",
"433 266 CURVE SMOOTH",
"433 396 OFFCURVE",
"228 520 OFFCURVE",
"224 524 CURVE",
"183 557 OFFCURVE"
);
}
);
width = 471;
}
);
unicode = 203A;
},
{
glyphname = quotedbl;
layers = (
{
layerId = master01;
paths = (
{
closed = 1;
nodes = (
"168 754 OFFCURVE",
"143 765 CURVE",
"114 775 OFFCURVE",
"61 777 OFFCURVE",
"42 714 CURVE SMOOTH",
"20 643 OFFCURVE",
"49 539 OFFCURVE",
"49 539 CURVE SMOOTH",
"49 539 OFFCURVE",
"59 482 OFFCURVE",
"107 479 CURVE SMOOTH",
"152 477 OFFCURVE",
"173 524 OFFCURVE",
"173 524 CURVE",
"189 555 OFFCURVE",
"205 633 OFFCURVE",
"201 678 CURVE SMOOTH",
"195 741 OFFCURVE"
);
},
{
closed = 1;
nodes = (
"371 754 OFFCURVE",
"346 765 CURVE",
"317 775 OFFCURVE",
"264 777 OFFCURVE",
"245 714 CURVE SMOOTH",
"223 643 OFFCURVE",
"252 539 OFFCURVE",
"252 539 CURVE SMOOTH",
"252 539 OFFCURVE",
"262 482 OFFCURVE",
"310 479 CURVE SMOOTH",
"355 477 OFFCURVE",
"376 524 OFFCURVE",
"376 524 CURVE",
"392 555 OFFCURVE",
"408 633 OFFCURVE",
"404 678 CURVE SMOOTH",
"398 741 OFFCURVE"
);
}
);
width = 448;
}
);
unicode = 0022;
},
{
glyphname = quotesingle;
layers = (
{
layerId = master01;
paths = (
{
closed = 1;
nodes = (
"165 754 OFFCURVE",
"140 765 CURVE",
"111 775 OFFCURVE",
"58 777 OFFCURVE",
"39 714 CURVE SMOOTH",
"17 643 OFFCURVE",
"46 539 OFFCURVE",
"46 539 CURVE SMOOTH",
"46 539 OFFCURVE",
"56 482 OFFCURVE",
"104 479 CURVE SMOOTH",
"149 477 OFFCURVE",
"170 524 OFFCURVE",
"170 524 CURVE",
"186 555 OFFCURVE",
"202 633 OFFCURVE",
"198 678 CURVE SMOOTH",
"192 741 OFFCURVE"
);
}
);
width = 224;
}
);
unicode = 0027;
},
{
glyphname = Euro;
layers = (
{
layerId = master01;
paths = (
{
closed = 1;
nodes = (
"22 532 OFFCURVE",
"22 445 CURVE SMOOTH",
"22 359 OFFCURVE",
"130 381 OFFCURVE",
"130 381 CURVE",
"123 359 OFFCURVE",
"130 330 OFFCURVE",
"130 330 CURVE SMOOTH",
"130 330 OFFCURVE",
"22 352 OFFCURVE",
"22 265 CURVE SMOOTH",
"22 172 OFFCURVE",
"137 201 OFFCURVE",
"137 201 CURVE",
"177 36 OFFCURVE",
"298 -15 OFFCURVE",
"467 -9 CURVE SMOOTH",
"625 -3 OFFCURVE",
"707 104 OFFCURVE",
"663 193 CURVE SMOOTH",
"635 250 OFFCURVE",
"553 229 OFFCURVE",
"519 215 CURVE SMOOTH",
"447 186 OFFCURVE",
"439 237 OFFCURVE",
"439 237 CURVE SMOOTH",
"439 237 OFFCURVE",
"557 237 OFFCURVE",
"547 301 CURVE SMOOTH",
"540 352 OFFCURVE",
"418 337 OFFCURVE",
"418 337 CURVE",
"411 352 OFFCURVE",
"418 366 OFFCURVE",
"418 366 CURVE SMOOTH",
"418 366 OFFCURVE",
"540 344 OFFCURVE",
"547 402 CURVE SMOOTH",
"555 460 OFFCURVE",
"439 460 OFFCURVE",
"439 460 CURVE SMOOTH",
"439 460 OFFCURVE",
"437 511 OFFCURVE",
"547 481 CURVE SMOOTH",
"668 448 OFFCURVE",
"678 553 OFFCURVE",
"678 553 CURVE",
"704 706 OFFCURVE",
"432 712 OFFCURVE",
"432 712 CURVE SMOOTH",
"180 712 OFFCURVE",
"138 504 OFFCURVE",
"138 504 CURVE SMOOTH",
"138 504 OFFCURVE"
);
}
);
width = 697;
}
);
unicode = 20AC;
},
{
glyphname = cent;
layers = (
{
layerId = master01;
paths = (
{
closed = 1;
nodes = (
"367 361 OFFCURVE",
"367 361 CURVE",
"300 335 OFFCURVE",
"300 382 OFFCURVE",
"300 382 CURVE",
"300 430 OFFCURVE",
"366 409 OFFCURVE",
"366 409 CURVE",
"474 389 OFFCURVE",
"501 464 OFFCURVE",
"501 464 CURVE",
"527 538 OFFCURVE",
"480 578 OFFCURVE",
"480 578 CURVE",
"446 610 OFFCURVE",
"407 626 OFFCURVE",
"369 634 CURVE",
"369 643 OFFCURVE",
"368 653 OFFCURVE",
"368 663 CURVE",
"365 750 OFFCURVE",
"302 750 OFFCURVE",
"302 750 CURVE SMOOTH",
"302 750 OFFCURVE",
"243 754 OFFCURVE",
"235 665 CURVE SMOOTH",
"234 655 OFFCURVE",
"234 643 OFFCURVE",
"233 631 CURVE",
"218 628 OFFCURVE",
"210 625 OFFCURVE",
"210 625 CURVE",
"34 572 OFFCURVE",
"41 381 OFFCURVE",
"41 381 CURVE",
"41 208 OFFCURVE",
"161 155 OFFCURVE",
"161 155 CURVE",
"185 144 OFFCURVE",
"209 136 OFFCURVE",
"230 130 CURVE",
"231 116 OFFCURVE",
"231 102 OFFCURVE",
"232 87 CURVE SMOOTH",
"236 0 OFFCURVE",
"299 0 OFFCURVE",
"299 0 CURVE SMOOTH",
"299 0 OFFCURVE",
"357 -4 OFFCURVE",
"365 85 CURVE",
"367 97 OFFCURVE",
"367 111 OFFCURVE",
"368 127 CURVE",
"430 139 OFFCURVE",
"467 166 OFFCURVE",
"467 166 CURVE",
"561 234 OFFCURVE",
"514 314 OFFCURVE",
"514 314 CURVE",
"460 403 OFFCURVE"
);
}
);
width = 555;
}
);
unicode = 00A2;
},
{
glyphname = dollar;
layers = (
{
layerId = master01;
paths = (
{
closed = 1;
nodes = (
"371 426 OFFCURVE",
"371 429 CURVE",
"432 431 OFFCURVE",
"528 447 OFFCURVE",
"528 527 CURVE SMOOTH",
"528 571 OFFCURVE",
"502 627 OFFCURVE",
"368 642 CURVE",
"368 660 OFFCURVE",
"367 678 OFFCURVE",
"366 697 CURVE SMOOTH",
"362 790 OFFCURVE",
"295 790 OFFCURVE",
"295 790 CURVE SMOOTH",
"295 790 OFFCURVE",
"233 794 OFFCURVE",
"224 699 CURVE",
"223 682 OFFCURVE",
"222 661 OFFCURVE",
"220 636 CURVE",
"153 621 OFFCURVE",
"72 582 OFFCURVE",
"67 482 CURVE",
"67 482 OFFCURVE",
"55 355 OFFCURVE",
"209 314 CURVE",
"209 314 OFFCURVE",
"38 339 OFFCURVE",
"38 217 CURVE",
"38 217 OFFCURVE",
"22 108 OFFCURVE",
"214 78 CURVE",
"215 60 OFFCURVE",
"215 41 OFFCURVE",
"216 23 CURVE SMOOTH",
"219 -58 OFFCURVE",
"285 -48 OFFCURVE",
"285 -48 CURVE SMOOTH",
"285 -48 OFFCURVE",
"343 -54 OFFCURVE",
"353 23 CURVE",
"353 23 OFFCURVE",
"355 41 OFFCURVE",
"358 74 CURVE",
"418 84 OFFCURVE",
"532 121 OFFCURVE",
"532 258 CURVE",
"532 258 OFFCURVE",
"544 379 OFFCURVE",
"371 421 CURVE",
"371 423 OFFCURVE"
);
}
);
width = 584;
}
);
unicode = 0024;
},
{
glyphname = sterling;
layers = (
{
layerId = master01;
paths = (
{
closed = 1;
nodes = (
"143 226 OFFCURVE",
"152 203 CURVE",
"152 203 OFFCURVE",
"27 194 OFFCURVE",
"47 75 CURVE",
"47 75 OFFCURVE",
"75 -63 OFFCURVE",
"201 -8 CURVE SMOOTH",
"298 34 OFFCURVE",
"368 2 OFFCURVE",
"368 2 CURVE SMOOTH",
"368 2 OFFCURVE",
"541 -51 OFFCURVE",
"637 57 CURVE",
"637 57 OFFCURVE",
"703 133 OFFCURVE",
"621 206 CURVE",
"621 206 OFFCURVE",
"582 250 OFFCURVE",
"503 206 CURVE SMOOTH",
"447 175 OFFCURVE",
"373 213 OFFCURVE",
"373 213 CURVE SMOOTH",
"373 213 OFFCURVE",
"358 219 OFFCURVE",
"365 270 CURVE",
"365 270 OFFCURVE",
"440 250 OFFCURVE",
"473 291 CURVE",
"473 291 OFFCURVE",
"514 344 OFFCURVE",
"481 394 CURVE",
"481 394 OFFCURVE",
"460 440 OFFCURVE",
"370 430 CURVE",
"370 430 OFFCURVE",
"363 483 OFFCURVE",
"399 493 CURVE SMOOTH",
"436 503 OFFCURVE",
"451 474 OFFCURVE",
"468 450 CURVE SMOOTH",
"484 427 OFFCURVE",
"536 412 OFFCURVE",
"585 443 CURVE",
"585 443 OFFCURVE",
"662 492 OFFCURVE",
"614 586 CURVE SMOOTH",
"594 624 OFFCURVE",
"558 674 OFFCURVE",
"495 696 CURVE",
"495 696 OFFCURVE",
"267 761 OFFCURVE",
"183 607 CURVE",
"183 607 OFFCURVE",
"146 547 OFFCURVE",
"143 430 CURVE",
"143 430 OFFCURVE",
"67 443 OFFCURVE",
"43 377 CURVE",
"43 377 OFFCURVE",
"22 307 OFFCURVE",
"74 275 CURVE SMOOTH",
"97 261 OFFCURVE",
"118 262 OFFCURVE",
"149 265 CURVE",
"149 265 OFFCURVE"
);
}
);
width = 705;
}
);
unicode = 00A3;
},
{
glyphname = yen;
layers = (
{
layerId = master01;
paths = (
{
closed = 1;
nodes = (
"742 691 OFFCURVE",
"586 710 CURVE",
"586 710 OFFCURVE",
"438 735 OFFCURVE",
"382 531 CURVE",
"382 531 OFFCURVE",
"348 724 OFFCURVE",
"161 715 CURVE",
"161 715 OFFCURVE",
"11 703 OFFCURVE",
"22 531 CURVE SMOOTH",
"32 380 OFFCURVE",
"223 352 OFFCURVE",
"223 352 CURVE SMOOTH",
"223 352 OFFCURVE",
"220 335 OFFCURVE",
"217 307 CURVE",
"189 307 OFFCURVE",
"165 306 OFFCURVE",
"140 306 CURVE SMOOTH",
"82 307 OFFCURVE",
"85 253 OFFCURVE",
"85 253 CURVE SMOOTH",
"85 253 OFFCURVE",
"85 211 OFFCURVE",
"134 208 CURVE SMOOTH",
"157 207 OFFCURVE",
"184 206 OFFCURVE",
"213 205 CURVE",
"213 198 OFFCURVE",
"214 190 OFFCURVE",
"214 182 CURVE",
"187 182 OFFCURVE",
"162 181 OFFCURVE",
"137 180 CURVE SMOOTH",
"81 178 OFFCURVE",
"85 128 OFFCURVE",
"85 128 CURVE SMOOTH",
"85 128 OFFCURVE",
"85 87 OFFCURVE",
"134 84 CURVE SMOOTH",
"163 82 OFFCURVE",
"198 81 OFFCURVE",
"236 80 CURVE",
"243 61 OFFCURVE",
"253 45 OFFCURVE",
"265 31 CURVE",
"265 31 OFFCURVE",
"304 -15 OFFCURVE",
"389 -15 CURVE SMOOTH",
"441 -15 OFFCURVE",
"486 3 OFFCURVE",
"509 44 CURVE",
"509 44 OFFCURVE",
"516 57 OFFCURVE",
"524 80 CURVE",
"579 82 OFFCURVE",
"625 84 OFFCURVE",
"656 87 CURVE SMOOTH",
"695 90 OFFCURVE",
"695 132 OFFCURVE",
"695 132 CURVE SMOOTH",
"695 132 OFFCURVE",
"698 181 OFFCURVE",
"646 181 CURVE SMOOTH",
"646 181 OFFCURVE",
"607 182 OFFCURVE",
"548 183 CURVE",
"549 190 OFFCURVE",
"550 198 OFFCURVE",
"551 206 CURVE",
"594 207 OFFCURVE",
"630 209 OFFCURVE",
"656 211 CURVE SMOOTH",
"695 215 OFFCURVE",
"695 257 OFFCURVE",
"695 257 CURVE SMOOTH",
"695 257 OFFCURVE",
"698 306 OFFCURVE",
"646 306 CURVE SMOOTH",
"646 306 OFFCURVE",
"606 307 OFFCURVE",
"546 308 CURVE",
"543 325 OFFCURVE",
"539 342 OFFCURVE",
"533 359 CURVE",
"533 359 OFFCURVE",
"690 381 OFFCURVE",
"715 529 CURVE",
"715 529 OFFCURVE"
);
}
);
width = 746;
}
);
unicode = 00A5;
},
{
glyphname = plus;
layers = (
{
layerId = master01;
paths = (
{
closed = 1;
nodes = (
"577 438 OFFCURVE",
"490 459 CURVE SMOOTH",
"471 464 OFFCURVE",
"448 468 OFFCURVE",
"422 471 CURVE",
"419 489 OFFCURVE",
"415 508 OFFCURVE",
"411 527 CURVE SMOOTH",
"389 620 OFFCURVE",
"296 613 OFFCURVE",
"296 613 CURVE SMOOTH",
"296 613 OFFCURVE",
"216 613 OFFCURVE",
"195 527 CURVE SMOOTH",
"190 509 OFFCURVE",
"187 488 OFFCURVE",
"184 465 CURVE",
"155 460 OFFCURVE",
"128 454 OFFCURVE",
"109 445 CURVE SMOOTH",
"44 416 OFFCURVE",
"44 344 OFFCURVE",
"44 344 CURVE SMOOTH",
"44 344 OFFCURVE",
"37 243 OFFCURVE",
"130 229 CURVE",
"130 229 OFFCURVE",
"151 224 OFFCURVE",
"189 221 CURVE",
"194 191 OFFCURVE",
"200 165 OFFCURVE",
"209 145 CURVE SMOOTH",
"238 80 OFFCURVE",
"310 80 OFFCURVE",
"310 80 CURVE SMOOTH",
"310 80 OFFCURVE",
"411 73 OFFCURVE",
"425 167 CURVE",
"425 167 OFFCURVE",
"431 190 OFFCURVE",
"434 232 CURVE",
"452 235 OFFCURVE",
"471 239 OFFCURVE",
"490 243 CURVE SMOOTH",
"584 265 OFFCURVE",
"576 358 OFFCURVE",
"576 358 CURVE SMOOTH",
"576 358 OFFCURVE"
);
}
);
width = 618;
}
);
unicode = 002B;
},
{
glyphname = minus;
layers = (
{
layerId = master01;
paths = (
{
closed = 1;
nodes = (
"274 432 OFFCURVE",
"140 402 CURVE SMOOTH",
"35 378 OFFCURVE",
"48 286 OFFCURVE",
"48 286 CURVE SMOOTH",
"48 286 OFFCURVE",
"47 198 OFFCURVE",
"141 183 CURVE SMOOTH",
"236 168 OFFCURVE",
"315 165 OFFCURVE",
"414 192 CURVE SMOOTH",
"500 216 OFFCURVE",
"486 302 OFFCURVE",
"486 302 CURVE SMOOTH",
"486 302 OFFCURVE",
"486 380 OFFCURVE",
"395 404 CURVE",
"395 404 OFFCURVE"
);
}
);
width = 543;
}
);
unicode = 2212;
},
{
glyphname = multiply;
layers = (
{
layerId = master01;
paths = (
{
closed = 1;
nodes = (
"528 233 OFFCURVE",
"481 309 CURVE SMOOTH",
"471 326 OFFCURVE",
"458 345 OFFCURVE",
"442 366 CURVE",
"452 380 OFFCURVE",
"463 397 OFFCURVE",
"473 413 CURVE SMOOTH",
"524 494 OFFCURVE",
"453 555 OFFCURVE",
"453 555 CURVE SMOOTH",
"453 555 OFFCURVE",
"396 612 OFFCURVE",
"321 566 CURVE SMOOTH",
"304 556 OFFCURVE",
"287 544 OFFCURVE",
"269 530 CURVE",
"245 547 OFFCURVE",
"222 561 OFFCURVE",
"202 568 CURVE SMOOTH",
"135 594 OFFCURVE",
"85 543 OFFCURVE",
"85 543 CURVE SMOOTH",
"85 543 OFFCURVE",
"8 477 OFFCURVE",
"64 401 CURVE",
"64 401 OFFCURVE",
"75 382 OFFCURVE",
"100 353 CURVE",
"82 329 OFFCURVE",
"68 306 OFFCURVE",
"60 286 CURVE SMOOTH",
"35 219 OFFCURVE",
"86 168 OFFCURVE",
"86 168 CURVE SMOOTH",
"86 168 OFFCURVE",
"152 92 OFFCURVE",
"229 148 CURVE",
"229 148 OFFCURVE",
"249 160 OFFCURVE",
"281 188 CURVE",
"296 177 OFFCURVE",
"312 167 OFFCURVE",
"328 156 CURVE",
"410 105 OFFCURVE",
"471 177 OFFCURVE",
"471 177 CURVE SMOOTH",
"471 177 OFFCURVE"
);
}
);
width = 536;
}
);
unicode = 00D7;
},
{
glyphname = divide;
layers = (
{
layerId = master01;
paths = (
{
closed = 1;
nodes = (
"342 733 OFFCURVE",
"278 733 CURVE SMOOTH",
"215 733 OFFCURVE",
"180 689 OFFCURVE",
"180 635 CURVE SMOOTH",
"180 580 OFFCURVE",
"215 537 OFFCURVE",
"278 537 CURVE SMOOTH",
"342 537 OFFCURVE",
"376 580 OFFCURVE",
"376 635 CURVE SMOOTH",
"376 689 OFFCURVE"
);
},
{
closed = 1;
nodes = (
"342 216 OFFCURVE",
"278 216 CURVE SMOOTH",
"215 216 OFFCURVE",
"180 172 OFFCURVE",
"180 118 CURVE SMOOTH",
"180 63 OFFCURVE",
"215 20 OFFCURVE",
"278 20 CURVE SMOOTH",
"342 20 OFFCURVE",
"376 63 OFFCURVE",
"376 118 CURVE SMOOTH",
"376 172 OFFCURVE"
);
},
{
closed = 1;
nodes = (
"289 513 OFFCURVE",
"133 483 CURVE SMOOTH",
"11 458 OFFCURVE",
"26 366 OFFCURVE",
"26 366 CURVE SMOOTH",
"26 366 OFFCURVE",
"25 278 OFFCURVE",
"134 263 CURVE SMOOTH",
"245 248 OFFCURVE",
"336 245 OFFCURVE",
"452 272 CURVE SMOOTH",
"552 296 OFFCURVE",
"535 382 OFFCURVE",
"535 382 CURVE SMOOTH",
"535 382 OFFCURVE",
"535 460 OFFCURVE",
"430 485 CURVE",
"430 485 OFFCURVE"
);
}
);
width = 574;
}
);
unicode = 00F7;
},
{
glyphname = equal;
layers = (
{
layerId = master01;
paths = (
{
closed = 1;
nodes = (
"277 572 OFFCURVE",
"144 548 CURVE SMOOTH",
"40 530 OFFCURVE",
"53 458 OFFCURVE",
"53 458 CURVE SMOOTH",
"53 458 OFFCURVE",
"52 390 OFFCURVE",
"145 378 CURVE SMOOTH",
"240 366 OFFCURVE",
"318 364 OFFCURVE",
"417 385 CURVE SMOOTH",
"502 404 OFFCURVE",
"488 471 OFFCURVE",
"488 471 CURVE SMOOTH",
"488 471 OFFCURVE",
"488 531 OFFCURVE",
"398 550 CURVE",
"398 550 OFFCURVE"
);
},
{
closed = 1;
nodes = (
"277 350 OFFCURVE",
"144 326 CURVE SMOOTH",
"40 308 OFFCURVE",
"53 236 OFFCURVE",
"53 236 CURVE SMOOTH",
"53 236 OFFCURVE",
"52 168 OFFCURVE",
"145 156 CURVE SMOOTH",
"240 144 OFFCURVE",
"318 142 OFFCURVE",
"417 163 CURVE SMOOTH",
"502 182 OFFCURVE",
"488 249 OFFCURVE",
"488 249 CURVE SMOOTH",
"488 249 OFFCURVE",
"488 309 OFFCURVE",
"398 328 CURVE",
"398 328 OFFCURVE"
);
}
);
width = 536;
}
);
unicode = 003D;
},
{
glyphname = greater;
layers = (
{
layerId = master01;
paths = (
{
closed = 1;
nodes = (
"107 645 OFFCURVE",
"73 605 CURVE SMOOTH",
"0 519 OFFCURVE",
"73 458 OFFCURVE",
"73 458 CURVE SMOOTH",
"73 458 OFFCURVE",
"123 417 OFFCURVE",
"181 360 CURVE",
"138 314 OFFCURVE",
"101 285 OFFCURVE",
"101 285 CURVE",
"52 249 OFFCURVE",
"32 194 OFFCURVE",
"68 137 CURVE SMOOTH",
"102 83 OFFCURVE",
"180 70 OFFCURVE",
"224 101 CURVE",
"228 103 OFFCURVE",
"433 236 OFFCURVE",
"433 362 CURVE SMOOTH",
"433 492 OFFCURVE",
"228 616 OFFCURVE",
"224 620 CURVE",
"183 653 OFFCURVE"
);
}
);
width = 468;
}
);
unicode = 003E;
},
{
glyphname = less;
layers = (
{
layerId = master01;
paths = (
{
closed = 1;
nodes = (
"360 81 OFFCURVE",
"394 121 CURVE SMOOTH",
"467 207 OFFCURVE",
"394 268 OFFCURVE",
"394 268 CURVE SMOOTH",
"394 268 OFFCURVE",
"344 309 OFFCURVE",
"286 366 CURVE",
"329 412 OFFCURVE",
"366 441 OFFCURVE",
"366 441 CURVE",
"415 477 OFFCURVE",
"435 532 OFFCURVE",
"399 589 CURVE SMOOTH",
"365 643 OFFCURVE",
"287 656 OFFCURVE",
"243 625 CURVE",
"239 623 OFFCURVE",
"34 490 OFFCURVE",
"34 364 CURVE SMOOTH",
"34 234 OFFCURVE",
"239 110 OFFCURVE",
"243 106 CURVE",
"284 73 OFFCURVE"
);
}
);
width = 474;
}
);
unicode = 003C;
},
{
glyphname = asciitilde;
layers = (
{
layerId = master01;
paths = (
{
closed = 1;
nodes = (
"385 335 OFFCURVE",
"385 335 CURVE",
"344 348 OFFCURVE",
"311 321 OFFCURVE",
"298 283 CURVE",
"297 284 OFFCURVE",
"297 286 OFFCURVE",
"296 287 CURVE",
"89 449 OFFCURVE",
"36 248 OFFCURVE",
"36 248 CURVE",
"23 213 OFFCURVE",
"45 169 OFFCURVE",
"80 157 CURVE",
"80 157 OFFCURVE",
"156 128 OFFCURVE",
"180 218 CURVE",
"180 218 OFFCURVE",
"343 71 OFFCURVE",
"425 214 CURVE SMOOTH",
"479 308 OFFCURVE"
);
}
);
width = 496;
}
);
unicode = 007E;
},
{
glyphname = asciicircum;
layers = (
{
layerId = master01;
paths = (
{
closed = 1;
nodes = (
"32 428 OFFCURVE",
"72 394 CURVE SMOOTH",
"158 321 OFFCURVE",
"219 394 OFFCURVE",
"219 394 CURVE SMOOTH",
"219 394 OFFCURVE",
"260 444 OFFCURVE",
"317 502 CURVE",
"363 459 OFFCURVE",
"392 422 OFFCURVE",
"392 422 CURVE",
"428 373 OFFCURVE",
"483 353 OFFCURVE",
"540 389 CURVE SMOOTH",
"594 423 OFFCURVE",
"607 501 OFFCURVE",
"576 545 CURVE",
"574 549 OFFCURVE",
"441 754 OFFCURVE",
"315 754 CURVE SMOOTH",
"185 754 OFFCURVE",
"61 549 OFFCURVE",
"57 545 CURVE",
"24 504 OFFCURVE"
);
}
);
width = 635;
}
);
unicode = 005E;
},
{
glyphname = percent;
layers = (
{
layerId = master01;
paths = (
{
closed = 1;
nodes = (
"479 351 OFFCURVE",
"562 580 CURVE SMOOTH",
"590 661 OFFCURVE",
"535 675 OFFCURVE",
"535 675 CURVE SMOOTH",
"535 675 OFFCURVE",
"474 710 OFFCURVE",
"429 640 CURVE SMOOTH",
"370 551 OFFCURVE",
"190 236 OFFCURVE",
"153 117 CURVE SMOOTH",
"132 47 OFFCURVE",
"184 26 OFFCURVE",
"184 26 CURVE SMOOTH",
"184 26 OFFCURVE",
"233 -1 OFFCURVE",
"273 55 CURVE",
"273 55 OFFCURVE"
);
},
{
closed = 1;
nodes = (
"217 397 OFFCURVE",
"144 411 CURVE SMOOTH",
"71 425 OFFCURVE",
"25 483 OFFCURVE",
"38 557 CURVE SMOOTH",
"52 630 OFFCURVE",
"107 689 OFFCURVE",
"200 672 CURVE SMOOTH",
"289 655 OFFCURVE",
"321 587 OFFCURVE",
"307 514 CURVE SMOOTH",
"290 424 OFFCURVE"
);
},
{
closed = 1;
nodes = (
"576 2 OFFCURVE",
"503 15 CURVE SMOOTH",
"429 29 OFFCURVE",
"384 88 OFFCURVE",
"397 161 CURVE SMOOTH",
"411 234 OFFCURVE",
"466 294 OFFCURVE",
"559 277 CURVE SMOOTH",
"648 260 OFFCURVE",
"680 192 OFFCURVE",
"666 119 CURVE SMOOTH",
"649 28 OFFCURVE"
);
}
);
width = 743;
}
);
unicode = 0025;
},
{
glyphname = at;
layers = (
{
layerId = master01;
paths = (
{
closed = 1;
nodes = (
"231 477 OFFCURVE",
"218 522 OFFCURVE",
"145 515 CURVE SMOOTH",
"32 505 OFFCURVE",
"42 375 OFFCURVE",
"42 375 CURVE",
"42 263 OFFCURVE",
"135 260 OFFCURVE",
"135 260 CURVE",
"221 250 OFFCURVE",
"235 302 OFFCURVE",
"235 302 CURVE",
"242 253 OFFCURVE",
"290 257 OFFCURVE",
"290 257 CURVE SMOOTH",
"290 257 OFFCURVE",
"367 246 OFFCURVE",
"360 394 CURVE",
"360 394 OFFCURVE",
"359 519 OFFCURVE",
"287 519 CURVE SMOOTH",
"242 519 OFFCURVE",
"231 477 OFFCURVE",
"231 477 CURVE SMOOTH",
"231 477 LINE SMOOTH"
);
},
{
closed = 1;
nodes = (
"224 388 OFFCURVE",
"224 375 CURVE SMOOTH",
"224 363 OFFCURVE",
"216 357 OFFCURVE",
"206 357 CURVE SMOOTH",
"196 357 OFFCURVE",
"188 363 OFFCURVE",
"188 375 CURVE SMOOTH",
"188 388 OFFCURVE",
"196 395 OFFCURVE",
"206 395 CURVE SMOOTH",
"216 395 OFFCURVE"
);
},
{
closed = 1;
nodes = (
"359 530 OFFCURVE",
"359 476 CURVE SMOOTH",
"359 399 OFFCURVE",
"457 418 OFFCURVE",
"457 418 CURVE",
"451 330 OFFCURVE",
"444 252 OFFCURVE",
"528 252 CURVE SMOOTH",
"611 252 OFFCURVE",
"591 415 OFFCURVE",
"591 415 CURVE SMOOTH",
"591 415 OFFCURVE",
"677 407 OFFCURVE",
"677 476 CURVE SMOOTH",
"677 551 OFFCURVE",
"585 541 OFFCURVE",
"585 541 CURVE SMOOTH",
"585 541 OFFCURVE",
"595 627 OFFCURVE",
"515 627 CURVE SMOOTH",
"431 628 OFFCURVE",
"448 542 OFFCURVE",
"448 542 CURVE SMOOTH",
"414 542 OFFCURVE"
);
},
{
closed = 1;
nodes = (
"303 246 OFFCURVE",
"103 237 CURVE SMOOTH",
"51 235 OFFCURVE",
"51 186 OFFCURVE",
"51 186 CURVE SMOOTH",
"51 186 OFFCURVE",
"51 144 OFFCURVE",
"100 141 CURVE SMOOTH",
"237 133 OFFCURVE",
"518 134 OFFCURVE",
"622 144 CURVE SMOOTH",
"661 147 OFFCURVE",
"661 189 OFFCURVE",
"661 189 CURVE SMOOTH",
"661 189 OFFCURVE",
"664 238 OFFCURVE",
"612 238 CURVE SMOOTH",
"612 238 OFFCURVE"
);
}
);
width = 710;
}
);
unicode = 0040;
},
{
glyphname = ampersand;
layers = (
{
layerId = master01;
paths = (
{
closed = 1;
nodes = (
"46 265 OFFCURVE",
"46 265 CURVE",
"6 64 OFFCURVE",
"159 -16 OFFCURVE",
"159 -16 CURVE",
"335 -113 OFFCURVE",
"488 8 OFFCURVE",
"488 8 CURVE SMOOTH",
"488 8 OFFCURVE",
"582 -134 OFFCURVE",
"688 -57 CURVE SMOOTH",
"809 32 OFFCURVE",
"672 158 OFFCURVE",
"672 158 CURVE SMOOTH",
"672 158 OFFCURVE",
"812 258 OFFCURVE",
"745 345 CURVE SMOOTH",
"677 431 OFFCURVE",
"568 321 OFFCURVE",
"568 321 CURVE",
"530 402 OFFCURVE",
"464 467 OFFCURVE",
"464 467 CURVE",
"568 602 OFFCURVE",
"464 706 OFFCURVE",
"464 706 CURVE",
"394 777 OFFCURVE",
"268 780 OFFCURVE",
"188 700 CURVE SMOOTH",
"98 610 OFFCURVE",
"175 467 OFFCURVE",
"175 467 CURVE",
"62 377 OFFCURVE"
);
},
{
closed = 1;
nodes = (
"349 200 OFFCURVE",
"311 150 OFFCURVE",
"280 190 CURVE",
"280 190 OFFCURVE",
"246 228 OFFCURVE",
"308 258 CURVE",
"349 200 LINE"
);
}
);
width = 798;
}
);
unicode = 0026;
},
{
glyphname = paragraph;
layers = (
{
layerId = master01;
paths = (
{
closed = 1;
nodes = (
"50 718 OFFCURVE",
"50 479 CURVE",
"50 479 OFFCURVE",
"50 312 OFFCURVE",
"241 312 CURVE",
"241 312 OFFCURVE",
"217 -118 OFFCURVE",
"312 -118 CURVE SMOOTH",
"403 -118 OFFCURVE",
"384 503 OFFCURVE",
"384 503 CURVE",
"408 503 LINE",
"408 503 OFFCURVE",
"384 -118 OFFCURVE",
"480 -118 CURVE SMOOTH",
"575 -118 OFFCURVE",
"528 503 OFFCURVE",
"528 503 CURVE SMOOTH",
"528 503 OFFCURVE",
"610 527 OFFCURVE",
"599 599 CURVE",
"599 599 OFFCURVE",
"595 673 OFFCURVE",
"411 681 CURVE",
"411 681 OFFCURVE"
);
}
);
width = 702;
}
);
unicode = 00B6;
},
{
glyphname = degree;
layers = (
{
layerId = master01;
paths = (
{
closed = 1;
nodes = (
"288 719 OFFCURVE",
"201 719 CURVE SMOOTH",
"113 719 OFFCURVE",
"51 652 OFFCURVE",
"51 570 CURVE SMOOTH",
"51 487 OFFCURVE",
"113 421 OFFCURVE",
"201 421 CURVE SMOOTH",
"288 421 OFFCURVE",
"350 487 OFFCURVE",
"350 570 CURVE SMOOTH",
"350 652 OFFCURVE"
);
},
{
closed = 1;
nodes = (
"283 620 OFFCURVE",
"283 567 CURVE SMOOTH",
"283 524 OFFCURVE",
"257 491 OFFCURVE",
"201 491 CURVE SMOOTH",
"144 491 OFFCURVE",
"116 524 OFFCURVE",
"116 567 CURVE SMOOTH",
"116 607 OFFCURVE",
"144 654 OFFCURVE",
"201 654 CURVE SMOOTH",
"249 654 OFFCURVE"
);
}
);
width = 390;
}
);
unicode = 00B0;
},
{
glyphname = bar;
layers = (
{
layerId = master01;
paths = (
{
closed = 1;
nodes = (
"235 305 OFFCURVE",
"215 682 CURVE SMOOTH",
"210 775 OFFCURVE",
"131 775 OFFCURVE",
"131 775 CURVE SMOOTH",
"131 775 OFFCURVE",
"58 779 OFFCURVE",
"48 684 CURVE SMOOTH",
"36 564 OFFCURVE",
"26 250 OFFCURVE",
"38 8 CURVE SMOOTH",
"42 -73 OFFCURVE",
"119 -63 OFFCURVE",
"119 -63 CURVE SMOOTH",
"119 -63 OFFCURVE",
"188 -69 OFFCURVE",
"200 8 CURVE",
"200 8 OFFCURVE"
);
}
);
width = 258;
}
);
unicode = 007C;
},
{
glyphname = acute;
layers = (
{
layerId = master01;
paths = (
{
closed = 1;
nodes = (
"15 629 OFFCURVE",
"35 589 CURVE SMOOTH",
"57 546 OFFCURVE",
"113 560 OFFCURVE",
"113 560 CURVE SMOOTH",
"113 560 OFFCURVE",
"220 575 OFFCURVE",
"276 624 CURVE SMOOTH",
"326 667 OFFCURVE",
"303 715 OFFCURVE",
"282 737 CURVE",
"262 756 OFFCURVE",
"239 775 OFFCURVE",
"179 755 CURVE SMOOTH",
"136 741 OFFCURVE",
"71 695 OFFCURVE",
"49 667 CURVE",
"49 667 OFFCURVE"
);
}
);
width = 342;
}
);
unicode = 00B4;
},
{
glyphname = caron;
layers = (
{
layerId = master01;
paths = (
{
closed = 1;
nodes = (
"376 679 OFFCURVE",
"351 699 CURVE SMOOTH",
"306 735 OFFCURVE",
"271 690 OFFCURVE",
"271 690 CURVE SMOOTH",
"271 690 OFFCURVE",
"246 663 OFFCURVE",
"208 639 CURVE",
"177 656 OFFCURVE",
"154 687 OFFCURVE",
"153 687 CURVE",
"154 687 LINE",
"135 713 OFFCURVE",
"100 719 OFFCURVE",
"74 701 CURVE SMOOTH",
"48 683 OFFCURVE",
"42 647 OFFCURVE",
"60 622 CURVE",
"62 619 OFFCURVE",
"134 525 OFFCURVE",
"208 525 CURVE SMOOTH",
"285 525 OFFCURVE",
"358 616 OFFCURVE",
"360 619 CURVE",
"380 643 OFFCURVE"
);
}
);
width = 412;
}
);
unicode = 02C7;
},
{
glyphname = circumflex;
layers = (
{
layerId = master01;
paths = (
{
closed = 1;
nodes = (
"30 595 OFFCURVE",
"55 575 CURVE SMOOTH",
"100 539 OFFCURVE",
"135 584 OFFCURVE",
"135 584 CURVE SMOOTH",
"135 584 OFFCURVE",
"160 611 OFFCURVE",
"198 635 CURVE",
"229 618 OFFCURVE",
"252 587 OFFCURVE",
"253 587 CURVE",
"252 587 LINE",
"271 561 OFFCURVE",
"306 555 OFFCURVE",
"332 573 CURVE SMOOTH",
"358 591 OFFCURVE",
"364 627 OFFCURVE",
"346 652 CURVE",
"344 655 OFFCURVE",
"272 749 OFFCURVE",
"198 749 CURVE SMOOTH",
"121 749 OFFCURVE",
"48 658 OFFCURVE",
"46 655 CURVE",
"26 631 OFFCURVE"
);
}
);
width = 393;
}
);
unicode = 02C6;
},
{
glyphname = grave;
layers = (
{
layerId = master01;
paths = (
{
closed = 1;
nodes = (
"99 769 OFFCURVE",
"79 750 CURVE",
"58 728 OFFCURVE",
"35 680 OFFCURVE",
"85 637 CURVE SMOOTH",
"141 588 OFFCURVE",
"248 573 OFFCURVE",
"248 573 CURVE SMOOTH",
"248 573 OFFCURVE",
"304 559 OFFCURVE",
"326 602 CURVE SMOOTH",
"346 642 OFFCURVE",
"312 680 OFFCURVE",
"312 680 CURVE",
"290 708 OFFCURVE",
"225 754 OFFCURVE",
"182 768 CURVE SMOOTH",
"122 788 OFFCURVE"
);
}
);
width = 376;
}
);
unicode = 0060;
},
{
glyphname = ring;
layers = (
{
layerId = master01;
paths = (
{
closed = 1;
nodes = (
"231 746 OFFCURVE",
"164 746 CURVE SMOOTH",
"96 746 OFFCURVE",
"41 694 OFFCURVE",
"41 631 CURVE SMOOTH",
"41 567 OFFCURVE",
"96 516 OFFCURVE",
"164 516 CURVE SMOOTH",
"231 516 OFFCURVE",
"286 567 OFFCURVE",
"286 631 CURVE SMOOTH",
"286 694 OFFCURVE"
);
},
{
closed = 1;
nodes = (
"227 670 OFFCURVE",
"227 629 CURVE SMOOTH",
"227 596 OFFCURVE",
"207 570 OFFCURVE",
"164 570 CURVE SMOOTH",
"120 570 OFFCURVE",
"98 596 OFFCURVE",
"98 629 CURVE SMOOTH",
"98 660 OFFCURVE",
"120 696 OFFCURVE",
"164 696 CURVE SMOOTH",
"201 696 OFFCURVE"
);
}
);
width = 329;
}
);
unicode = 02DA;
},
{
glyphname = tilde;
layers = (
{
layerId = master01;
paths = (
{
closed = 1;
nodes = (
"400 750 OFFCURVE",
"400 750 CURVE",
"359 763 OFFCURVE",
"326 736 OFFCURVE",
"313 698 CURVE",
"312 699 OFFCURVE",
"312 701 OFFCURVE",
"311 702 CURVE",
"104 864 OFFCURVE",
"51 663 OFFCURVE",
"51 663 CURVE",
"38 628 OFFCURVE",
"60 584 OFFCURVE",
"95 572 CURVE",
"95 572 OFFCURVE",
"171 543 OFFCURVE",
"195 633 CURVE",
"195 633 OFFCURVE",
"358 486 OFFCURVE",
"440 629 CURVE SMOOTH",
"494 723 OFFCURVE"
);
}
);
width = 510;
}
);
unicode = 02DC;
},
{
glyphname = _0014;
layers = (
{
layerId = master01;
paths = (
{
closed = 1;
nodes = (
"17 239 OFFCURVE",
"56 73 CURVE",
"56 73 OFFCURVE",
"77 -20 OFFCURVE",
"174 -18 CURVE",
"174 -18 OFFCURVE",
"321 -38 OFFCURVE",
"309 192 CURVE",
"309 192 OFFCURVE",
"333 -22 OFFCURVE",
"515 -18 CURVE",
"515 -18 OFFCURVE",
"627 -17 OFFCURVE",
"655 92 CURVE",
"655 92 OFFCURVE",
"696 228 OFFCURVE",
"663 428 CURVE",
"663 428 OFFCURVE",
"647 520 OFFCURVE",
"536 518 CURVE SMOOTH",
"536 518 OFFCURVE",
"401 531 OFFCURVE",
"403 323 CURVE",
"403 323 OFFCURVE",
"396 526 OFFCURVE",
"208 523 CURVE SMOOTH",
"85 521 OFFCURVE",
"57 401 OFFCURVE",
"57 401 CURVE SMOOTH",
"57 401 OFFCURVE"
);
}
